<svg class="svg-icon" viewBox="0 0 24 24" xmlns="http://www.w3.org/2000/svg">
<path d="M10.25 1.5C9.1017 1.5 8.15285 2.38331 8.02539 3.5H6.25C5.0095 3.5 4 4.509 4 5.75V19.25C4 20.4905 5.0095 21.5 6.25 21.5H12.3838C12.0268 21.044 11.726 20.542 11.5 20H6.25C5.8365 20 5.5 19.6635 5.5 19.25V5.75C5.5 5.3365 5.8365 5 6.25 5H8.38477C8.79062 5.60095 9.47736 6 10.25 6H13.75C14.5226 6 15.2094 5.60095 15.6152 5H17.75C18.1635 5 18.5 5.3365 18.5 5.75V11.085C19.0225 11.166 19.5265 11.3015 20 11.499V5.75C20 4.509 18.9905 3.5 17.75 3.5H15.9746C15.8471 2.38331 14.8983 1.5 13.75 1.5H10.25ZM10.25 3H13.75C14.1732 3 14.5 3.32675 14.5 3.75C14.5 4.17325 14.1732 4.5 13.75 4.5H10.25C9.82675 4.5 9.5 4.17325 9.5 3.75C9.5 3.32675 9.82675 3 10.25 3ZM8.25 8C8.15062 7.99859 8.05194 8.01696 7.95972 8.05402C7.86749 8.09108 7.78355 8.1461 7.71277 8.21588C7.642 8.28566 7.58579 8.36882 7.54743 8.46051C7.50907 8.5522 7.48932 8.65061 7.48932 8.75C7.48932 8.84939 7.50907 8.9478 7.54743 9.03949C7.58579 9.13118 7.642 9.21434 7.71277 9.28412C7.78355 9.3539 7.86749 9.40892 7.95972 9.44598C8.05194 9.48304 8.15062 9.50141 8.25 9.5H15.75C15.8494 9.50141 15.9481 9.48304 16.0403 9.44598C16.1325 9.40892 16.2164 9.3539 16.2872 9.28412C16.358 9.21434 16.4142 9.13118 16.4526 9.03949C16.4909 8.9478 16.5107 8.84939 16.5107 8.75C16.5107 8.65061 16.4909 8.5522 16.4526 8.46051C16.4142 8.36882 16.358 8.28566 16.2872 8.21588C16.2164 8.1461 16.1325 8.09108 16.0403 8.05402C15.9481 8.01696 15.8494 7.99859 15.75 8H8.25ZM8.25 11C8.15062 10.9986 8.05194 11.017 7.95972 11.054C7.86749 11.0911 7.78355 11.1461 7.71277 11.2159C7.642 11.2857 7.58579 11.3688 7.54743 11.4605C7.50907 11.5522 7.48932 11.6506 7.48932 11.75C7.48932 11.8494 7.50907 11.9478 7.54743 12.0395C7.58579 12.1312 7.642 12.2143 7.71277 12.2841C7.78355 12.3539 7.86749 12.4089 7.95972 12.446C8.05194 12.483 8.15062 12.5014 8.25 12.5H11.75C11.8494 12.5014 11.9481 12.483 12.0403 12.446C12.1325 12.4089 12.2164 12.3539 12.2872 12.2841C12.358 12.2143 12.4142 12.1312 12.4526 12.0395C12.4909 11.9478 12.5107 11.8494 12.5107 11.75C12.5107 11.6506 12.4909 11.5522 12.4526 11.4605C12.4142 11.3688 12.358 11.2857 12.2872 11.2159C12.2164 11.1461 12.1325 11.0911 12.0403 11.054C11.9481 11.017 11.8494 10.9986 11.75 11H8.25ZM17.5 12C14.4625 12 12 14.4625 12 17.5C12 20.5375 14.4625 23 17.5 23C20.5375 23 23 20.5375 23 17.5C23 14.4625 20.5375 12 17.5 12ZM20.5 15C20.6279 15 20.7558 15.0487 20.8535 15.1465C21.049 15.342 21.049 15.658 20.8535 15.8535L16.8535 19.8535C16.756 19.951 16.628 20 16.5 20C16.372 20 16.244 19.951 16.1465 19.8535L14.1465 17.8535C13.951 17.658 13.951 17.342 14.1465 17.1465C14.342 16.951 14.658 16.951 14.8535 17.1465L16.5 18.793L20.1465 15.1465C20.2442 15.0487 20.3721 15 20.5 15Z"/>
</svg>
