<svg class="svg-icon" viewBox="0 0 24 24" xmlns="http://www.w3.org/2000/svg">
<path d="M12 1.99902C11.8363 1.99902 11.6727 2.05266 11.5352 2.16016L4.42969 7.75977C3.51969 8.47477 3 9.55008 3 10.7051V20.25C3 20.94 3.56 21.5 4.25 21.5H12.3799C12.0199 21.045 11.725 20.54 11.5 20H4.5V10.7051C4.5 10.0101 4.81035 9.37043 5.36035 8.94043L12 3.70508L18.6396 8.94043C19.1896 9.37043 19.5 10.0101 19.5 10.7051V11.3154C20.035 11.4854 20.535 11.7254 21 12.0254V10.7051C21 9.55008 20.4803 8.47477 19.5703 7.75977L12.4648 2.16016C12.3273 2.05266 12.1637 1.99902 12 1.99902ZM17.5 12C14.4625 12 12 14.4625 12 17.5C12 20.5375 14.4625 23 17.5 23C20.5375 23 23 20.5375 23 17.5C23 14.4625 20.5375 12 17.5 12ZM20.5 15C20.6279 15 20.7558 15.0487 20.8535 15.1465C21.049 15.342 21.049 15.658 20.8535 15.8535L16.8535 19.8535C16.756 19.951 16.628 20 16.5 20C16.372 20 16.244 19.951 16.1465 19.8535L14.1465 17.8535C13.951 17.658 13.951 17.342 14.1465 17.1465C14.342 16.951 14.658 16.951 14.8535 17.1465L16.5 18.793L20.1465 15.1465C20.2442 15.0487 20.3721 15 20.5 15Z" />
</svg>
