<svg class="svg-icon" viewBox="0 0 24 24" xmlns="http://www.w3.org/2000/svg">
<path d="M7.25 2C5.46403 2 4 3.46403 4 5.25C4 5.4199 4.0464 5.55348 4.07227 5.70605C3.45978 6.20889 3 6.89771 3 7.75C3 8.8979 3.72997 9.85332 4.73828 10.2617C5.05319 11.0392 5.68777 11.6345 6.5 11.8691V13.0713C3.32909 13.4319 2.06543 15.9434 2.06543 15.9434C2.02226 16.0398 1.99996 16.1443 2 16.25V21.25C2.00002 21.4489 2.07904 21.6397 2.21969 21.7803C2.36034 21.921 2.55109 22 2.75 22H21.127C21.2352 22.018 21.3461 22.012 21.4518 21.9825C21.5576 21.9529 21.6555 21.9006 21.7388 21.829C21.822 21.7575 21.8886 21.6686 21.9337 21.5685C21.9788 21.4685 22.0015 21.3598 22 21.25V13.75C22 13.5511 21.921 13.3603 21.7803 13.2197C21.6397 13.079 21.4489 13 21.25 13C21.25 13 18.6968 12.9958 16.1025 13.5146C14.7887 13.7773 13.5439 14.3003 12.3242 14.8975C11.0194 14.0061 9.60317 13.3052 8 13.1221V11.8467C9.06758 11.5337 9.85324 10.617 9.95312 9.47754C10.8712 8.90175 11.5 7.90694 11.5 6.75C11.5 5.77403 11.0203 4.93673 10.3359 4.3418C9.93771 2.99609 8.71725 2 7.25 2ZM7.25 3.5C8.09375 3.5 8.78334 4.0876 8.95605 4.87109C8.99605 5.05343 9.1026 5.2143 9.25488 5.32227C9.70663 5.64152 10 6.15541 10 6.75C10 7.47976 9.56004 8.09371 8.93555 8.36035C8.78891 8.42292 8.66602 8.5306 8.58472 8.66774C8.50341 8.80488 8.46792 8.96437 8.4834 9.12305C8.49508 9.24252 8.5 9.28004 8.5 9.25C8.5 9.94018 7.95884 10.4764 7.27246 10.4902C7.25586 10.4897 7.23925 10.4897 7.22266 10.4902C6.6364 10.4761 6.15971 10.0747 6.03516 9.5293C6.00375 9.39162 5.93411 9.2656 5.83425 9.16575C5.7344 9.06589 5.60838 8.99625 5.4707 8.96484C4.91557 8.83808 4.5 8.35068 4.5 7.75C4.5 7.2554 4.78358 6.84296 5.19922 6.63672C5.35778 6.55817 5.48346 6.42608 5.55405 6.26382C5.62464 6.10155 5.63559 5.91956 5.58496 5.75C5.52993 5.56549 5.5 5.404 5.5 5.25C5.5 4.27497 6.27497 3.5 7.25 3.5ZM17.25 6C16.3958 6 15.6602 6.34732 15.1895 6.87695C14.7187 7.40659 14.5 8.08333 14.5 8.75C14.5 9.41667 14.7187 10.0934 15.1895 10.623C15.6602 11.1527 16.3958 11.5 17.25 11.5C18.1042 11.5 18.8398 11.1527 19.3105 10.623C19.7813 10.0934 20 9.41667 20 8.75C20 8.08333 19.7813 7.40659 19.3105 6.87695C18.8398 6.34732 18.1042 6 17.25 6ZM17.25 7.5C17.7292 7.5 17.9936 7.65268 18.1895 7.87305C18.3853 8.09341 18.5 8.41667 18.5 8.75C18.5 9.08333 18.3853 9.40659 18.1895 9.62695C17.9936 9.84732 17.7292 10 17.25 10C16.7708 10 16.5064 9.84732 16.3105 9.62695C16.1147 9.40659 16 9.08333 16 8.75C16 8.41667 16.1147 8.09341 16.3105 7.87305C16.5064 7.65268 16.7708 7.5 17.25 7.5ZM7.18945 14.5078C7.2226 14.5103 7.25587 14.5107 7.28906 14.5088C9.68333 14.5344 11.7677 16.2129 13.9297 18.0693C14.9224 18.9217 15.9446 19.7817 17.0205 20.5H3.5V16.4697C3.56721 16.3116 4.36737 14.5318 7.18945 14.5078ZM20.5 14.5303V20.4307C18.6273 20.0995 16.8397 18.59 14.9072 16.9307C14.5093 16.589 14.1013 16.2469 13.6855 15.9121C14.6044 15.4971 15.5064 15.1635 16.3975 14.9854C18.2114 14.6226 19.7057 14.5534 20.5 14.5303Z" />
</svg>
