<svg class="svg-icon" viewBox="0 0 24 24" xmlns="http://www.w3.org/2000/svg">
<path d="M12 2.51367C11.4257 2.51367 10.8515 2.7005 10.377 3.07422C10.3766 3.07422 10.3763 3.07422 10.376 3.07422L4.42969 7.75977C3.52774 8.47058 3 9.55675 3 10.7051V19.75C3 20.7075 3.79252 21.5 4.75 21.5H19.25C20.2075 21.5 21 20.7075 21 19.75V10.7051C21 9.55675 20.4723 8.47058 19.5703 7.75977L13.623 3.07422C13.1485 2.7005 12.5743 2.51367 12 2.51367ZM12 4.00977C12.2449 4.00977 12.4899 4.09115 12.6953 4.25293L18.6426 8.93848C19.1846 9.36566 19.5 10.0154 19.5 10.7051V19.75C19.5 19.8975 19.3975 20 19.25 20H4.75C4.60248 20 4.5 19.8975 4.5 19.75V10.7051C4.5 10.0154 4.81537 9.36566 5.35742 8.93848L11.3047 4.25293C11.5101 4.09115 11.7551 4.00977 12 4.00977ZM12 8.5C11.7335 8.5 11.4713 8.52243 11.2168 8.56543L11.0596 9.2168C10.8156 10.2278 9.77484 10.8287 8.77734 10.5342L8.23047 10.3721C7.90097 10.7961 7.63758 11.2778 7.45508 11.7988L7.86133 12.1904C8.60483 12.9059 8.60483 14.095 7.86133 14.8105L7.45508 15.2012C7.63758 15.7227 7.90097 16.2039 8.23047 16.6279L8.77734 16.4668C9.77484 16.1718 10.8156 16.7727 11.0596 17.7842L11.2168 18.4346C11.4713 18.4771 11.7335 18.5 12 18.5C12.2665 18.5 12.5282 18.4776 12.7832 18.4346L12.9404 17.7832C13.1844 16.7717 14.2252 16.1713 15.2227 16.4658L15.7695 16.6279C16.099 16.2039 16.3624 15.7222 16.5449 15.2012L16.1387 14.8096C15.3952 14.0946 15.3952 12.9054 16.1387 12.1904L16.5449 11.7988C16.3624 11.2773 16.099 10.7961 15.7695 10.3721L15.2227 10.5342C14.2252 10.8292 13.1844 10.2283 12.9404 9.2168L12.7832 8.56543C12.5282 8.52243 12.2665 8.5 12 8.5ZM12 12C12.8285 12 13.5 12.6715 13.5 13.5C13.5 14.3285 12.8285 15 12 15C11.1715 15 10.5 14.3285 10.5 13.5C10.5 12.6715 11.1715 12 12 12Z" />
</svg>
