<svg class="ofirio-logo" viewBox="0 0 97 37" fill="none" xmlns="http://www.w3.org/2000/svg" preserveAspectRatio="xMinYMin">
<path d="M2.46038 20.1712C2.46038 17.2134 3.43615 14.774 5.38767 12.853C7.34936 10.9218 9.67187 9.95618 12.3552 9.95618C15.3232 9.95618 17.7778 10.9269 19.7192 12.8682C21.6605 14.7994 22.6312 17.2439 22.6312 20.2017C22.6312 23.1391 21.6707 25.5785 19.7497 27.5199C17.8286 29.4612 15.4096 30.4319 12.4924 30.4319C9.57531 30.4319 7.17148 29.4663 5.28095 27.5351C3.40057 25.6039 2.46038 23.1493 2.46038 20.1712ZM12.5534 13.9507C10.8763 13.9202 9.52449 14.4996 8.49791 15.6888C7.47133 16.878 6.95804 18.4128 6.95804 20.2932C6.95804 22.0719 7.48149 23.5457 8.5284 24.7146C9.57531 25.8835 10.8967 26.4679 12.4924 26.4679C14.1695 26.4679 15.5214 25.8936 16.5479 24.7451C17.5847 23.5863 18.1031 22.0617 18.1031 20.1712C18.1031 18.3111 17.5949 16.817 16.5784 15.6888C15.5722 14.5606 14.2305 13.9812 12.5534 13.9507ZM26.2598 10.1696H37.5268V14.0422H30.544V18.1282H37.5268V22.0312H30.5745V30.188H26.2598V10.1696ZM40.9877 10.1696H45.2872V30.188H40.9877V10.1696ZM49.2817 10.1696H55.8681C57.8704 10.1696 59.451 10.6982 60.6097 11.7552C61.7786 12.8123 62.363 14.2404 62.363 16.0394C62.363 17.066 62.0937 18.1333 61.555 19.2412C61.0264 20.3491 60.0456 21.2181 58.6124 21.8483L64.2078 30.188H59.268L54.0843 22.4429H53.5964V30.188H49.2817V10.1696ZM53.6269 13.7373V18.9515H54.5569C56.8032 18.9515 57.9263 18.0316 57.9263 16.1919C57.9263 15.4398 57.6316 14.8451 57.0421 14.4081C56.4627 13.9609 55.6547 13.7373 54.6179 13.7373H53.6269ZM67.3028 10.1696H71.6023V30.188H67.3028V10.1696ZM74.9717 20.1712C74.9717 17.2134 75.9475 14.774 77.899 12.853C79.8607 10.9218 82.1832 9.95618 84.8665 9.95618C87.8345 9.95618 90.2891 10.9269 92.2305 12.8682C94.1718 14.7994 95.1425 17.2439 95.1425 20.2017C95.1425 23.1391 94.182 25.5785 92.261 27.5199C90.3399 29.4612 87.9209 30.4319 85.0037 30.4319C82.0866 30.4319 79.6828 29.4663 77.7923 27.5351C75.9119 25.6039 74.9717 23.1493 74.9717 20.1712ZM85.0647 13.9507C83.3876 13.9202 82.0358 14.4996 81.0092 15.6888C79.9826 16.878 79.4693 18.4128 79.4693 20.2932C79.4693 22.0719 79.9928 23.5457 81.0397 24.7146C82.0866 25.8835 83.408 26.4679 85.0037 26.4679C86.6808 26.4679 88.0327 25.8936 89.0593 24.7451C90.096 23.5863 90.6144 22.0617 90.6144 20.1712C90.6144 18.3111 90.1062 16.817 89.0897 15.6888C88.0835 14.5606 86.7418 13.9812 85.0647 13.9507Z" fill="#222222"/>
<path d="M2.50281 6.70747C4.09036 8.30773 4.08971 8.30838 4.08907 8.30902C4.08887 8.30921 4.08824 8.30984 4.08785 8.31022C4.08706 8.311 4.08633 8.31172 4.08566 8.31239C4.08431 8.31372 4.08317 8.31483 4.08225 8.31573C4.08041 8.31753 4.07943 8.31848 4.07932 8.31859C4.07908 8.31882 4.08228 8.31573 4.08886 8.30955C4.10205 8.29717 4.12875 8.27247 4.1687 8.23716C4.24869 8.16647 4.38114 8.05381 4.56387 7.91282C4.93022 7.63015 5.49276 7.2381 6.23428 6.84198C7.71622 6.05035 9.88905 5.25414 12.6465 5.25414V0.745857C8.99734 0.745857 6.09835 1.80339 4.11009 2.86549C3.11652 3.39625 2.34437 3.93106 1.8098 4.34354C1.54207 4.55012 1.33251 4.72712 1.1831 4.85917C1.10835 4.92524 1.04851 4.98019 1.00382 5.02212C0.981471 5.0431 0.962898 5.06083 0.948131 5.07508C0.940746 5.08221 0.934312 5.08847 0.928831 5.09384C0.926091 5.09652 0.923588 5.09898 0.921325 5.10121C0.920193 5.10233 0.919121 5.10338 0.918109 5.10438C0.917603 5.10488 0.916887 5.10559 0.916635 5.10584C0.915935 5.10654 0.91525 5.10722 2.50281 6.70747ZM12.6465 5.25414C15.4039 5.25414 17.5767 6.05035 19.0586 6.84198C19.8001 7.2381 20.3627 7.63015 20.729 7.91282C20.9118 8.05381 21.0442 8.16647 21.1242 8.23716C21.1642 8.27247 21.1909 8.29717 21.204 8.30955C21.2106 8.31573 21.2138 8.31882 21.2136 8.31859C21.2135 8.31848 21.2125 8.31753 21.2107 8.31573C21.2097 8.31483 21.2086 8.31372 21.2073 8.31239C21.2066 8.31172 21.2058 8.311 21.2051 8.31022C21.2047 8.30984 21.204 8.30921 21.2038 8.30902C21.2032 8.30838 21.2025 8.30773 22.7901 6.70747C24.3777 5.10722 24.377 5.10654 24.3763 5.10584C24.376 5.10559 24.3753 5.10488 24.3748 5.10438C24.3738 5.10338 24.3727 5.10233 24.3716 5.10121C24.3693 5.09898 24.3668 5.09652 24.3641 5.09384C24.3586 5.08847 24.3522 5.08221 24.3448 5.07508C24.33 5.06083 24.3114 5.0431 24.2891 5.02212C24.2444 4.98019 24.1846 4.92524 24.1098 4.85917C23.9604 4.72712 23.7508 4.55012 23.4831 4.34354C22.9485 3.93106 22.1764 3.39625 21.1828 2.86549C19.1946 1.80339 16.2956 0.745857 12.6465 0.745857V5.25414Z" fill="#01D092"/>
</svg>
