<svg width="30" height="30" viewBox="0 0 30 30" fill="none" xmlns="http://www.w3.org/2000/svg">
<path d="M14.9695 2.5C14.7696 2.50683 14.5771 2.57741 14.4202 2.70142L5.53711 9.69971C4.40967 10.5882 3.75 11.9459 3.75 13.3814V25.3125C3.75 26.1647 4.46025 26.875 5.3125 26.875H11.5625C12.4147 26.875 13.125 26.1647 13.125 25.3125V19.0625C13.125 18.8781 13.2531 18.75 13.4375 18.75H16.5625C16.7469 18.75 16.875 18.8781 16.875 19.0625V25.3125C16.875 26.1647 17.5853 26.875 18.4375 26.875H24.6875C25.5397 26.875 26.25 26.1647 26.25 25.3125V13.3814C26.25 11.9459 25.5903 10.5882 24.4629 9.69971L15.5798 2.70142C15.4065 2.56447 15.1903 2.49313 14.9695 2.5ZM15 4.63135L23.3032 11.1731C23.9808 11.7071 24.375 12.5193 24.375 13.3814V25H18.75V19.0625C18.75 17.8657 17.7593 16.875 16.5625 16.875H13.4375C12.2407 16.875 11.25 17.8657 11.25 19.0625V25H5.625V13.3814C5.625 12.5193 6.01921 11.7071 6.69678 11.1731L15 4.63135Z" fill="#6454C3"/>
</svg>
