<svg viewBox="0 0 26 28" xmlns="http://www.w3.org/2000/svg">
<path d="M10.8168 0.200012C7.54602 0.200012 5.44406 1.71058 4.78749 3.33243C2.21141 3.8802 0.399994 6.69845 0.399994 9.79884C0.399994 11.0751 0.770244 12.3528 1.41132 13.7715C0.887673 14.4121 0.399994 15.2155 0.399994 16.4C0.399994 17.9525 1.41653 19.4482 3.22773 20.2813C2.6589 21.6048 2.78085 22.8815 3.45859 23.7899C4.16254 24.7334 5.34545 25.2244 6.61562 25.3215C7.00067 26.3328 7.69419 27.0355 8.46249 27.3699C9.33752 27.7509 10.2328 27.8 10.8168 27.8C11.7097 27.8 12.4925 27.3792 13.0012 26.7266C13.5095 27.3754 14.29 27.7936 15.1785 27.8H15.1797C15.7318 27.804 16.6234 27.7536 17.5059 27.3734C18.2673 27.0454 18.9597 26.3546 19.3562 25.3695C20.3154 25.3386 21.3078 25.1965 22.1488 24.7227C23.0938 24.1903 23.8 23.1825 23.8 21.8C23.8 21.2595 23.6051 20.7605 23.3746 20.259C24.1451 19.876 24.7522 19.3856 25.0844 18.7801C25.5031 18.0168 25.6 17.18 25.6 16.4C25.6 15.204 25.0352 14.4846 24.4867 13.8969C25.1374 12.4784 25.6212 11.1072 25.6 9.78946C25.5442 6.28884 23.1851 3.83143 20.6266 3.32306C20.0564 1.82433 18.4352 0.200012 15.1832 0.200012C14.3647 0.200012 13.5695 0.410271 13.068 1.05665C13.0432 1.08853 13.0231 1.12427 13 1.15743C12.9769 1.12427 12.9568 1.08853 12.932 1.05665C12.4305 0.410271 11.6352 0.200012 10.8168 0.200012ZM10.8168 1.40001C11.4641 1.40001 11.7603 1.50315 11.984 1.79142C12.2077 2.07969 12.4 2.7268 12.4 3.91134V7.29923C12.3893 7.36403 12.3893 7.43014 12.4 7.49493V9.80001H10.6V6.80001H8.08749C7.83708 6.10561 7.17589 5.60001 6.39999 5.60001C5.41299 5.60001 4.59999 6.41301 4.59999 7.40001C4.59999 8.38702 5.41299 9.20001 6.39999 9.20001C7.17589 9.20001 7.83708 8.69441 8.08749 8.00001H9.39999V11H12.4V15.8H8.19999V19.5125C7.5056 19.7629 6.99999 20.4241 6.99999 21.2C6.99999 22.187 7.81299 23 8.79999 23C9.787 23 10.6 22.187 10.6 21.2C10.6 20.4241 10.0944 19.7629 9.39999 19.5125V17H12.4V21.0992C12.3893 21.164 12.3893 21.2301 12.4 21.2949V24.9992C12.4 25.9811 11.7642 26.6 10.8168 26.6C10.3112 26.6 9.56767 26.542 8.94179 26.2695C8.31591 25.9971 7.8083 25.5704 7.58242 24.6559L7.46992 24.2H6.99999C5.89966 24.2 4.92018 23.7421 4.4207 23.0727C3.92122 22.4032 3.789 21.5282 4.51562 20.307L4.89531 19.6684L4.19101 19.4317C2.35997 18.8162 1.59999 17.5856 1.59999 16.4C1.59999 15.3682 1.98297 14.8478 2.5246 14.2555L2.75781 14H4.71249C4.96291 14.6944 5.6241 15.2 6.39999 15.2C7.387 15.2 8.19999 14.387 8.19999 13.4C8.19999 12.413 7.387 11.6 6.39999 11.6C5.6241 11.6 4.96291 12.1056 4.71249 12.8H2.27968C1.82489 11.6921 1.59999 10.7368 1.59999 9.79884C1.59999 7.04493 3.32527 4.63454 5.27265 4.39532L5.66874 4.34728L5.77656 3.96407C6.04517 3.01947 7.7435 1.40001 10.8168 1.40001ZM15.1832 1.40001C18.2565 1.40001 19.3089 2.85962 19.6234 3.96407L19.7324 4.34728L20.1273 4.39532C22.1504 4.64383 24.3504 6.69784 24.4 9.80939C24.4178 10.9135 23.9661 12.2598 23.2586 13.741L23.0769 14.1219L23.3723 14.4207C23.9977 15.0552 24.4 15.3928 24.4 16.4C24.4 17.0762 24.3078 17.6997 24.032 18.2024C23.8563 18.5226 23.5909 18.8053 23.2 19.0496V16.4H17.8V14.4875C18.4944 14.2371 19 13.5759 19 12.8C19 11.813 18.187 11 17.2 11C16.213 11 15.4 11.813 15.4 12.8C15.4 13.5759 15.9056 14.2371 16.6 14.4875V17.6H22V19.9145C21.9793 20.0515 22.0066 20.1914 22.0773 20.3106C22.0777 20.3109 22.0781 20.3113 22.0785 20.3117C22.3895 20.9465 22.6 21.4847 22.6 21.8C22.6 22.8175 22.2119 23.3097 21.5594 23.6774C20.9069 24.045 19.9453 24.2 19 24.2H18.5301L18.4176 24.6559C18.1933 25.564 17.6695 25.9969 17.0312 26.2719C16.393 26.5469 15.6462 26.6033 15.1879 26.6C14.2354 26.5931 13.6 25.9811 13.6 24.9992V21.8H16.1125C16.3629 22.4944 17.0241 23 17.8 23C18.787 23 19.6 22.187 19.6 21.2C19.6 20.213 18.787 19.4 17.8 19.4C17.0241 19.4 16.3629 19.9056 16.1125 20.6H13.6V16.5008C13.6107 16.436 13.6107 16.3699 13.6 16.3051V10.5008C13.6107 10.436 13.6107 10.3699 13.6 10.3051V8.00001H18.5125C18.7629 8.69441 19.4241 9.20001 20.2 9.20001C21.187 9.20001 22 8.38702 22 7.40001C22 6.41301 21.187 5.60001 20.2 5.60001C19.4241 5.60001 18.7629 6.10561 18.5125 6.80001H13.6V3.91134C13.6 2.7268 13.7923 2.07969 14.016 1.79142C14.2397 1.50315 14.5358 1.40001 15.1832 1.40001ZM6.39999 6.80001C6.72629 6.80001 6.97505 7.0453 6.99296 7.36603C6.99163 7.38906 6.99163 7.41214 6.99296 7.43517C6.97449 7.75531 6.72589 8.00001 6.39999 8.00001C6.06152 8.00001 5.79999 7.73849 5.79999 7.40001C5.79999 7.06153 6.06152 6.80001 6.39999 6.80001ZM20.2 6.80001C20.5385 6.80001 20.8 7.06153 20.8 7.40001C20.8 7.73849 20.5385 8.00001 20.2 8.00001C19.8737 8.00001 19.6249 7.75472 19.607 7.434C19.6084 7.41097 19.6084 7.38788 19.607 7.36486C19.6255 7.04472 19.8741 6.80001 20.2 6.80001ZM17.2 12.2C17.5385 12.2 17.8 12.4615 17.8 12.8C17.8 13.1263 17.5547 13.3751 17.234 13.393C17.2195 13.3921 17.2051 13.3917 17.1906 13.3918C17.182 13.392 17.1734 13.3924 17.1648 13.393C16.8447 13.3745 16.6 13.1259 16.6 12.8C16.6 12.4615 16.8615 12.2 17.2 12.2ZM6.39999 12.8C6.73847 12.8 6.99999 13.0615 6.99999 13.4C6.99999 13.7385 6.73847 14 6.39999 14C6.0737 14 5.82494 13.7547 5.80703 13.434C5.80835 13.411 5.80835 13.3879 5.80703 13.3649C5.8255 13.0447 6.0741 12.8 6.39999 12.8ZM17.8 20.6C18.1385 20.6 18.4 20.8615 18.4 21.2C18.4 21.5385 18.1385 21.8 17.8 21.8C17.4737 21.8 17.2249 21.5547 17.207 21.234C17.2084 21.211 17.2084 21.1879 17.207 21.1649C17.2255 20.8447 17.4741 20.6 17.8 20.6ZM8.76601 20.607C8.78904 20.6084 8.81212 20.6084 8.83515 20.607C9.15529 20.6255 9.39999 20.8741 9.39999 21.2C9.39999 21.5385 9.13847 21.8 8.79999 21.8C8.46152 21.8 8.19999 21.5385 8.19999 21.2C8.19999 20.8737 8.44528 20.625 8.76601 20.607Z"/>
</svg>