<svg viewBox="0 0 60 60" xmlns="http://www.w3.org/2000/svg">
<path d="M30 60C13.4577 60 0 46.5423 0 30C0 13.4577 13.4577 0 30 0C35.6038 0 41.0698 1.55521 45.8079 4.4982C46.636 5.01205 46.8898 6.10019 46.3759 6.92839C45.8612 7.75646 44.773 8.01207 43.9457 7.49639C39.7674 4.90074 34.9449 3.52951 30 3.52951C15.404 3.52951 3.52938 15.4045 3.52938 30.0001C3.52938 44.5958 15.404 56.4706 30 56.4706C44.5956 56.4706 56.4706 44.5956 56.4706 30C56.4706 27.0662 55.9945 24.1856 55.0552 21.4385C54.74 20.5166 55.2326 19.5129 56.1545 19.1976C57.0783 18.8842 58.0801 19.3751 58.3954 20.297C59.4597 23.4128 60.0001 26.6775 60.0001 30.0001C60 46.5423 46.5423 60 30 60Z"/>
<path d="M30.0001 40.1783C29.5524 40.1783 29.1196 40.0082 28.7919 39.6994L14.6743 26.4375C13.9638 25.7703 13.9289 24.6535 14.5962 23.943C15.2636 23.2335 16.3802 23.1967 17.0907 23.8659L29.8504 35.8521L53.0359 8.32813C53.6628 7.58273 54.7767 7.48718 55.5221 8.11576C56.2675 8.74355 56.363 9.85653 55.7345 10.6019L31.3493 39.5506C31.0377 39.9209 30.5864 40.1471 30.103 40.1756C30.0691 40.1773 30.0341 40.1783 30.0001 40.1783Z"/>
<defs>
<linearGradient id="paint0_linear" x1="0.514856" y1="59.4853" x2="59.3073" y2="0.692622" gradientUnits="userSpaceOnUse">
<stop stop-color="#01D092"/>
<stop offset="1" stop-color="#00E7AF"/>
</linearGradient>
<linearGradient id="paint1_linear" x1="0.514856" y1="59.4853" x2="59.3073" y2="0.692622" gradientUnits="userSpaceOnUse">
<stop stop-color="#01D092"/>
<stop offset="1" stop-color="#00E7AF"/>
</linearGradient>
</defs>
</svg>
