<svg viewBox="0 0 14 14" xmlns="http://www.w3.org/2000/svg">
  <path fill-rule="evenodd" clip-rule="evenodd" d="M0 7C0 3.13425 3.13337 0 7 0C10.8658 0 14 3.13425 14 7C14 10.8658 10.8658 14 7 14C3.13337 14 0 10.8658 0 7ZM5.27214 9.63391C5.61339 9.97604 6.16727 9.97604 6.50939 9.63391L10.0715 6.07179C10.4136 5.72966 10.4136 5.17579 10.0715 4.83454C9.72939 4.49241 9.17552 4.49241 8.83427 4.83454L5.89077 7.77804L5.16539 7.05266C4.82414 6.71141 4.27027 6.71141 3.92814 7.05266C3.58689 7.39479 3.58689 7.94866 3.92814 8.29079L5.27214 9.63391Z"/>
</svg>
