<svg viewBox="0 0 21 21" xmlns="http://www.w3.org/2000/svg">
<path d="M6.34382 2.625C6.16977 2.62502 6.00286 2.69416 5.8798 2.81723C5.75673 2.9403 5.68758 3.10721 5.68757 3.28125V10.9375H3.28132C3.10727 10.9375 2.94036 11.0067 2.8173 11.1297C2.69423 11.2528 2.62508 11.4197 2.62507 11.5937V18.5937C2.62384 18.6807 2.6399 18.767 2.67233 18.8477C2.70476 18.9284 2.7529 19.0019 2.81396 19.0638C2.87502 19.1257 2.94778 19.1749 3.02801 19.2085C3.10824 19.2421 3.19435 19.2593 3.28132 19.2593C3.36829 19.2593 3.45439 19.2421 3.53462 19.2085C3.61485 19.1749 3.68761 19.1257 3.74867 19.0638C3.80973 19.0019 3.85787 18.9284 3.8903 18.8477C3.92273 18.767 3.9388 18.6807 3.93757 18.5937V12.25H6.23615C6.3066 12.2616 6.37847 12.2616 6.44892 12.25H8.31257V18.5937C8.31134 18.6807 8.3274 18.767 8.35983 18.8477C8.39226 18.9284 8.4404 19.0019 8.50146 19.0638C8.56252 19.1257 8.63528 19.1749 8.71551 19.2085C8.79575 19.2421 8.88185 19.2593 8.96882 19.2593C9.05579 19.2593 9.14189 19.2421 9.22212 19.2085C9.30235 19.1749 9.37511 19.1257 9.43617 19.0638C9.49723 19.0019 9.54538 18.9284 9.5778 18.8477C9.61023 18.767 9.6263 18.6807 9.62507 18.5937V11.7014C9.63664 11.631 9.63664 11.5591 9.62507 11.4886V9.625H14.5487C14.6191 9.63657 14.691 9.63657 14.7614 9.625H17.0626V18.5937C17.0613 18.6807 17.0774 18.767 17.1098 18.8477C17.1423 18.9284 17.1904 19.0019 17.2515 19.0638C17.3125 19.1257 17.3853 19.1749 17.4655 19.2085C17.5457 19.2421 17.6319 19.2593 17.7188 19.2593C17.8058 19.2593 17.8919 19.2421 17.9721 19.2085C18.0524 19.1749 18.1251 19.1257 18.1862 19.0638C18.2472 19.0019 18.2954 18.9284 18.3278 18.8477C18.3602 18.767 18.3763 18.6807 18.3751 18.5937V8.96875C18.3751 8.7947 18.3059 8.6278 18.1828 8.50473C18.0598 8.38166 17.8929 8.31252 17.7188 8.3125H15.3126V3.28125C15.3126 3.10721 15.2434 2.9403 15.1203 2.81723C14.9973 2.69416 14.8304 2.62502 14.6563 2.625H6.34382ZM7.00007 3.9375H14.0001V8.3125H8.96882C8.79478 8.31252 8.62787 8.38166 8.5048 8.50473C8.38173 8.6278 8.31259 8.7947 8.31257 8.96875V10.9375H7.00007V3.9375ZM8.75007 5.25C8.50857 5.25 8.31257 5.446 8.31257 5.6875V6.5625C8.31257 6.804 8.50857 7 8.75007 7H9.62507C9.86657 7 10.0626 6.804 10.0626 6.5625V5.6875C10.0626 5.446 9.86657 5.25 9.62507 5.25H8.75007ZM11.3751 5.25C11.1336 5.25 10.9376 5.446 10.9376 5.6875V6.5625C10.9376 6.804 11.1336 7 11.3751 7H12.2501C12.4916 7 12.6876 6.804 12.6876 6.5625V5.6875C12.6876 5.446 12.4916 5.25 12.2501 5.25H11.3751ZM11.3751 10.9375C11.1336 10.9375 10.9376 11.1335 10.9376 11.375V12.25C10.9376 12.4915 11.1336 12.6875 11.3751 12.6875H12.2501C12.4916 12.6875 12.6876 12.4915 12.6876 12.25V11.375C12.6876 11.1335 12.4916 10.9375 12.2501 10.9375H11.3751ZM14.4376 10.9375C14.1961 10.9375 14.0001 11.1335 14.0001 11.375V12.25C14.0001 12.4915 14.1961 12.6875 14.4376 12.6875H15.3126C15.5541 12.6875 15.7501 12.4915 15.7501 12.25V11.375C15.7501 11.1335 15.5541 10.9375 15.3126 10.9375H14.4376ZM5.68757 13.5625C5.44607 13.5625 5.25007 13.7585 5.25007 14V14.875C5.25007 15.1165 5.44607 15.3125 5.68757 15.3125H6.56257C6.80407 15.3125 7.00007 15.1165 7.00007 14.875V14C7.00007 13.7585 6.80407 13.5625 6.56257 13.5625H5.68757ZM11.3751 13.5625C11.1336 13.5625 10.9376 13.7585 10.9376 14V14.875C10.9376 15.1165 11.1336 15.3125 11.3751 15.3125H12.2501C12.4916 15.3125 12.6876 15.1165 12.6876 14.875V14C12.6876 13.7585 12.4916 13.5625 12.2501 13.5625H11.3751ZM14.4376 13.5625C14.1961 13.5625 14.0001 13.7585 14.0001 14V14.875C14.0001 15.1165 14.1961 15.3125 14.4376 15.3125H15.3126C15.5541 15.3125 15.7501 15.1165 15.7501 14.875V14C15.7501 13.7585 15.5541 13.5625 15.3126 13.5625H14.4376ZM5.68757 16.1875C5.44607 16.1875 5.25007 16.3835 5.25007 16.625V17.5C5.25007 17.7415 5.44607 17.9375 5.68757 17.9375H6.56257C6.80407 17.9375 7.00007 17.7415 7.00007 17.5V16.625C7.00007 16.3835 6.80407 16.1875 6.56257 16.1875H5.68757ZM11.3751 16.1875C11.1336 16.1875 10.9376 16.3835 10.9376 16.625V17.5C10.9376 17.7415 11.1336 17.9375 11.3751 17.9375H12.2501C12.4916 17.9375 12.6876 17.7415 12.6876 17.5V16.625C12.6876 16.3835 12.4916 16.1875 12.2501 16.1875H11.3751ZM14.4376 16.1875C14.1961 16.1875 14.0001 16.3835 14.0001 16.625V17.5C14.0001 17.7415 14.1961 17.9375 14.4376 17.9375H15.3126C15.5541 17.9375 15.7501 17.7415 15.7501 17.5V16.625C15.7501 16.3835 15.5541 16.1875 15.3126 16.1875H14.4376Z" />
</svg>