<svg viewBox="0 0 28 29" xmlns="http://www.w3.org/2000/svg">
<path d="M3.74375 0.581247C3.71797 0.585935 3.69218 0.592966 3.66875 0.599997C3.38984 0.663279 3.19297 0.91406 3.2 1.2V7.2H9.2C9.41562 7.20234 9.61718 7.08984 9.72734 6.90234C9.83515 6.71484 9.83515 6.48515 9.72734 6.29765C9.61718 6.11015 9.41562 5.99765 9.2 6H5.20625C7.46328 3.78281 10.5617 2.4 14 2.4C20.9984 2.4 26.6 8.00156 26.6 15C26.6 21.9984 20.9984 27.6 14 27.6C7.00156 27.6 1.4 21.9984 1.4 15C1.4 12.9398 1.90859 10.9242 2.76875 9.20625L1.7 8.6625C0.760153 10.5445 0.199997 12.7406 0.199997 15C0.199997 22.6406 6.35937 28.8 14 28.8C21.6406 28.8 27.8 22.6406 27.8 15C27.8 7.35937 21.6406 1.2 14 1.2C10.2664 1.2 6.87031 2.69765 4.4 5.1V1.2C4.40703 1.02656 4.33672 0.860154 4.2125 0.742966C4.08593 0.623435 3.91484 0.564841 3.74375 0.581247ZM13.4 5.4V13.9687C13.0414 14.1773 12.8 14.557 12.8 15C12.8 15.1031 12.8117 15.2039 12.8375 15.3L8.76875 19.3687L9.63125 20.2312L13.7 16.1625C13.7961 16.1883 13.8969 16.2 14 16.2C14.6633 16.2 15.2 15.6633 15.2 15C15.2 14.557 14.9586 14.1773 14.6 13.9687V5.4H13.4Z"/>
</svg>
