<svg viewBox="0 0 50 50" xmlns="http://www.w3.org/2000/svg">
<path d="M18 7C8.0625 7 0 15.0625 0 25C0 34.9375 8.0625 43 18 43C19.2227 43 20.4102 42.8555 21.5625 42.625C22.6133 42.8125 23.7812 43 25 43C26.2227 43 27.4102 42.8555 28.5625 42.625C29.6133 42.8125 30.7812 43 32 43C41.9375 43 50 34.9375 50 25C50 15.0625 41.9375 7 32 7C30.8477 7 29.6914 7.10156 28.5625 7.375C27.4102 7.14453 26.2227 7 25 7C23.8477 7 22.6914 7.10156 21.5625 7.375C20.4102 7.14453 19.2227 7 18 7ZM18 9C19.043 9 20.0469 9.09375 21.0312 9.28125C21.2031 9.37891 21.3984 9.42188 21.5938 9.40625C28.707 11.0352 34 17.3789 34 25C34 32.6406 28.6758 38.9883 21.5312 40.5938C21.3672 40.5977 21.207 40.6406 21.0625 40.7188C20.0664 40.9102 19.0547 41 18 41C9.14062 41 2 33.8594 2 25C2 16.1406 9.14062 9 18 9ZM26.375 9.09375C26.9336 9.14062 27.4883 9.17578 28.0312 9.28125C28.2031 9.37891 28.3984 9.42188 28.5938 9.40625C35.707 11.0352 41 17.3789 41 25C41 32.6406 35.6758 38.9883 28.5312 40.5938C28.3672 40.5977 28.207 40.6406 28.0625 40.7188C27.5117 40.8242 26.9453 40.8594 26.375 40.9062C32.0977 37.8906 36 31.918 36 25C36 18.082 32.0977 12.1094 26.375 9.09375ZM33.375 9.09375C41.582 9.79688 48 16.6094 48 25C48 33.3906 41.582 40.2031 33.375 40.9062C39.0977 37.8906 43 31.918 43 25C43 18.082 39.0977 12.1094 33.375 9.09375ZM17 14V16.1875C15.3984 16.3867 12.5 17.7891 12.5 21.1875C12.5 27.5859 21.8125 24.293 21.8125 29.0938C21.8125 30.6953 21.1016 32.1875 18 32.1875C14.8984 32.1875 14 29.8008 14 28.5H12C12.3008 32.8008 15.3008 33.793 17 34.0938V36H19V34.0938C20.5 33.9922 24 32.9062 24 28.9062C24 25.6055 21.2891 24.6953 18.6875 24.0938C16.5859 23.5938 14.6875 23.1016 14.6875 21C14.6875 20.1016 15.0938 18.0938 18.0938 18.0938C20.1953 18.0938 21.1992 19.3984 21.5 21H23.5C22.8984 18.8008 21.8984 16.8125 19 16.3125V14H17Z"/>
</svg>
