<svg viewBox="0 0 42 40" xmlns="http://www.w3.org/2000/svg">
<path d="M21.0001 0C9.97012 0 1.00012 8.97 1.00012 20C1.00012 23.89 2.10918 27.5296 4.03918 30.5996L6.24035 28.4004C4.81035 25.9204 4.00012 23.05 4.00012 20C4.00012 10.63 11.6301 3 21.0001 3C24.0501 3 26.9205 3.81023 29.4005 5.24023L31.5997 3.03906C28.5297 1.10906 24.8901 0 21.0001 0ZM39.5001 0C39.1201 0 38.7296 0.149453 38.4396 0.439453L34.0392 4.83984L31.9005 6.98047L7.98059 30.9004L5.83996 33.0391L1.43957 37.4395C0.84957 38.0295 0.84957 38.9705 1.43957 39.5605C1.72957 39.8505 2.12012 40 2.50012 40C2.88012 40 3.27066 39.8505 3.56066 39.5605L7.96106 35.1602C8.72105 35.8202 9.54051 36.4209 10.4005 36.9609C13.4705 38.8909 17.1101 40 21.0001 40C32.0301 40 41.0001 31.03 41.0001 20C41.0001 16.11 39.8911 12.4704 37.9611 9.40039C37.4211 8.54039 36.8203 7.72094 36.1603 6.96094L40.5607 2.56055C41.1507 1.97055 41.1507 1.02945 40.5607 0.439453C40.2707 0.149453 39.8801 0 39.5001 0ZM34.0196 9.09961C34.6796 9.87961 35.2599 10.7096 35.7599 11.5996C37.1899 14.0796 38.0001 16.95 38.0001 20C38.0001 29.37 30.3701 37 21.0001 37C17.9501 37 15.0797 36.1898 12.5997 34.7598C11.7097 34.2598 10.8797 33.6795 10.0997 33.0195L34.0196 9.09961Z"/>
</svg>
