<svg viewBox="0 0 50 50" xmlns="http://www.w3.org/2000/svg">
<path d="M7 2V48H31.0742C30.5232 47.386 30.0332 46.718 29.6172 46H9V4H29V16H41V28.0508C41.686 28.1078 42.352 28.2256 43 28.3926V14.5859L30.4141 2H7ZM31 5.41406L39.5859 14H31V5.41406ZM36 23C34.895 23 34 23.895 34 25C34 25.256 34.0526 25.4987 34.1406 25.7227L28.2949 33.0293C28.1979 33.0153 28.101 33 28 33C27.862 33 27.7277 33.014 27.5977 33.041L21.8906 26.623C21.9556 26.425 22 26.219 22 26C22 24.895 21.105 24 20 24C18.895 24 18 24.895 18 26C18 26.178 18.0312 26.3467 18.0742 26.5117L14.5117 30.0742C14.3477 30.0302 14.178 30 14 30C12.895 30 12 30.895 12 32C12 33.105 12.895 34 14 34C15.105 34 16 33.105 16 32C16 31.822 15.9688 31.6533 15.9258 31.4883L19.4883 27.9258C19.6523 27.9698 19.822 28 20 28C20.138 28 20.2723 27.986 20.4023 27.959L26.1074 34.3789C26.0434 34.5759 26 34.781 26 35C26 36.105 26.895 37 28 37C28.138 37 28.2733 36.986 28.4043 36.959C29.1383 34.154 30.851 31.7496 33.168 30.1406L35.7051 26.9707C35.8021 26.9857 35.899 27 36 27C37.105 27 38 26.105 38 25C38 23.895 37.105 23 36 23ZM40 30C34.5 30 30 34.5 30 40C30 45.5 34.5 50 40 50C45.5 50 50 45.5 50 40C50 34.5 45.5 30 40 30ZM40 32C44.4 32 48 35.6 48 40C48 44.4 44.4 48 40 48C35.6 48 32 44.4 32 40C32 35.6 35.6 32 40 32ZM36.5 35.5C36.25 35.5 36.0008 35.6008 35.8008 35.8008C35.4008 36.2008 35.4008 36.7992 35.8008 37.1992L38.5996 40L35.8008 42.8008C35.4008 43.2008 35.4008 43.7992 35.8008 44.1992C36.0008 44.3992 36.3 44.5 36.5 44.5C36.7 44.5 36.9992 44.3992 37.1992 44.1992L40 41.4004L42.8008 44.1992C43.0008 44.3992 43.3 44.5 43.5 44.5C43.7 44.5 43.9992 44.3992 44.1992 44.1992C44.5992 43.7992 44.5992 43.2008 44.1992 42.8008L41.4004 40L44.1992 37.1992C44.5992 36.7992 44.5992 36.2008 44.1992 35.8008C43.7992 35.4008 43.2008 35.4008 42.8008 35.8008L40 38.5996L37.1992 35.8008C36.9992 35.6008 36.75 35.5 36.5 35.5Z" />
</svg>
