<svg viewBox="0 0 30 30" xmlns="http://www.w3.org/2000/svg">
<path d="M7.1875 0C3.22906 0 0 3.22906 0 7.1875C0 11.1459 3.22906 14.375 7.1875 14.375C11.1459 14.375 14.375 11.1459 14.375 7.1875C14.375 3.22906 11.1459 0 7.1875 0ZM7.1875 1.875C10.1326 1.875 12.5 4.24238 12.5 7.1875C12.5 10.1326 10.1326 12.5 7.1875 12.5C4.24238 12.5 1.875 10.1326 1.875 7.1875C1.875 4.24238 4.24238 1.875 7.1875 1.875ZM7.17285 3.11157C6.92442 3.11545 6.68769 3.21778 6.51466 3.39608C6.34163 3.57438 6.24644 3.81407 6.25 4.0625V7.1875C6.25005 7.43612 6.34884 7.67455 6.52466 7.85034L7.77466 9.10034C7.86104 9.19031 7.96452 9.26215 8.07901 9.31163C8.19351 9.36111 8.31672 9.38726 8.44145 9.38852C8.56617 9.38979 8.68989 9.36616 8.80537 9.31901C8.92085 9.27187 9.02576 9.20216 9.11396 9.11396C9.20216 9.02576 9.27187 8.92085 9.31901 8.80537C9.36616 8.68989 9.38979 8.56617 9.38852 8.44145C9.38726 8.31672 9.36111 8.19351 9.31163 8.07901C9.26215 7.96452 9.19031 7.86104 9.10034 7.77466L8.125 6.79932V4.0625C8.1268 3.93702 8.10339 3.81246 8.05616 3.69619C8.00894 3.57993 7.93885 3.47433 7.85006 3.38565C7.76126 3.29697 7.65557 3.22702 7.53925 3.17994C7.42292 3.13286 7.29833 3.10961 7.17285 3.11157ZM14.8877 3.75C15.1527 4.3425 15.3524 4.97 15.4749 5.625H22.1875C23.3937 5.625 24.375 6.60625 24.375 7.8125V10.625V22.1875C24.375 23.3937 23.3937 24.375 22.1875 24.375H7.8125C6.60625 24.375 5.625 23.3937 5.625 22.1875V15.4749C4.97 15.3517 4.3425 15.1521 3.75 14.8877V22.1875C3.75 24.4275 5.5725 26.25 7.8125 26.25H22.1875C24.4275 26.25 26.25 24.4275 26.25 22.1875V7.8125C26.25 5.5725 24.4275 3.75 22.1875 3.75H14.8877Z" />
<rect x="9" y="19" width="12" height="2" rx="1" />
<rect x="13" y="14" width="8" height="2" rx="1" />
<rect x="16" y="9" width="5" height="2" rx="1" />
</svg>
