<svg viewBox="0 0 50 50" xmlns="http://www.w3.org/2000/svg">
<path d="M8 20C4.69922 20 2 22.6992 2 26C2 29.3008 4.69922 32 8 32C11.3008 32 14 29.3008 14 26C14 22.6992 11.3008 20 8 20ZM25 20C21.6992 20 19 22.6992 19 26C19 29.3008 21.6992 32 25 32C28.3008 32 31 29.3008 31 26C31 22.6992 28.3008 20 25 20ZM42 20C38.6992 20 36 22.6992 36 26C36 29.3008 38.6992 32 42 32C45.3008 32 48 29.3008 48 26C48 22.6992 45.3008 20 42 20ZM8 22C10.2227 22 12 23.7773 12 26C12 28.2227 10.2227 30 8 30C5.77734 30 4 28.2227 4 26C4 23.7773 5.77734 22 8 22ZM25 22C27.2227 22 29 23.7773 29 26C29 28.2227 27.2227 30 25 30C22.7773 30 21 28.2227 21 26C21 23.7773 22.7773 22 25 22ZM42 22C44.2227 22 46 23.7773 46 26C46 28.2227 44.2227 30 42 30C39.7773 30 38 28.2227 38 26C38 23.7773 39.7773 22 42 22Z" />
</svg>
