<svg viewBox="0 0 22 22" xmlns="http://www.w3.org/2000/svg">
<path d="M16.9582 0.708313C15.9425 0.708313 15.0779 1.11843 14.5228 1.74298C13.9676 2.36753 13.7082 3.16838 13.7082 3.95831C13.7082 4.74824 13.9676 5.54909 14.5228 6.17364C15.0779 6.7982 15.9425 7.20831 16.9582 7.20831C17.9738 7.20831 18.8384 6.7982 19.3935 6.17364C19.9487 5.54909 20.2082 4.74824 20.2082 3.95831C20.2082 3.16838 19.9487 2.36753 19.3935 1.74298C18.8384 1.11843 17.9738 0.708313 16.9582 0.708313ZM9.64567 1.24998C8.72032 1.24998 7.92343 1.62624 7.41341 2.20001C6.90339 2.77378 6.6665 3.50692 6.6665 4.22914C6.6665 4.95137 6.90339 5.6845 7.41341 6.25828C7.92343 6.83205 8.72032 7.20831 9.64567 7.20831C10.571 7.20831 11.3679 6.83205 11.8779 6.25828C12.3879 5.6845 12.6248 4.95137 12.6248 4.22914C12.6248 3.50692 12.3879 2.77378 11.8779 2.20001C11.3679 1.62624 10.571 1.24998 9.64567 1.24998ZM3.68734 2.33331C2.94254 2.33331 2.28107 2.64186 1.86133 3.11407C1.44159 3.58628 1.24984 4.18401 1.24984 4.77081C1.24984 5.35762 1.44159 5.95534 1.86133 6.42755C2.28107 6.89976 2.94254 7.20831 3.68734 7.20831C4.43213 7.20831 5.0936 6.89976 5.51334 6.42755C5.93309 5.95534 6.12484 5.35762 6.12484 4.77081C6.12484 4.18401 5.93309 3.58628 5.51334 3.11407C5.0936 2.64186 4.43213 2.33331 3.68734 2.33331ZM16.9582 2.33331C17.5675 2.33331 17.9217 2.53257 18.179 2.82208C18.4364 3.11159 18.5832 3.52949 18.5832 3.95831C18.5832 4.38713 18.4364 4.80503 18.179 5.09454C17.9217 5.38405 17.5675 5.58331 16.9582 5.58331C16.3488 5.58331 15.9946 5.38405 15.7373 5.09454C15.48 4.80503 15.3332 4.38713 15.3332 3.95831C15.3332 3.52949 15.48 3.11159 15.7373 2.82208C15.9946 2.53257 16.3488 2.33331 16.9582 2.33331ZM9.64567 2.87498C10.1648 2.87498 10.4512 3.04039 10.6634 3.27911C10.8756 3.51784 10.9998 3.86803 10.9998 4.22914C10.9998 4.59026 10.8756 4.94045 10.6634 5.17918C10.4512 5.4179 10.1648 5.58331 9.64567 5.58331C9.12657 5.58331 8.84013 5.4179 8.62793 5.17918C8.41572 4.94045 8.2915 4.59026 8.2915 4.22914C8.2915 3.86803 8.41572 3.51784 8.62793 3.27911C8.84013 3.04039 9.12657 2.87498 9.64567 2.87498ZM3.68734 3.95831C4.02588 3.95831 4.1769 4.05601 4.29883 4.19317C4.42075 4.33034 4.49984 4.54512 4.49984 4.77081C4.49984 4.99651 4.42075 5.21128 4.29883 5.34845C4.1769 5.48561 4.02588 5.58331 3.68734 5.58331C3.34879 5.58331 3.19777 5.48561 3.07585 5.34845C2.95392 5.21128 2.87484 4.99651 2.87484 4.77081C2.87484 4.54512 2.95392 4.33034 3.07585 4.19317C3.19777 4.05601 3.34879 3.95831 3.68734 3.95831ZM3.68734 8.83331C1.75254 8.83331 0.166504 10.4193 0.166504 12.3541V17.2291C0.166525 17.4446 0.252135 17.6513 0.404503 17.8036C0.556872 17.956 0.763522 18.0416 0.979004 18.0416H5.0415V18.8541C5.04152 19.0696 5.12713 19.2763 5.2795 19.4286C5.43187 19.581 5.63852 19.6666 5.854 19.6666H12.0832V20.4791C12.0832 20.6946 12.1688 20.9013 12.3212 21.0536C12.4735 21.206 12.6802 21.2916 12.8957 21.2916H21.0207C21.2361 21.2916 21.4428 21.206 21.5952 21.0536C21.7475 20.9013 21.8331 20.6946 21.8332 20.4791V13.7083C21.8332 11.0256 19.6409 8.83331 16.9582 8.83331C15.4684 8.83331 14.1311 9.51087 13.2353 10.5715C12.391 9.51486 11.0973 8.83331 9.64567 8.83331C8.39032 8.83331 7.24937 9.34281 6.41683 10.1642C5.773 9.35898 4.79374 8.83331 3.68734 8.83331ZM3.68734 10.4583C4.47598 10.4583 5.13363 10.9366 5.42025 11.6168C5.17741 12.1761 5.0415 12.7913 5.0415 13.4375V16.4166H1.7915V12.3541C1.7915 11.2979 2.63105 10.4583 3.68734 10.4583ZM9.64567 10.4583C10.8452 10.4583 11.8597 11.1667 12.3339 12.1796C12.1736 12.6613 12.0832 13.1743 12.0832 13.7083V18.0416H6.6665V13.4375C6.6665 11.7825 7.99069 10.4583 9.64567 10.4583ZM16.9582 10.4583C18.7626 10.4583 20.2082 11.9039 20.2082 13.7083V19.6666H13.7082V13.7083C13.7082 11.9039 15.1537 10.4583 16.9582 10.4583Z"/>
</svg>