<svg viewBox="0 0 24 24" xmlns="http://www.w3.org/2000/svg">
<path d="M12 15C10.346 15 9 13.654 9 12C9 10.346 10.346 9 12 9C13.654 9 15 10.346 15 12C15 13.654 13.654 15 12 15Z" stroke-width="4" stroke-miterlimit="10"/>
<path d="M18.899 10.868C18.967 11.285 19 11.655 19 12C19 12.345 18.967 12.715 18.899 13.132L18.81 13.681L20.548 15.193L19.038 17.807L16.866 17.059L16.434 17.413C15.857 17.887 15.196 18.267 14.469 18.541L13.948 18.738L13.509 21H10.491L10.051 18.739L9.53 18.542C8.803 18.268 8.142 17.888 7.565 17.414L7.133 17.06L4.961 17.808L3.451 15.194L5.189 13.682L5.1 13.133C5.033 12.715 5 12.345 5 12C5 11.655 5.033 11.285 5.101 10.868L5.19 10.319L3.451 8.807L4.961 6.193L7.133 6.941L7.565 6.587C8.142 6.113 8.803 5.733 9.53 5.459L10.051 5.262L10.491 3H13.509L13.949 5.261L14.47 5.458C15.197 5.732 15.858 6.112 16.435 6.586L16.867 6.94L19.039 6.192L20.549 8.806L18.811 10.318L18.899 10.868Z" stroke-width="4" stroke-miterlimit="10"/>
</svg>
