<svg viewBox="0 0 32 32" fill="none" xmlns="http://www.w3.org/2000/svg">
<path d="M30.0002 10.7998L26.6668 12.6331L23.3335 15.7998V26.6665H28.0002C29.1048 26.6665 30.0002 25.7711 30.0002 24.6665V10.7998Z" fill="#4CAF50"/>
<path d="M2 10.7998L4.40933 11.9398L8.66667 15.7998V26.6665H4C2.89533 26.6665 2 25.7711 2 24.6665V10.7998Z" fill="#1E88E5"/>
<path d="M23.3333 7.4668L16 12.9668L8.66667 7.4668L8 11.3335L8.66667 15.8001L16 21.3001L23.3333 15.8001L24 11.3335L23.3333 7.4668Z" fill="#E53935"/>
<path d="M2 8.19883V10.8002L8.66667 15.8002V7.46683L6.584 5.90616C6.088 5.53416 5.48533 5.3335 4.86533 5.3335C3.28267 5.3335 2 6.61616 2 8.19883Z" fill="#C62828"/>
<path d="M30.0002 8.19883V10.8002L23.3335 15.8002V7.46683L25.4162 5.90616C25.9122 5.53416 26.5148 5.3335 27.1348 5.3335C28.7175 5.3335 30.0002 6.61616 30.0002 8.19883Z" fill="#FBC02D"/>
</svg>
