<svg viewBox="0 0 24 24" xmlns="http://www.w3.org/2000/svg">
<path d="M7.50012 4.5C9.15247 4.5 10.5704 5.39062 11.3556 6.71484L12.0001 7.80469L12.6447 6.71484C13.4298 5.39062 14.8478 4.5 16.5001 4.5C18.8029 4.5 20.6661 6.2168 20.9415 8.44922L20.9532 8.50781C20.9825 8.64844 21.0001 8.80664 21.0001 9C21.0001 11.625 18.7443 14.5312 16.3654 16.7168C14.1857 18.7266 12.3458 19.8457 12.0001 20.0625C11.6544 19.8457 9.81458 18.7266 7.62903 16.7168C5.25598 14.5312 3.00012 11.625 3.00012 9C3.00012 8.80078 3.0177 8.64258 3.047 8.50781L3.05872 8.47266V8.4375C3.33997 6.2168 5.19739 4.5 7.50012 4.5Z" />
</svg>
