<svg viewBox="0 0 30 30" xmlns="http://www.w3.org/2000/svg">
<path d="M6.66868 3.75C5.11606 3.75 3.74732 4.80083 3.34715 6.30127L1.97141 11.4624C1.5866 12.9054 2.43087 14.3549 3.74998 14.834V23.4375C3.74998 24.9797 5.02029 26.25 6.56248 26.25H12.8125C13.0611 26.25 13.2996 26.1512 13.4754 25.9754C13.6512 25.7996 13.75 25.5611 13.75 25.3125V19.9561C13.75 19.2534 14.2973 18.7061 15 18.7061C15.7027 18.7061 16.25 19.2534 16.25 19.9561V25.3125C16.25 25.5611 16.3488 25.7996 16.5246 25.9754C16.7004 26.1512 16.9388 26.25 17.1875 26.25H23.4375C24.9797 26.25 26.25 24.9797 26.25 23.4375V14.8328C27.5687 14.3535 28.4133 12.9053 28.0285 11.4624L26.6528 6.30127C26.2526 4.80083 24.8839 3.75 23.3313 3.75H6.66868ZM6.66868 5.625H23.3313C24.0437 5.625 24.6577 6.09636 24.8413 6.78467L26.217 11.9458C26.3819 12.564 25.9499 13.125 25.3113 13.125H20.3418C19.8388 13.125 19.3691 12.8843 19.0747 12.4768L16.4929 8.90259C15.7735 7.90811 14.2259 7.90723 13.5071 8.90259L10.9265 12.4768C10.6324 12.884 10.1616 13.125 9.6594 13.125H4.6887C4.04916 13.125 3.61808 12.564 3.78294 11.9458L5.15867 6.78467C5.34225 6.09636 5.9563 5.625 6.66868 5.625ZM15 10.0391L17.5549 13.5754C18.2006 14.4692 19.2386 15 20.3418 15H24.375V23.4375C24.375 23.9666 23.9665 24.375 23.4375 24.375H18.125V19.9561C18.125 18.2412 16.7148 16.8311 15 16.8311C13.2852 16.8311 11.875 18.2412 11.875 19.9561V24.375H6.56248C6.03342 24.375 5.62498 23.9666 5.62498 23.4375V15H9.6594C10.7622 15 11.8004 14.4695 12.4463 13.5754L15 10.0391ZM8.74998 17.5C8.05935 17.5 7.49998 18.0594 7.49998 18.75V20C7.49998 20.6906 8.05935 21.25 8.74998 21.25C9.44061 21.25 9.99998 20.6906 9.99998 20V18.75C9.99998 18.0594 9.44061 17.5 8.74998 17.5ZM21.25 17.5C20.5594 17.5 20 18.0594 20 18.75V20C20 20.6906 20.5594 21.25 21.25 21.25C21.9406 21.25 22.5 20.6906 22.5 20V18.75C22.5 18.0594 21.9406 17.5 21.25 17.5Z" />
</svg>
