<svg viewBox="0 0 30 29" xmlns="http://www.w3.org/2000/svg">
<path d="M14.9789 0.600002C14.8519 0.604529 14.7296 0.649255 14.6297 0.727736L2.65313 10.1016L0.829693 11.5277C0.767652 11.5764 0.715796 11.6367 0.677089 11.7054C0.638382 11.7741 0.61358 11.8497 0.604102 11.9279C0.594623 12.0062 0.600652 12.0855 0.621846 12.1615C0.643039 12.2374 0.678982 12.3084 0.72762 12.3704C0.776258 12.4324 0.836639 12.4843 0.905314 12.523C0.97399 12.5617 1.04961 12.5864 1.12787 12.5959C1.20612 12.6054 1.28548 12.5993 1.36139 12.5781C1.43731 12.5569 1.5083 12.5209 1.57032 12.4723L2.40001 11.823V27.6C2.40002 27.7591 2.46324 27.9117 2.57576 28.0242C2.68828 28.1368 2.84088 28.2 3.00001 28.2H27C27.1591 28.2 27.3117 28.1368 27.4243 28.0242C27.5368 27.9117 27.6 27.7591 27.6 27.6V11.823L28.4297 12.4723C28.4917 12.5209 28.5627 12.5569 28.6386 12.5781C28.7145 12.5993 28.7939 12.6053 28.8721 12.5959C28.9504 12.5864 29.026 12.5616 29.0947 12.523C29.1634 12.4843 29.2237 12.4324 29.2724 12.3704C29.321 12.3084 29.357 12.2374 29.3781 12.1614C29.3993 12.0855 29.4054 12.0062 29.3959 11.9279C29.3864 11.8497 29.3616 11.7741 29.3229 11.7054C29.2842 11.6367 29.2324 11.5764 29.1703 11.5277L27.3797 10.1273L15.3703 0.727736C15.259 0.64033 15.1204 0.595087 14.9789 0.600002ZM15 1.96172L26.4 10.8832V27H3.60001V10.8832L15 1.96172ZM14.4 9V10.2598C12.3342 10.4776 11.0543 11.7012 11.0543 13.4766C11.0543 18.0006 17.7809 15.8749 17.7809 18.9961C17.7809 20.2021 16.65 21.007 15 21.007C13.35 21.007 12.2599 20.0883 12.1699 18.9891H10.7672C10.7756 20.7897 12.2022 22.0698 14.4 22.248V23.4H15.6V22.2363C17.8752 22.0311 19.2 20.809 19.2 18.8824C19.2 14.4256 12.4652 16.2151 12.4652 13.3945C12.4652 12.3691 13.3752 11.516 15 11.516C16.6248 11.516 17.5592 12.4348 17.5922 13.4602H18.9867C18.9297 11.698 17.6004 10.4465 15.6 10.2539V9H14.4Z"/>
</svg>
