<svg viewBox="0 0 24 24" xmlns="http://www.w3.org/2000/svg">
<path d="M12 2.51367C11.4256 2.51367 10.8515 2.7005 10.3769 3.07422C10.3766 3.07422 10.3763 3.07422 10.3759 3.07422L4.42964 7.75977C3.52769 8.47058 2.99996 9.55675 2.99996 10.7051C2.99855 10.8045 3.01691 10.9031 3.05397 10.9954C3.09103 11.0876 3.14605 11.1715 3.21584 11.2423C3.28562 11.3131 3.36877 11.3693 3.46047 11.4076C3.55216 11.446 3.65056 11.4658 3.74996 11.4658C3.84935 11.4658 3.94775 11.446 4.03944 11.4076C4.13114 11.3693 4.21429 11.3131 4.28408 11.2423C4.35386 11.1715 4.40888 11.0876 4.44594 10.9954C4.483 10.9031 4.50136 10.8045 4.49995 10.7051C4.49995 10.0154 4.81533 9.36566 5.35738 8.93848L11.3046 4.25293C11.7155 3.92937 12.2844 3.92937 12.6953 4.25293L18.6425 8.93848C19.1846 9.36566 19.5 10.0154 19.5 10.7051C19.4985 10.8045 19.5169 10.9031 19.554 10.9954C19.591 11.0876 19.646 11.1715 19.7158 11.2423C19.7856 11.3131 19.8688 11.3693 19.9605 11.4076C20.0522 11.446 20.1506 11.4658 20.25 11.4658C20.3493 11.4658 20.4478 11.446 20.5394 11.4076C20.6311 11.3693 20.7143 11.3131 20.7841 11.2423C20.8539 11.1715 20.9089 11.0876 20.9459 10.9954C20.983 10.9031 21.0014 10.8045 21 10.7051C21 9.55675 20.4722 8.47058 19.5703 7.75977L13.623 3.07422C13.1484 2.7005 12.5743 2.51367 12 2.51367ZM3.73824 12.4893C3.53949 12.4924 3.35011 12.5742 3.21168 12.7169C3.07326 12.8595 2.9971 13.0513 2.99996 13.25V13.75C2.99855 13.8494 3.01691 13.9481 3.05397 14.0403C3.09103 14.1325 3.14605 14.2164 3.21584 14.2872C3.28562 14.358 3.36877 14.4142 3.46047 14.4526C3.55216 14.4909 3.65056 14.5107 3.74996 14.5107C3.84935 14.5107 3.94775 14.4909 4.03944 14.4526C4.13114 14.4142 4.21429 14.358 4.28408 14.2872C4.35386 14.2164 4.40888 14.1325 4.44594 14.0403C4.483 13.9481 4.50136 13.8494 4.49995 13.75V13.25C4.50139 13.1496 4.48267 13.05 4.44489 12.957C4.4071 12.8639 4.35103 12.7795 4.28 12.7085C4.20897 12.6376 4.12441 12.5816 4.03135 12.544C3.93829 12.5063 3.83862 12.4877 3.73824 12.4893ZM20.2382 12.4893C20.0395 12.4924 19.8501 12.5742 19.7117 12.7169C19.5733 12.8595 19.4971 13.0513 19.5 13.25V13.75C19.4985 13.8494 19.5169 13.9481 19.554 14.0403C19.591 14.1325 19.646 14.2164 19.7158 14.2872C19.7856 14.358 19.8688 14.4142 19.9605 14.4526C20.0522 14.4909 20.1506 14.5107 20.25 14.5107C20.3493 14.5107 20.4478 14.4909 20.5394 14.4526C20.6311 14.4142 20.7143 14.358 20.7841 14.2872C20.8539 14.2164 20.9089 14.1325 20.9459 14.0403C20.983 13.9481 21.0014 13.8494 21 13.75V13.25C21.0014 13.1496 20.9827 13.05 20.9449 12.957C20.9071 12.8639 20.851 12.7795 20.78 12.7085C20.709 12.6376 20.6244 12.5816 20.5314 12.5439C20.4383 12.5063 20.3386 12.4877 20.2382 12.4893ZM3.59468 15.8838L3.08199 16.2764L2.99996 16.6182V17.5742L3.2773 18.1562L3.90523 18.3076L4.41792 17.916L4.49995 17.5742V16.6182L4.22261 16.0352L3.59468 15.8838ZM20.0947 15.8848L19.582 16.2764L19.5 16.6182V17.5742L19.7773 18.1572L20.4052 18.3076L20.9179 17.916L21 17.5742V16.6182L20.7226 16.0352L20.0947 15.8848ZM3.97749 19.6357L3.39742 19.9189L3.25191 20.5478L3.40523 20.8633L3.46382 20.9346L3.56538 21.0361L3.71382 21.1582L3.83296 21.2383L4.00288 21.3311L4.13863 21.3877L4.32613 21.4463L4.47359 21.4756L4.67476 21.4961L4.74995 21.5H4.83003L5.41206 21.2227L5.56343 20.5947L5.17085 20.082L4.83003 20H4.78706L4.69722 19.9912L4.65328 19.9775L4.61128 19.9541L4.57417 19.9238L4.56245 19.9092L4.54976 19.9033L4.52046 19.8789L4.5146 19.8867L3.97749 19.6357ZM19.7177 19.6982L19.4375 19.9092L19.4257 19.9238L19.3886 19.9541L19.3466 19.9775L19.3027 19.9912L19.2128 20H19.1699L18.5878 20.2773L18.4365 20.9053L18.8281 21.418L19.1699 21.5H19.25L19.3251 21.4961L19.5263 21.4756L19.6738 21.4463L19.8613 21.3877L19.997 21.3311L20.1669 21.2383L20.2861 21.1582L20.4345 21.0361L20.5361 20.9346L20.5937 20.8633L20.7509 20.2373L20.3632 19.7217L19.7177 19.6982ZM7.69722 20L7.11519 20.2773L6.96382 20.9053L7.3564 21.418L7.69722 21.5H8.65328L9.23628 21.2227L9.38765 20.5947L8.99507 20.082L8.65328 20H7.69722ZM11.5214 20L10.9394 20.2773L10.788 20.9053L11.1806 21.418L11.5214 21.5H12.4775L13.0605 21.2227L13.2119 20.5947L12.8193 20.082L12.4775 20H11.5214ZM15.3457 20L14.7636 20.2773L14.6123 20.9053L15.0048 21.418L15.3457 21.5H16.3017L16.8847 21.2227L17.0361 20.5947L16.6435 20.082L16.3017 20H15.3457Z"/>
</svg>
