<svg viewBox="0 0 16 16" xmlns="http://www.w3.org/2000/svg">
<path d="M8.00016 1.33337C4.32418 1.33337 1.3335 4.32407 1.3335 8.00004C1.3335 11.676 4.32418 14.6667 8.00016 14.6667C11.6761 14.6667 14.6668 11.676 14.6668 8.00004C14.6668 4.32407 11.6761 1.33337 8.00016 1.33337ZM8.00016 2.33337C11.1357 2.33337 13.6668 4.86451 13.6668 8.00004C13.6668 11.1356 11.1357 13.6667 8.00016 13.6667C4.86462 13.6667 2.3335 11.1356 2.3335 8.00004C2.3335 4.86451 4.86462 2.33337 8.00016 2.33337ZM8.00016 4.66671C7.82335 4.66671 7.65378 4.73695 7.52876 4.86197C7.40373 4.987 7.3335 5.15656 7.3335 5.33338C7.3335 5.51019 7.40373 5.67976 7.52876 5.80478C7.65378 5.9298 7.82335 6.00004 8.00016 6.00004C8.17697 6.00004 8.34654 5.9298 8.47157 5.80478C8.59659 5.67976 8.66683 5.51019 8.66683 5.33338C8.66683 5.15656 8.59659 4.987 8.47157 4.86197C8.34654 4.73695 8.17697 4.66671 8.00016 4.66671ZM7.99235 6.99288C7.85986 6.99495 7.7336 7.04953 7.64131 7.14462C7.54903 7.23971 7.49826 7.36755 7.50016 7.50004V11.1667C7.49923 11.233 7.51147 11.2987 7.53617 11.3602C7.56088 11.4217 7.59756 11.4777 7.64408 11.5249C7.6906 11.572 7.74604 11.6095 7.80717 11.6351C7.8683 11.6607 7.9339 11.6738 8.00016 11.6738C8.06642 11.6738 8.13203 11.6607 8.19316 11.6351C8.25428 11.6095 8.30972 11.572 8.35624 11.5249C8.40276 11.4777 8.43944 11.4217 8.46415 11.3602C8.48886 11.2987 8.5011 11.233 8.50016 11.1667V7.50004C8.50112 7.43312 8.48864 7.36669 8.46345 7.30468C8.43826 7.24267 8.40088 7.18635 8.35353 7.13906C8.30617 7.09176 8.2498 7.05445 8.18776 7.02934C8.12572 7.00423 8.05927 6.99184 7.99235 6.99288Z"/>
</svg>