<svg viewBox="0 0 30 30" xmlns="http://www.w3.org/2000/svg">
<path fill-rule="evenodd" clip-rule="evenodd" d="M19.6423 16.5356C19.9811 15.9706 20.5912 15.625 21.25 15.625C21.9088 15.625 22.5189 15.9706 22.8577 16.5356L28.4827 25.9106C28.8302 26.4894 28.8396 27.2116 28.5071 27.7991C28.174 28.3866 27.5506 28.75 26.875 28.75H15.625C14.9494 28.75 14.326 28.3866 13.9929 27.7991C13.6604 27.2116 13.6698 26.49 14.0173 25.9106L19.6423 16.5356ZM21.875 18.75C21.875 18.405 21.595 18.125 21.25 18.125C20.905 18.125 20.625 18.405 20.625 18.75V23.75C20.625 24.095 20.905 24.375 21.25 24.375C21.595 24.375 21.875 24.095 21.875 23.75V18.75ZM22.0312 26.25C22.0312 25.8187 21.6812 25.4687 21.25 25.4687C20.8188 25.4687 20.4688 25.8187 20.4688 26.25C20.4688 26.6812 20.8188 27.0312 21.25 27.0312C21.6812 27.0312 22.0312 26.6812 22.0312 26.25Z" fill="#FFA800"/>
<path fill-rule="evenodd" clip-rule="evenodd" d="M8.75 5.625C8.75 2.87463 10.9996 0.625 13.75 0.625C16.5004 0.625 18.75 2.87463 18.75 5.625V8.125H20.9375C22.4875 8.125 23.75 9.3875 23.75 10.9375V15.6311C23.1688 14.8498 22.2375 14.375 21.25 14.375C20.1562 14.375 19.1318 14.956 18.5693 15.8935L12.9443 25.2685C12.8756 25.381 12.8125 25.5 12.7625 25.625H6.5625C5.0125 25.625 3.75 24.3625 3.75 22.8125V10.9375C3.75 9.3875 5.0125 8.125 6.5625 8.125H8.75V5.625ZM16.875 5.625C16.875 3.88786 15.4871 2.5 13.75 2.5C12.0129 2.5 10.625 3.88786 10.625 5.625V8.125H16.875V5.625ZM15.625 16.875C15.625 15.8375 14.7875 15 13.75 15C12.7125 15 11.875 15.8375 11.875 16.875C11.875 17.9125 12.7125 18.75 13.75 18.75C14.7875 18.75 15.625 17.9125 15.625 16.875Z" fill="#222222"/>
</svg>