<svg viewBox="0 0 20 20" xmlns="http://www.w3.org/2000/svg">
<path d="M10 1.20001C7.66609 1.20001 5.42778 2.12715 3.77746 3.77747C2.12714 5.42779 1.2 7.66611 1.2 10C1.2 12.3339 2.12714 14.5722 3.77746 16.2226C5.42778 17.8729 7.66609 18.8 10 18.8C12.3339 18.8 14.5722 17.8729 16.2225 16.2226C17.8729 14.5722 18.8 12.3339 18.8 10C18.8 7.66611 17.8729 5.42779 16.2225 3.77747C14.5722 2.12715 12.3339 1.20001 10 1.20001V1.20001Z" stroke-width="0.8" stroke-miterlimit="10" fill="transparent"/>
<path d="M12 8.39999C12 8.39999 12 6.99999 12 6.79999C12 5.67999 11.12 4.79999 9.99999 4.79999C8.87999 4.79999 7.99999 5.67999 7.99999 6.79999C7.99999 6.99999 7.99999 8.39999 7.99999 8.39999M6.39999 13.2V9.19999C6.39999 8.75999 6.75999 8.39999 7.19999 8.39999H12.8C13.24 8.39999 13.6 8.75999 13.6 9.19999V13.2C13.6 13.64 13.24 14 12.8 14H7.19999C6.75999 14 6.39999 13.64 6.39999 13.2Z" stroke-width="0.8" stroke-miterlimit="10" stroke-linecap="round" fill="transparent"/>
<path d="M10 10C9.78782 10 9.58434 10.0843 9.43431 10.2343C9.28428 10.3843 9.2 10.5878 9.2 10.8C9.2 11.0122 9.28428 11.2157 9.43431 11.3657C9.58434 11.5157 9.78782 11.6 10 11.6C10.2122 11.6 10.4157 11.5157 10.5657 11.3657C10.7157 11.2157 10.8 11.0122 10.8 10.8C10.8 10.5878 10.7157 10.3843 10.5657 10.2343C10.4157 10.0843 10.2122 10 10 10Z"/>
<path d="M10.4 11.2H9.60001V12C9.60001 12.24 9.76001 12.4 10 12.4C10.24 12.4 10.4 12.24 10.4 12V11.2Z"/>
</svg>
