<svg viewBox="0 0 22 20" xmlns="http://www.w3.org/2000/svg">
<path d="M2 0C0.895 0 0 0.895 0 2V14C0 15.105 0.895 16 2 16H11.1719L12.1016 15.0684C12.0376 14.7214 12 14.366 12 14H2V5.00195L10 10L18 5.00195V8C18.702 8 19.374 8.12761 20 8.34961V2C20 0.895 19.105 0 18 0H2ZM2 2H18V3.00195L10 8L2 3.00195V2ZM18 10C15.791 10 14 11.791 14 14C14 14.5863 14.1327 15.1389 14.3594 15.6406L12.293 17.707C11.902 18.098 11.902 18.7311 12.293 19.1211L12.8789 19.707C13.2689 20.098 13.902 20.098 14.293 19.707L16.3594 17.6406C16.8611 17.8673 17.4137 18 18 18C20.209 18 22 16.209 22 14C22 13.414 21.8676 12.8604 21.6406 12.3594L19 15L17 13L19.6406 10.3594C19.1396 10.1324 18.586 10 18 10Z"/>
</svg>
