<svg viewBox="0 0 18 15" xmlns="http://www.w3.org/2000/svg">
  <path fill-rule="evenodd" clip-rule="evenodd" d="M0 1.12497C0 0.503653 0.50368 -2.67029e-05 1.125 -2.67029e-05H14.625C15.2463 -2.67029e-05 15.75 0.503653 15.75 1.12497C15.75 1.74629 15.2463 2.24997 14.625 2.24997H1.125C0.50368 2.24997 0 1.74629 0 1.12497ZM0 7.125C0 6.50368 0.50368 6 1.125 6H16.875C17.4963 6 18 6.50368 18 7.125C18 7.74632 17.4963 8.25 16.875 8.25H1.125C0.50368 8.25 0 7.74632 0 7.125ZM1.125 12C0.50368 12 0 12.5037 0 13.125C0 13.7463 0.50368 14.25 1.125 14.25H9.375C9.99632 14.25 10.5 13.7463 10.5 13.125C10.5 12.5037 9.99632 12 9.375 12H1.125Z"/>
</svg>
