<svg viewBox="0 0 30 30" xmlns="http://www.w3.org/2000/svg">
<path d="M9.375 2.5C8.20312 2.5 7.20551 2.97321 6.56494 3.69385C5.92437 4.41449 5.625 5.33854 5.625 6.25C5.625 7.16146 5.92437 8.08551 6.56494 8.80615C7.20551 9.52679 8.20312 10 9.375 10C10.1008 10 10.7587 9.81743 11.3074 9.50806L13.6743 11.875L9.64966 15.8997C9.55969 15.986 9.48785 16.0895 9.43837 16.204C9.38889 16.3185 9.36274 16.4417 9.36148 16.5664C9.36021 16.6912 9.38384 16.8149 9.43099 16.9304C9.47813 17.0458 9.54784 17.1508 9.63604 17.239C9.72424 17.3272 9.82915 17.3969 9.94463 17.444C10.0601 17.4912 10.1838 17.5148 10.3086 17.5135C10.4333 17.5123 10.5565 17.4861 10.671 17.4366C10.7855 17.3871 10.889 17.3153 10.9753 17.2253L18.6926 9.50806C19.2413 9.81743 19.8992 10 20.625 10C21.7969 10 22.7945 9.52679 23.4351 8.80615C24.0756 8.08551 24.375 7.16146 24.375 6.25C24.375 5.33854 24.0756 4.41449 23.4351 3.69385C22.7945 2.97321 21.7969 2.5 20.625 2.5C19.4531 2.5 18.4555 2.97321 17.8149 3.69385C17.1744 4.41449 16.875 5.33854 16.875 6.25C16.875 6.91437 17.0363 7.58461 17.3706 8.17871L15 10.5493L12.6294 8.17871C12.9637 7.58461 13.125 6.91437 13.125 6.25C13.125 5.33854 12.8256 4.41449 12.1851 3.69385C11.5445 2.97321 10.5469 2.5 9.375 2.5ZM9.375 4.375C10.0781 4.375 10.4868 4.60492 10.7837 4.93896C11.0806 5.27301 11.25 5.75521 11.25 6.25C11.25 6.74479 11.0806 7.22699 10.7837 7.56104C10.4868 7.89508 10.0781 8.125 9.375 8.125C8.67188 8.125 8.26324 7.89508 7.96631 7.56104C7.66938 7.22699 7.5 6.74479 7.5 6.25C7.5 5.75521 7.66938 5.27301 7.96631 4.93896C8.26324 4.60492 8.67188 4.375 9.375 4.375ZM20.625 4.375C21.3281 4.375 21.7368 4.60492 22.0337 4.93896C22.3306 5.27301 22.5 5.75521 22.5 6.25C22.5 6.74479 22.3306 7.22699 22.0337 7.56104C21.7368 7.89508 21.3281 8.125 20.625 8.125C19.9219 8.125 19.5132 7.89508 19.2163 7.56104C18.9194 7.22699 18.75 6.74479 18.75 6.25C18.75 5.75521 18.9194 5.27301 19.2163 4.93896C19.5132 4.60492 19.9219 4.375 20.625 4.375ZM4.375 13.75C3.33938 13.75 2.5 14.5894 2.5 15.625V25C2.5 26.0356 3.33938 26.875 4.375 26.875H25.625C26.6606 26.875 27.5 26.0356 27.5 25V15.625C27.5 14.5894 26.6606 13.75 25.625 13.75H16.2122L14.3372 15.625H23.75C23.75 16.6606 24.5894 17.5 25.625 17.5V23.125C24.5894 23.125 23.75 23.9644 23.75 25H6.25C6.25 23.9644 5.41062 23.125 4.375 23.125V17.5C5.41062 17.5 6.25 16.6606 6.25 15.625H8.3374C8.4374 15.4062 8.58706 15.1996 8.76831 15.0183L10.0378 13.75H4.375ZM15 16.875C13.2744 16.875 11.875 18.4137 11.875 20.3125C11.875 22.2113 13.2744 23.75 15 23.75C16.7256 23.75 18.125 22.2113 18.125 20.3125C18.125 18.4137 16.7256 16.875 15 16.875ZM15 18.75C15.6775 18.75 16.25 19.4656 16.25 20.3125C16.25 21.1594 15.6775 21.875 15 21.875C14.3225 21.875 13.75 21.1594 13.75 20.3125C13.75 19.4656 14.3225 18.75 15 18.75ZM7.8125 19.0625C7.48098 19.0625 7.16304 19.1942 6.92862 19.4286C6.6942 19.663 6.5625 19.981 6.5625 20.3125C6.5625 20.644 6.6942 20.962 6.92862 21.1964C7.16304 21.4308 7.48098 21.5625 7.8125 21.5625C8.14402 21.5625 8.46196 21.4308 8.69638 21.1964C8.9308 20.962 9.0625 20.644 9.0625 20.3125C9.0625 19.981 8.9308 19.663 8.69638 19.4286C8.46196 19.1942 8.14402 19.0625 7.8125 19.0625ZM22.1875 19.0625C21.856 19.0625 21.538 19.1942 21.3036 19.4286C21.0692 19.663 20.9375 19.981 20.9375 20.3125C20.9375 20.644 21.0692 20.962 21.3036 21.1964C21.538 21.4308 21.856 21.5625 22.1875 21.5625C22.519 21.5625 22.837 21.4308 23.0714 21.1964C23.3058 20.962 23.4375 20.644 23.4375 20.3125C23.4375 19.981 23.3058 19.663 23.0714 19.4286C22.837 19.1942 22.519 19.0625 22.1875 19.0625Z" />
</svg>
