<svg viewBox="0 0 250 187" fill="none" xmlns="http://www.w3.org/2000/svg">
<g>
<path d="M250 163.725H0V163.85H250V163.725Z" fill="#D1E3FF"/>
<path d="M196.59 167.525H188.16V167.65H196.59V167.525Z" fill="#D1E3FF"/>
<path d="M224.28 167.46H202V167.585H224.28V167.46Z" fill="#D1E3FF"/>
<path d="M160.365 168.3H132.63V168.425H160.365V168.3Z" fill="#D1E3FF"/>
<path d="M129.75 168.3H119.39V168.425H129.75V168.3Z" fill="#D1E3FF"/>
<path d="M75.78 167.335H71.23V167.46H75.78V167.335Z" fill="#D1E3FF"/>
<path d="M86.0749 167.335H78.5549V167.46H86.0749V167.335Z" fill="#D1E3FF"/>
<path d="M66.7251 169.595H33.4451V169.72H66.7251V169.595Z" fill="#D1E3FF"/>
<path d="M118.5 141.425H21.955C21.1987 141.424 20.4738 141.122 19.9394 140.587C19.4051 140.052 19.105 139.326 19.105 138.57V2.85502C19.1116 2.10304 19.4146 1.38401 19.9482 0.854134C20.4818 0.324253 21.203 0.0263126 21.955 0.0250244H118.5C119.257 0.0250244 119.983 0.325818 120.519 0.861235C121.054 1.39665 121.355 2.12283 121.355 2.88002V138.57C121.355 139.327 121.054 140.053 120.519 140.589C119.983 141.124 119.257 141.425 118.5 141.425ZM21.955 0.125025C21.2318 0.126349 20.5387 0.414557 20.0278 0.926388C19.5169 1.43822 19.23 2.13185 19.23 2.85502V138.57C19.23 139.293 19.5169 139.987 20.0278 140.499C20.5387 141.01 21.2318 141.299 21.955 141.3H118.5C119.224 141.299 119.917 141.011 120.429 140.499C120.941 139.987 121.229 139.294 121.23 138.57V2.85502C121.229 2.13139 120.941 1.43777 120.429 0.926083C119.917 0.414395 119.224 0.126347 118.5 0.125025H21.955Z" fill="#D1E3FF"/>
<path d="M226.655 141.425H130.105C129.348 141.424 128.623 141.122 128.088 140.587C127.553 140.052 127.251 139.327 127.25 138.57V2.85502C127.258 2.10258 127.562 1.38356 128.096 0.853821C128.631 0.324079 129.353 0.0262986 130.105 0.0250244H226.655C227.406 0.0276267 228.126 0.326149 228.659 0.855888C229.191 1.38563 229.493 2.1039 229.5 2.85502V138.57C229.5 139.325 229.201 140.05 228.667 140.585C228.134 141.12 227.41 141.422 226.655 141.425ZM130.105 0.125025C129.381 0.126347 128.688 0.414395 128.176 0.926083C127.664 1.43777 127.376 2.13139 127.375 2.85502V138.57C127.376 139.294 127.664 139.987 128.176 140.499C128.688 141.011 129.381 141.299 130.105 141.3H226.655C227.379 141.299 228.072 141.011 228.584 140.499C229.096 139.987 229.384 139.294 229.385 138.57V2.85502C229.384 2.13139 229.096 1.43777 228.584 0.926083C228.072 0.414395 227.379 0.126347 226.655 0.125025H130.105Z" fill="#D1E3FF"/>
<path d="M158.895 102.79H135.215V163.72H158.895V102.79Z" fill="#D1E3FF"/>
<path d="M154.395 163.725H158.895V150.93H149.68L154.395 163.725Z" fill="#EEF9FF"/>
<path d="M70.3951 102.79H46.7151V163.72H70.3951V102.79Z" fill="#D1E3FF"/>
<path d="M158.89 102.79H66.47V155.87H158.89V102.79Z" fill="#EEF9FF"/>
<path d="M114.19 106.65V139.88H155.405V106.65H114.19Z" fill="#D1E3FF"/>
<path d="M69.96 106.65V139.88H111.175V106.65H69.96Z" fill="#D1E3FF"/>
<path d="M155.405 150.93V148.485H114.19V150.93H155.405Z" fill="#D1E3FF"/>
<path d="M111.175 150.93V148.485H69.9601V150.93H111.175Z" fill="#D1E3FF"/>
<path d="M155.4 146.205V143.76H114.185V146.205H155.4Z" fill="#D1E3FF"/>
<path d="M111.17 146.205V143.76H69.9549V146.205H111.17Z" fill="#D1E3FF"/>
<path d="M94.645 110.23H86.5C84.7475 110.23 83.0134 109.873 81.4033 109.181C79.7932 108.489 78.3409 107.477 77.135 106.205H104C102.796 107.476 101.345 108.488 99.7367 109.18C98.1283 109.872 96.3959 110.229 94.645 110.23Z" fill="#EEF9FF"/>
<path d="M139.29 110.23H131.14C129.387 110.231 127.653 109.874 126.043 109.182C124.433 108.49 122.98 107.477 121.775 106.205H148.655C147.449 107.477 145.997 108.49 144.387 109.182C142.777 109.874 141.042 110.231 139.29 110.23Z" fill="#EEF9FF"/>
<path d="M70.97 163.725H66.47V150.93H75.685L70.97 163.725Z" fill="#EEF9FF"/>
<path d="M158.385 9.52002H34.175V80.47H158.385V9.52002Z" fill="#D1E3FF"/>
<path d="M165.255 7.33008H30C29.8316 7.33008 29.6701 7.39698 29.551 7.51606C29.4319 7.63515 29.365 7.79666 29.365 7.96508C29.3643 8.04889 29.3803 8.132 29.4119 8.20962C29.4435 8.28724 29.4902 8.35783 29.5492 8.41733C29.6083 8.47682 29.6785 8.52404 29.7558 8.55627C29.8332 8.58849 29.9162 8.60508 30 8.60508H165.255C165.339 8.60508 165.422 8.58849 165.499 8.55627C165.577 8.52404 165.647 8.47682 165.706 8.41733C165.765 8.35783 165.812 8.28724 165.843 8.20962C165.875 8.132 165.891 8.04889 165.89 7.96508C165.89 7.79666 165.823 7.63515 165.704 7.51606C165.585 7.39698 165.423 7.33008 165.255 7.33008Z" fill="#D1E3FF"/>
<path d="M161.105 9.52002H35.4451V80.47H161.105V9.52002Z" fill="#E3EEFF"/>
<path d="M158.385 80.465H34.175V85.52H158.385V80.465Z" fill="#D1E3FF"/>
<path d="M165.635 80.465H39.9751V85.52H165.635V80.465Z" fill="#E3EEFF"/>
<path d="M157.29 76.6601V13.3301L39.25 13.3301V76.6601H157.29Z" fill="#F5FCFF"/>
<path d="M97.6699 76.6601L120.025 13.3301H130.575L108.22 76.6601H97.6699Z" fill="white"/>
<path d="M110.49 76.6601L132.845 13.3301H136.955L114.605 76.6601H110.49Z" fill="white"/>
<path d="M157.29 76.6551V13.3251H156.805V76.6551H157.29Z" fill="#D1E3FF"/>
<path d="M39.295 6.19006H32.74V67.3001H39.295V6.19006Z" fill="#EBF3FF"/>
<path d="M41.8501 6.19006H36.7451V67.3001H41.8501V6.19006Z" fill="#D1E3FF"/>
<path d="M45.8499 6.19006H39.2949V67.3001H45.8499V6.19006Z" fill="#EBF3FF"/>
<path d="M48.405 6.19006H43.3V67.3001H48.405V6.19006Z" fill="#D1E3FF"/>
<path d="M52.4051 6.19006H45.8501V67.3001H52.4051V6.19006Z" fill="#EBF3FF"/>
<path d="M154.85 6.19006H151.075V67.3001H154.85V6.19006Z" fill="#EBF3FF"/>
<path d="M156.33 6.19006H153.385V67.3001H156.33V6.19006Z" fill="#D1E3FF"/>
<path d="M158.63 6.19006H154.855V67.3001H158.63V6.19006Z" fill="#EBF3FF"/>
<path d="M160.105 6.19006H157.16V67.3001H160.105V6.19006Z" fill="#D1E3FF"/>
<path d="M162.405 6.19006H158.63V67.3001H162.405V6.19006Z" fill="#EBF3FF"/>
<path d="M196.765 32.7001H188.385V55.5651H196.765V32.7001Z" fill="#E3EEFF"/>
<path d="M185.2 59.375L183.26 64.665H185.2L197.065 59.375H185.2Z" fill="#F3F8FF"/>
<path d="M183.26 59.375V64.665L195.13 59.375H183.26Z" fill="#D1E3FF"/>
<path d="M205.495 59.375L203.555 64.665H205.495L217.36 59.375H205.495Z" fill="#F3F8FF"/>
<path d="M203.555 59.375V64.665L215.425 59.375H203.555Z" fill="#D1E3FF"/>
<path d="M174.555 59.625H187.46V55.6H174.555V59.625Z" fill="#D1E3FF"/>
<path d="M224.28 55.6H187.455V59.625H224.28V55.6Z" fill="#F3F8FF"/>
<path d="M210.725 55.565H190.33L187.805 27.855H208.2L210.725 55.565Z" fill="#D1E3FF"/>
<path d="M211.78 55.565H191.385L188.865 27.855H209.26L211.78 55.565Z" fill="#EEF9FF"/>
<path d="M194.175 52.495L192.21 30.925H206.47L208.435 52.495H194.175Z" fill="white"/>
<path d="M78.7051 93.9001C78.7051 93.9001 69.9101 78.7451 82.1101 66.6801C82.1101 66.6801 85.2951 68.7551 85.2451 71.5451C85.1951 74.3351 81.8351 75.0451 82.5601 77.3651C83.2851 79.6851 86.4551 81.9801 84.3701 83.9051C82.2851 85.8301 84.7051 87.5401 84.5651 89.9051C84.4251 92.2701 78.7051 93.9001 78.7051 93.9001Z" fill="#D1E3FF"/>
<path d="M79.37 95.285C79.37 95.285 82.935 78.13 67.555 70.525C67.555 70.525 65.19 73.5 66.115 76.13C67.04 78.76 70.45 78.375 70.5 80.81C70.55 83.245 68.26 86.415 70.84 87.585C73.42 88.755 71.67 91.145 72.55 93.335C73.43 95.525 79.37 95.285 79.37 95.285Z" fill="#D1E3FF"/>
<path d="M65.8999 91.485C65.8999 91.485 66.1899 102.795 77.3999 102.795C88.6099 102.795 88.8999 91.485 88.8999 91.485H65.8999Z" fill="#EEF9FF"/>
<path d="M198.175 163.725H199.32L202.58 147.645L203.155 144.83L206.71 127.33H220.355L227.75 163.725H228.895L221.36 126.635C221.334 126.509 221.264 126.396 221.164 126.315C221.064 126.234 220.939 126.19 220.81 126.19H206.255C206.127 126.189 206.002 126.233 205.902 126.314C205.803 126.395 205.735 126.509 205.71 126.635L202.585 142.025L202 144.84L198.175 163.725Z" fill="#EBF3FF"/>
<path d="M176.27 163.725H177.415L184.81 127.31H198.455L202 144.84L202.57 147.645L205.835 163.725H207L203.165 144.83L202.585 142.025L199.46 126.635C199.434 126.509 199.364 126.396 199.264 126.315C199.164 126.234 199.039 126.19 198.91 126.19H184.355C184.226 126.19 184.101 126.234 184.001 126.315C183.901 126.396 183.831 126.509 183.805 126.635L176.27 163.725Z" fill="#EBF3FF"/>
<path d="M209.905 126.75H184.835C182.534 126.749 180.325 125.847 178.682 124.236C177.039 122.626 176.092 120.435 176.045 118.135L175.11 80.025C175.097 79.1772 175.253 78.3353 175.569 77.5482C175.884 76.7611 176.352 76.0445 176.947 75.4398C177.541 74.8351 178.25 74.3545 179.031 74.0258C179.813 73.6971 180.652 73.5269 181.5 73.525H197.215C198.788 73.5247 200.307 74.1036 201.481 75.1512C202.655 76.1987 203.402 77.6418 203.58 79.205L209.905 126.75Z" fill="#E3EEFF"/>
<path d="M196.23 121.945H220.765C221.676 121.945 222.55 122.307 223.194 122.951C223.838 123.595 224.2 124.469 224.2 125.38V125.5C224.2 125.832 224.068 126.15 223.834 126.384C223.599 126.618 223.282 126.75 222.95 126.75H196.23V121.945Z" fill="#E3EEFF"/>
<path d="M125 186.305C178.541 186.305 221.945 183.771 221.945 180.645C221.945 177.519 178.541 174.985 125 174.985C71.4587 174.985 28.0549 177.519 28.0549 180.645C28.0549 183.771 71.4587 186.305 125 186.305Z" fill="#F0F6FF"/>
<g style="mix-blend-mode:multiply" opacity="0.2">
<path d="M93.2751 36.665C93.277 35.7337 93.2017 34.8038 93.0501 33.885C92.3799 29.8237 90.2997 26.1286 87.1749 23.4492C84.0502 20.7699 80.081 19.2777 75.965 19.235H75.8151C73.0537 19.2367 70.3323 19.8949 67.8755 21.1555C65.4187 22.4161 63.2968 24.2428 61.6851 26.485C61.4201 26.85 61.1851 27.225 60.9451 27.6C60.9255 27.6247 60.9087 27.6516 60.8951 27.68C59.2537 30.3946 58.3889 33.5077 58.3951 36.68V36.715C58.4054 40.4019 59.5838 43.9907 61.7613 46.966C63.9387 49.9413 67.0031 52.15 70.5143 53.2748C74.0254 54.3996 77.8028 54.3828 81.3037 53.2267C84.8047 52.0705 87.8493 49.8346 90.0001 46.84C90.2601 46.475 90.5 46.105 90.7351 45.725C90.7546 45.7002 90.7714 45.6734 90.7851 45.645C92.4244 42.9373 93.2859 39.8302 93.2751 36.665ZM59.1401 36.27C59.1978 33.4152 59.9955 30.6242 61.4551 28.17H66.9101C66.0765 30.7902 65.6399 33.5205 65.615 36.27H59.1401ZM67.6751 28.17H75.4551V36.27H66.365C66.3816 33.5186 66.8235 30.7863 67.6751 28.17ZM76.2051 27.42V19.96C77.2865 20.058 78.3221 20.4429 79.2051 21.075C81.0601 22.345 82.6151 24.575 83.7051 27.42H76.2051ZM83.975 28.17C84.5936 30.043 84.9962 31.9806 85.1751 33.945C85.2501 34.725 85.285 35.5 85.295 36.27H76.2051V28.17H83.975ZM74.3551 20.17C74.714 20.068 75.0827 20.0043 75.4551 19.98V27.435H67.9551C69.3551 23.665 71.6251 20.925 74.3551 20.155V20.17ZM75.4551 37.035V45.135H67.6901C67.0714 43.2573 66.672 41.3144 66.5001 39.345C66.4301 38.565 66.39 37.79 66.38 37.02L75.4551 37.035ZM75.4551 45.885V53.345C74.3738 53.2462 73.3383 52.8614 72.4551 52.23C70.6051 50.96 69.0501 48.73 67.9551 45.885H75.4551ZM77.3051 53.15C76.9462 53.2524 76.5775 53.3161 76.2051 53.34V45.87H83.7051C82.3051 49.625 80.0351 52.37 77.3051 53.135V53.15ZM76.2051 45.15V37.025H85.295C85.2809 39.7766 84.839 42.5092 83.9851 45.125L76.2051 45.15ZM86.045 37.025H92.545C92.4845 39.8794 91.6871 42.6697 90.2301 45.125H84.7501C85.5837 42.5048 86.0202 39.7745 86.045 37.025ZM92.545 36.275H86.045C86.045 35.485 85.9951 34.685 85.92 33.88C85.7494 31.942 85.3654 30.0287 84.7751 28.175H90.2201C91.2723 29.9616 91.9827 31.9284 92.3151 33.975C92.4341 34.7347 92.5043 35.5013 92.5251 36.27L92.545 36.275ZM85.6101 23.11C87.2443 24.2872 88.6534 25.7488 89.77 27.425H84.5001C83.3801 24.33 81.695 21.88 79.63 20.46L79.4701 20.355C81.6749 20.8487 83.7568 21.7842 85.59 23.105L85.6101 23.11ZM72.1751 20.365C70.0701 21.75 68.3401 24.27 67.1751 27.425H61.9251L62.2901 26.89C64.6645 23.5753 68.1762 21.2508 72.1551 20.36L72.1751 20.365ZM59.1751 37.025H65.6501C65.6501 37.815 65.7001 38.615 65.7751 39.42C65.9481 41.3576 66.3321 43.2706 66.92 45.125H61.4451C60.3907 43.3394 59.6801 41.3722 59.35 39.325C59.2256 38.5643 59.1554 37.7957 59.1401 37.025H59.1751ZM61.9451 45.875H67.1751C68.2951 48.97 69.98 51.42 72.045 52.84L72.2101 52.945C68.0088 51.9908 64.3343 49.46 61.9451 45.875ZM79.5001 52.93C81.6001 51.55 83.3301 49.025 84.5001 45.87H89.74C89.62 46.05 89.5001 46.23 89.3751 46.405C86.9986 49.7212 83.4826 52.0444 79.5001 52.93Z" fill="#318FFF"/>
</g>
<path d="M188 56H55C50.5817 56 47 59.5817 47 64V78C47 82.4183 50.5817 86 55 86H188C192.418 86 196 82.4183 196 78V64C196 59.5817 192.418 56 188 56Z" fill="#7262D2"/>
<path d="M192.555 77.6551V64.5651C192.555 61.8036 190.316 59.5651 187.555 59.5651L55.3549 59.5651C52.5935 59.5651 50.3549 61.8036 50.3549 64.5651V77.6551C50.3549 80.4165 52.5935 82.6551 55.3549 82.6551H187.555C190.316 82.6551 192.555 80.4165 192.555 77.6551Z" fill="white"/>
<path d="M168.635 59.56V82.65H169.47V59.56H168.635Z" fill="#B7AEEA"/>
<path d="M53.8999 62.75V79.47H54.7349V62.75H53.8999Z" fill="#B7AEEA"/>
<path d="M180.215 74.025C179.608 74.0248 179.011 73.8749 178.476 73.5887C177.941 73.3025 177.485 72.8889 177.148 72.3843C176.811 71.8798 176.604 71.2999 176.544 70.6961C176.485 70.0923 176.575 69.4832 176.807 68.9227C177.04 68.3622 177.407 67.8676 177.876 67.4827C178.344 67.0978 178.901 66.8344 179.496 66.716C180.091 66.5976 180.706 66.6277 181.287 66.8037C181.868 66.9797 182.396 67.2961 182.825 67.725C183.341 68.2411 183.693 68.8987 183.836 69.6147C183.978 70.3307 183.905 71.0729 183.626 71.7473C183.346 72.4218 182.873 72.9982 182.266 73.4036C181.659 73.8091 180.945 74.0253 180.215 74.025ZM180.215 67.65C179.592 67.6502 178.989 67.8663 178.508 68.2614C178.027 68.6565 177.698 69.2062 177.577 69.8168C177.456 70.4274 177.55 71.0611 177.844 71.6098C178.138 72.1586 178.613 72.5885 179.189 72.8262C179.764 73.0639 180.404 73.0947 180.999 72.9134C181.595 72.732 182.109 72.3498 182.454 71.8318C182.799 71.3138 182.954 70.6921 182.892 70.0727C182.831 69.4533 182.556 68.8745 182.115 68.435C181.868 68.1804 181.573 67.9776 181.247 67.8385C180.92 67.6994 180.57 67.6268 180.215 67.625V67.65Z" fill="#B7AEEA"/>
<path d="M185 75.595C184.934 75.5947 184.868 75.5813 184.807 75.5556C184.746 75.5298 184.691 75.4922 184.645 75.445L182.12 72.92C182.067 72.8752 182.025 72.82 181.995 72.758C181.965 72.6959 181.948 72.6284 181.945 72.5595C181.943 72.4907 181.954 72.422 181.98 72.3578C182.005 72.2937 182.043 72.2354 182.092 72.1867C182.14 72.1379 182.199 72.0998 182.263 72.0747C182.327 72.0495 182.396 72.0379 182.464 72.0406C182.533 72.0433 182.601 72.0601 182.663 72.0901C182.725 72.1201 182.78 72.1627 182.825 72.215L185.35 74.74C185.443 74.8337 185.495 74.9604 185.495 75.0925C185.495 75.2246 185.443 75.3513 185.35 75.445C185.258 75.5392 185.132 75.5931 185 75.595Z" fill="#B7AEEA"/>
<path d="M146.295 21.95H130.575V22.34H146.295V21.95Z" fill="#9FC6FF"/>
<path d="M146.295 23.605H130.575V23.995H146.295V23.605Z" fill="#9FC6FF"/>
<path d="M146.295 25.26H130.575V25.65H146.295V25.26Z" fill="#9FC6FF"/>
<path d="M146.295 26.92H130.575V27.31H146.295V26.92Z" fill="#9FC6FF"/>
<path d="M146.295 28.575H130.575V28.965H146.295V28.575Z" fill="#9FC6FF"/>
<path d="M140.825 30.235H130.575V30.625H140.825V30.235Z" fill="#9FC6FF"/>
<path d="M51.675 93.44H34.925V93.69H51.675V93.44Z" fill="#9FC6FF"/>
<path d="M51.675 94.505H34.925V94.755H51.675V94.505Z" fill="#9FC6FF"/>
<path d="M51.675 95.565H34.925V95.815H51.675V95.565Z" fill="#9FC6FF"/>
<path d="M51.675 96.625H34.925V96.875H51.675V96.625Z" fill="#9FC6FF"/>
<path d="M51.675 97.685H34.925V97.935H51.675V97.685Z" fill="#9FC6FF"/>
<path d="M45.4551 98.745H34.925V98.995H45.4551V98.745Z" fill="#9FC6FF"/>
<path d="M106.725 24.405C105.887 24.405 105.083 24.738 104.49 25.3306C103.898 25.9232 103.565 26.7269 103.565 27.565V37.99C103.565 38.8281 103.898 39.6319 104.49 40.2245C105.083 40.8171 105.887 41.15 106.725 41.15C107.563 41.15 108.367 40.8171 108.959 40.2245C109.552 39.6319 109.885 38.8281 109.885 37.99V27.565C109.885 26.7269 109.552 25.9232 108.959 25.3306C108.367 24.738 107.563 24.405 106.725 24.405Z" fill="#E3EEFF"/>
<path d="M114.645 18.19C113.81 18.1939 113.01 18.5286 112.42 19.1208C111.831 19.713 111.5 20.5145 111.5 21.35V37.99C111.5 38.8281 111.833 39.6318 112.426 40.2244C113.018 40.817 113.822 41.15 114.66 41.15C115.498 41.15 116.302 40.817 116.894 40.2244C117.487 39.6318 117.82 38.8281 117.82 37.99V21.35C117.82 20.9337 117.738 20.5216 117.578 20.1372C117.418 19.7529 117.184 19.4038 116.889 19.1102C116.594 18.8166 116.244 18.5841 115.859 18.4262C115.474 18.2683 115.061 18.188 114.645 18.19Z" fill="#D1E3FF"/>
<path d="M122.56 30.62C121.722 30.62 120.918 30.9529 120.325 31.5455C119.733 32.1382 119.4 32.9419 119.4 33.78V37.99C119.4 38.8281 119.733 39.6318 120.325 40.2245C120.918 40.8171 121.722 41.15 122.56 41.15C122.975 41.1507 123.387 41.0694 123.771 40.9109C124.155 40.7524 124.504 40.5197 124.798 40.2262C125.092 39.9327 125.325 39.5842 125.484 39.2004C125.643 38.8167 125.725 38.4054 125.725 37.99V33.78C125.725 33.3646 125.643 32.9533 125.484 32.5696C125.325 32.1858 125.092 31.8373 124.798 31.5438C124.504 31.2503 124.155 31.0176 123.771 30.8591C123.387 30.7006 122.975 30.6193 122.56 30.62Z" fill="#EBF3FF"/>
<path d="M159.07 57.415C157.874 54.13 156.048 51.1102 153.695 48.525H113.94C111.587 51.1102 109.761 54.13 108.565 57.415L114.065 84.795C118.273 89.3562 123.929 92.3202 130.075 93.1834C136.22 94.0465 142.474 92.7557 147.776 89.5301C153.077 86.3046 157.098 81.3432 159.156 75.4889C161.214 69.6345 161.182 63.2483 159.065 57.415H159.07Z" fill="#7262D2"/>
<path d="M160.969 67.1724C160.684 74.551 158.163 81.5744 153.852 87H114.145C110.793 82.7651 108.505 77.5419 107.53 71.8993C106.555 66.2568 106.931 60.4114 108.616 55H159.381C160.6 58.8946 161.14 63.0326 160.969 67.1724Z" fill="white"/>
<path opacity="0.4" d="M160.655 67.83C160.344 74.4737 157.574 80.7645 152.884 85.48C148.194 90.1954 141.918 92.9988 135.276 93.3454C128.634 93.6919 122.101 91.5568 116.945 87.355C111.789 83.1533 108.38 77.1849 107.379 70.6096C106.379 64.0344 107.858 57.322 111.531 51.7768C115.203 46.2316 120.805 42.2495 127.25 40.6046C133.694 38.9596 140.52 39.7691 146.4 42.8759C152.281 45.9826 156.797 51.1647 159.07 57.415C160.283 60.7475 160.822 64.2877 160.655 67.83Z" fill="#DBD5FF"/>
<path opacity="0.4" d="M148.96 44.405L110.33 79.635C110.137 79.2783 109.947 78.9183 109.76 78.555C108.579 76.1904 107.758 73.6624 107.325 71.055L140.69 40.625C143.642 41.4031 146.44 42.6816 148.96 44.405Z" fill="#DBD5FF"/>
<path opacity="0.4" d="M159.295 58.0601L123 91.1801C119.235 89.519 115.903 87.0145 113.26 83.8601L152.92 47.6901C155.81 50.6136 157.991 54.1613 159.295 58.0601Z" fill="#DBD5FF"/>
<path d="M160.645 51.1C157.581 45.7872 153.01 41.5026 147.51 38.7883C142.01 36.0741 135.829 35.0521 129.749 35.8519C123.668 36.6516 117.961 39.237 113.35 43.281C108.739 47.3249 105.431 52.6457 103.845 58.5701C102.259 64.4945 102.466 70.7563 104.44 76.5631C106.413 82.3699 110.065 87.4608 114.933 91.1916C119.801 94.9225 125.666 97.1256 131.786 97.5223C137.906 97.9189 144.006 96.4913 149.315 93.42C156.425 89.3064 161.612 82.5391 163.736 74.6042C165.861 66.6694 164.749 58.2157 160.645 51.1ZM112.645 78.82C110.227 74.6331 109.106 69.8235 109.422 64.9991C109.738 60.1748 111.477 55.5525 114.42 51.7167C117.363 47.881 121.377 45.004 125.955 43.4496C130.533 41.8952 135.469 41.7332 140.139 42.9841C144.809 44.235 149.004 46.8426 152.192 50.4771C155.38 54.1117 157.418 58.61 158.05 63.4032C158.682 68.1965 157.878 73.0693 155.74 77.4057C153.602 81.742 150.227 85.3471 146.04 87.765C143.26 89.3704 140.192 90.4126 137.009 90.8319C133.827 91.2513 130.593 91.0396 127.492 90.2089C124.391 89.3783 121.485 87.945 118.938 85.9908C116.392 84.0367 114.255 81.6 112.65 78.82H112.645Z" fill="#392C85"/>
<path d="M62.5299 98.47L66.3599 99.36L63.1849 101.73C63.1849 101.73 60.9099 100.7 60.8049 99.085L62.5299 98.47Z" fill="#FF8B7B"/>
<path d="M68.4098 101.91L65.6498 103.75L63.1848 101.73L66.3598 99.36L68.4098 101.91Z" fill="#FF8B7B"/>
<path d="M111.735 82.915C107.665 85.915 103.49 88.765 99.2949 91.55C95.0999 94.335 90.8499 97.05 86.5799 99.715C82.3099 102.38 77.9999 104.99 73.6749 107.525C71.5149 108.815 69.3349 110.065 67.1749 111.335C66.1019 112.018 64.9321 112.536 63.7049 112.87C63.0501 113.044 62.3806 113.156 61.7049 113.205C60.9548 113.266 60.1999 113.228 59.4599 113.09C58.9311 112.985 58.4281 112.778 57.9797 112.478C57.5314 112.179 57.1464 111.794 56.8468 111.346C56.5473 110.898 56.3391 110.395 56.2341 109.867C56.1291 109.338 56.1293 108.794 56.2349 108.265C56.2691 108.095 56.3159 107.928 56.3749 107.765C56.6163 107.056 56.9527 106.383 57.3749 105.765C57.7516 105.209 58.1801 104.69 58.6549 104.215C59.5592 103.32 60.5923 102.565 61.7199 101.975C63.9049 100.73 66.0749 99.475 68.2749 98.24C72.6549 95.765 77.0749 93.355 81.5049 90.975C85.9349 88.595 90.4199 86.29 94.9299 84.04C99.4399 81.79 103.985 79.6 108.625 77.58C109.325 77.2704 110.115 77.2304 110.843 77.4678C111.571 77.7051 112.185 78.203 112.569 78.8658C112.952 79.5286 113.077 80.3096 112.919 81.0589C112.761 81.8081 112.333 82.4727 111.715 82.925L111.735 82.915Z" fill="#392C85"/>
<path d="M68.08 74.785C67.83 75.19 67.545 75.68 67.275 76.14C67.005 76.6 66.74 77.08 66.49 77.565C65.99 78.52 65.49 79.49 64.99 80.475C64.49 81.46 64.085 82.475 63.675 83.475C63.475 83.975 63.265 84.475 63.08 84.975L62.8 85.74C62.745 85.885 62.735 85.945 62.7 86.05C62.665 86.155 62.65 86.255 62.62 86.355C62.4248 87.3431 62.326 88.3478 62.325 89.355C62.3 90.43 62.325 91.525 62.385 92.63C62.445 93.735 62.505 94.845 62.605 95.955C62.705 97.065 62.805 98.195 62.91 99.295L60.98 99.69C60.64 98.575 60.375 97.465 60.11 96.34C59.845 95.215 59.645 94.085 59.45 92.935C59.255 91.785 59.125 90.63 59.04 89.435C58.936 88.1835 58.9678 86.9245 59.135 85.68C59.165 85.505 59.19 85.34 59.235 85.18C59.28 85.02 59.325 84.795 59.365 84.68L59.61 83.83C59.77 83.265 59.955 82.705 60.145 82.15C60.53 81.035 60.95 79.94 61.42 78.86C61.89 77.78 62.39 76.725 62.92 75.685C63.195 75.185 63.485 74.65 63.78 74.135C64.075 73.62 64.37 73.135 64.74 72.59L68.08 74.785Z" fill="#FF8B7B"/>
<path d="M65.945 178.025C65.6076 178.014 65.2723 177.967 64.945 177.885C64.9275 177.882 64.9113 177.874 64.8987 177.861C64.8862 177.849 64.8779 177.832 64.875 177.815C64.8718 177.797 64.8739 177.778 64.881 177.762C64.8881 177.745 64.8999 177.73 64.915 177.72C65.05 177.63 66.23 176.87 66.685 177.075C66.7356 177.098 66.779 177.135 66.8106 177.18C66.8423 177.226 66.8611 177.279 66.865 177.335C66.8885 177.424 66.8869 177.518 66.8604 177.606C66.8339 177.694 66.7836 177.774 66.715 177.835C66.4897 177.989 66.2162 178.057 65.945 178.025ZM65.18 177.755C65.86 177.89 66.37 177.865 66.565 177.685C66.6078 177.644 66.6392 177.592 66.6558 177.535C66.6725 177.478 66.6739 177.418 66.66 177.36C66.6594 177.334 66.6515 177.31 66.6374 177.288C66.6232 177.267 66.6033 177.25 66.58 177.24C66.345 177.135 65.66 177.465 65.18 177.755Z" fill="#0053CC"/>
<path d="M64.94 177.89C64.9253 177.894 64.9097 177.894 64.895 177.89C64.8806 177.882 64.8687 177.871 64.8608 177.857C64.8528 177.842 64.8491 177.826 64.85 177.81C64.85 177.765 64.85 176.645 65.275 176.27C65.3275 176.223 65.3894 176.187 65.4566 176.166C65.5238 176.144 65.5949 176.137 65.665 176.145C65.7387 176.146 65.8098 176.172 65.8663 176.22C65.9228 176.267 65.9612 176.333 65.975 176.405C66.065 176.84 65.355 177.68 64.975 177.905C64.9623 177.903 64.9503 177.898 64.94 177.89ZM65.605 176.31C65.5292 176.311 65.4562 176.339 65.4 176.39C65.1542 176.752 65.0282 177.182 65.04 177.62C65.41 177.32 65.85 176.69 65.795 176.425C65.795 176.38 65.76 176.33 65.645 176.315L65.605 176.31Z" fill="#0053CC"/>
<path d="M83.6549 178.025C83.2429 178.019 82.8326 177.972 82.4299 177.885C82.4107 177.883 82.3929 177.874 82.3792 177.861C82.3656 177.847 82.357 177.829 82.3549 177.81C82.3527 177.791 82.3563 177.772 82.3652 177.755C82.3741 177.738 82.3879 177.724 82.4049 177.715C82.5799 177.625 84.1299 176.835 84.6049 177.095C84.6506 177.118 84.6893 177.153 84.7174 177.196C84.7455 177.239 84.7618 177.289 84.7649 177.34C84.7758 177.422 84.766 177.506 84.7363 177.584C84.7066 177.662 84.658 177.731 84.5949 177.785C84.3184 177.971 83.9865 178.055 83.6549 178.025ZM82.7349 177.755C83.5999 177.9 84.2349 177.86 84.4749 177.65C84.5147 177.613 84.5451 177.567 84.5634 177.515C84.5816 177.464 84.5873 177.409 84.5799 177.355C84.5797 177.334 84.574 177.314 84.5635 177.297C84.5529 177.279 84.5379 177.265 84.5199 177.255C84.2599 177.115 83.3699 177.45 82.7349 177.755Z" fill="#0053CC"/>
<path d="M82.4449 177.89C82.437 177.893 82.4285 177.895 82.4199 177.895C82.4113 177.895 82.4028 177.893 82.3949 177.89C82.3805 177.883 82.3689 177.871 82.3617 177.857C82.3545 177.842 82.3521 177.826 82.3549 177.81C82.3549 177.765 82.4499 176.715 82.9349 176.31C83.0742 176.193 83.2537 176.136 83.4349 176.15C83.6899 176.175 83.7599 176.305 83.7799 176.41C83.8499 176.85 82.9349 177.69 82.4699 177.91L82.4449 177.89ZM83.3749 176.31C83.2575 176.311 83.1442 176.354 83.0549 176.43C82.7681 176.769 82.5934 177.188 82.5549 177.63C83.0249 177.345 83.6499 176.685 83.6049 176.42C83.6049 176.42 83.6049 176.33 83.4249 176.315L83.3749 176.31Z" fill="#0053CC"/>
<path d="M73.9998 59.77C74.3048 62.105 74.9998 66.84 73.3098 68.27C73.3098 68.27 73.8098 70.65 78.0698 70.925C82.7798 71.23 80.4698 68.735 80.4698 68.735C77.9398 67.955 78.1298 66.05 78.6948 64.29L73.9998 59.77Z" fill="#FF8B7B"/>
<path d="M82.735 55.025C82.705 55.0243 82.6757 55.0157 82.65 55C82.6282 54.989 82.6089 54.9736 82.5933 54.9549C82.5776 54.9362 82.5659 54.9145 82.5589 54.8911C82.5518 54.8677 82.5497 54.8432 82.5524 54.8189C82.5552 54.7946 82.5629 54.7712 82.575 54.75C82.7049 54.4855 82.8969 54.2564 83.1346 54.0822C83.3723 53.9081 83.6487 53.7941 83.94 53.75C83.9848 53.7517 84.0274 53.7696 84.0599 53.8004C84.0925 53.8311 84.1128 53.8726 84.117 53.9172C84.1213 53.9618 84.1093 54.0064 84.0832 54.0428C84.057 54.0791 84.0186 54.1048 83.975 54.115C83.747 54.1548 83.5314 54.2469 83.3449 54.3839C83.1584 54.521 83.0061 54.6993 82.9 54.905C82.8858 54.938 82.863 54.9665 82.834 54.9876C82.8049 55.0087 82.7708 55.0216 82.735 55.025Z" fill="#0F264C"/>
<path d="M84.0798 57.075C84.4243 57.7617 84.8618 58.3976 85.3798 58.9649C85.2313 59.0941 85.0563 59.1892 84.8672 59.2436C84.678 59.298 84.4793 59.3104 84.2848 59.2799L84.0798 57.075Z" fill="#FF5652"/>
<path d="M83.7499 56.5649C83.7799 56.8799 83.9699 57.1149 84.1699 57.0949C84.3699 57.0749 84.5199 56.8099 84.4899 56.4949C84.4599 56.1799 84.2699 55.9449 84.0649 55.9649C83.8599 55.9849 83.7199 56.2549 83.7499 56.5649Z" fill="#0F264C"/>
<path d="M84 55.99L84.73 55.705C84.73 55.705 84.38 56.325 84 55.99Z" fill="#0F264C"/>
<path d="M78.165 177.795H82.06L82.32 168.78H78.425L78.165 177.795Z" fill="#FF8B7B"/>
<path d="M60.48 177.795H64.375L65.625 168.78H61.735L60.48 177.795Z" fill="#FF8B7B"/>
<path d="M64.615 177.345H60.24C60.165 177.344 60.0922 177.371 60.0352 177.419C59.9782 177.468 59.9408 177.536 59.93 177.61L59.43 181.07C59.4201 181.157 59.4288 181.246 59.4555 181.33C59.4821 181.413 59.5261 181.49 59.5846 181.556C59.6431 181.622 59.7148 181.674 59.795 181.71C59.8752 181.746 59.9621 181.765 60.05 181.765C61.55 181.74 62.31 181.65 64.235 181.65C65.415 181.65 67.145 181.77 68.78 181.77C70.415 181.77 70.5 180.155 69.82 180.01C66.77 179.355 66.29 178.45 65.26 177.585C65.0801 177.431 64.8516 177.346 64.615 177.345Z" fill="#14365B"/>
<path d="M82.19 177.345H77.82C77.7447 177.343 77.6714 177.369 77.6141 177.418C77.5569 177.467 77.5198 177.535 77.51 177.61L77.01 181.07C77.0009 181.158 77.0102 181.246 77.0375 181.33C77.0647 181.414 77.1093 181.491 77.1681 181.556C77.227 181.622 77.299 181.674 77.3794 181.71C77.4598 181.746 77.5469 181.765 77.635 181.765C79.135 181.74 79.895 181.65 81.815 181.65C83 181.65 85.445 181.77 87.08 181.77C88.715 181.77 88.8 180.155 88.12 180.01C85.07 179.355 83.8699 178.45 82.8399 177.585C82.6588 177.43 82.4283 177.345 82.19 177.345Z" fill="#14365B"/>
<path d="M82.315 168.785L82.185 173.43H78.29L78.425 168.785H82.315Z" fill="#EA7063"/>
<path d="M61.73 168.785H65.625L64.98 173.43H61.085L61.73 168.785Z" fill="#EA7063"/>
<path d="M69.7398 75.385C69.0006 76.5399 68.1444 77.6155 67.1848 78.595L66.7398 78.3L61.8098 75.025C61.8098 75.025 64.4998 69.025 66.5248 68.72C68.4598 68.41 69.8698 70.41 70.5248 72.55C70.7748 73.325 70.3598 74.375 69.7398 75.385Z" fill="#9FC6FF"/>
<path d="M69.74 75.385C69.0008 76.5398 68.1446 77.6155 67.185 78.595L66.74 78.3C66.96 76.5 67.66 74.715 68.46 74.15C68.95 74.2 69.385 74.72 69.74 75.385Z" fill="#77B3FC"/>
<path d="M86.6049 78.38C86.3699 79.88 86.0649 81.645 85.6549 83.74C85.1549 86.42 84.4549 89.635 83.5699 93.48L67.7949 92.48C68.4749 86.075 68.7399 82.115 66.5249 68.74C68.7644 68.4272 71.0237 68.2785 73.2849 68.295C75.6796 68.2793 78.0724 68.4347 80.4449 68.76C83.5049 69.26 86.9449 70.18 86.9449 70.18C86.9449 70.18 87.8249 70.525 86.6049 78.38Z" fill="#9FC6FF"/>
<path d="M86.605 78.38C86.37 79.88 86.065 81.645 85.655 83.74C84.7874 81.8946 84.0668 79.9837 83.5 78.025H86.43L86.605 78.38Z" fill="#77B3FC"/>
<path d="M73.14 56.485C73.735 60.3 73.91 61.93 76.035 63.715C79.23 66.405 83.785 64.835 84.34 60.915C84.84 57.39 83.78 51.74 79.875 50.57C79.0161 50.3064 78.104 50.2671 77.2255 50.4557C76.347 50.6443 75.5315 51.0545 74.8564 51.6474C74.1813 52.2403 73.6692 52.9961 73.3687 53.8429C73.0683 54.6896 72.9896 55.5992 73.14 56.485Z" fill="#FF8B7B"/>
<path d="M79.3999 93.21C79.3999 93.21 79.1499 100.155 78.5499 108.915C78.0499 116.265 77.2949 124.885 76.2399 131.755L76.2099 131.945C74.3149 144.105 65.9199 172.525 65.9199 172.525H60.6099C60.6099 172.525 64.9849 145.075 65.9449 133.025C68.3799 102.59 62.2799 99.145 67.7949 92.435L79.3999 93.21Z" fill="#6454C3"/>
<path d="M78.5499 108.915C78.0499 116.265 77.2949 124.885 76.2399 131.755C74.4449 122.83 71.4949 109.795 75.4549 101.255C76.3999 103.68 77.4999 106.42 78.5499 108.915Z" fill="#46379E"/>
<path d="M83.5699 93.485C83.5699 93.485 88.0699 120.155 87.7999 132.025C87.5349 144.375 83.0099 172.525 83.0099 172.525H77.7499C77.7499 172.525 78.5799 145.09 78.1149 132.965C77.6149 119.745 72.0149 92.73 72.0149 92.73L83.5699 93.485Z" fill="#6454C3"/>
<path d="M76.8499 172.775H83.9049L84.4549 170.41L76.5999 170.46L76.8499 172.775Z" fill="#0F264C"/>
<path d="M59.8398 172.775H66.8948L67.4448 170.41L59.8898 170.46L59.8398 172.775Z" fill="#0F264C"/>
<path d="M67.615 91.525L66.815 92.895C66.75 93 66.875 93.12 67.055 93.13L83.6 94.205C83.74 94.205 83.865 94.155 83.88 94.065L84.115 92.66C84.115 92.565 84.01 92.475 83.855 92.465L67.855 91.425C67.8101 91.423 67.7653 91.4309 67.7238 91.4481C67.6823 91.4654 67.6452 91.4917 67.615 91.525Z" fill="#0F264C"/>
<path d="M69.6449 93.445L69.2199 93.415C69.1349 93.415 69.0699 93.36 69.0799 93.31L69.3999 91.485C69.3999 91.435 69.4849 91.395 69.5699 91.4L69.9999 91.425C70.0849 91.425 70.1449 91.48 70.1399 91.535L69.8199 93.355C69.8099 93.41 69.7299 93.45 69.6449 93.445Z" fill="#0053CC"/>
<path d="M79.9999 94.115L79.5749 94.09C79.4899 94.09 79.4249 94.035 79.4349 93.98L79.7549 92.16C79.7549 92.105 79.8399 92.07 79.9299 92.075L80.3549 92.1C80.4399 92.1 80.5049 92.155 80.4949 92.21L80.1749 94.03C80.1799 94.085 80.0999 94.12 79.9999 94.115Z" fill="#0053CC"/>
<path d="M87.84 74.18C88.44 76.18 89.01 78.205 89.565 80.225L91.24 86.27L91.45 87.02L91.505 87.205L91.53 87.3V87.35C91.5479 87.4162 91.5696 87.4813 91.595 87.545C91.7177 87.8489 91.8863 88.1322 92.095 88.385C92.692 89.0151 93.3836 89.5481 94.145 89.965C95.8892 90.909 97.7342 91.6537 99.645 92.185L99.355 94.135C97.1129 94.0195 94.9043 93.5416 92.815 92.72C91.6589 92.2669 90.5936 91.6098 89.67 90.78C89.1409 90.2896 88.701 89.711 88.37 89.07C88.2806 88.8967 88.2021 88.7181 88.135 88.535L88.08 88.4L88.045 88.305L87.98 88.12L87.715 87.365C87.015 85.365 86.365 83.365 85.75 81.335C85.135 79.305 84.53 77.305 83.98 75.265L87.84 74.18Z" fill="#FF8B7B"/>
<path d="M86.945 70.16C88.945 70.815 91.045 77.355 91.045 77.355L83.825 80.465C83.825 80.465 80.825 73.125 82.155 71.465C83.485 69.805 84.65 69.41 86.945 70.16Z" fill="#9FC6FF"/>
<path d="M83.085 50.35C81.81 48.775 71.96 47.65 71.435 51.94C67.935 54.39 71.255 60.72 71.755 62.33C69.34 63 61.56 65.66 67.255 70.83C72.95 76 81.49 75.12 83.16 69.77C84.33 66.03 80.615 59.77 80.695 57.58C80.775 55.39 85.27 53.025 83.085 50.35Z" fill="#0F264C"/>
<path d="M72.4448 63.12C72.4266 63.1205 72.4084 63.1168 72.3919 63.1089C72.3754 63.1011 72.361 63.0895 72.3498 63.075C71.4448 61.975 68.2948 56.195 69.3998 53.445C69.5712 53.0183 69.8618 52.65 70.2368 52.384C70.6118 52.118 71.0555 51.9656 71.5148 51.945C71.531 51.9429 71.5474 51.9441 71.5631 51.9486C71.5788 51.953 71.5934 51.9606 71.606 51.9709C71.6186 51.9812 71.629 51.994 71.6366 52.0084C71.6441 52.0229 71.6486 52.0387 71.6498 52.055C71.6541 52.0874 71.6456 52.1202 71.6259 52.1464C71.6063 52.1726 71.5772 52.19 71.5448 52.195C71.1319 52.2102 70.7319 52.3436 70.3925 52.5794C70.053 52.8151 69.7884 53.1433 69.6298 53.525C68.5648 56.185 71.6548 61.825 72.5398 62.91C72.5556 62.9276 72.5659 62.9495 72.5693 62.9729C72.5727 62.9963 72.5691 63.0202 72.5589 63.0416C72.5488 63.063 72.5325 63.0809 72.5122 63.093C72.4919 63.1052 72.4685 63.1111 72.4448 63.11V63.12Z" fill="#0F264C"/>
<path d="M79.915 57.345C80.0266 58.0752 80.3785 58.7473 80.915 59.255C81.625 59.935 82.295 59.47 82.36 58.605C82.42 57.83 82.12 56.545 81.28 56.185C80.44 55.825 79.81 56.48 79.915 57.345Z" fill="#FF8B7B"/>
<path d="M97.195 91.645L100.035 90.68L99.59 94.095C99.59 94.095 98.47 94.595 97.02 93.335L95.635 92.45L96.725 91.855C96.8745 91.7699 97.0319 91.6995 97.195 91.645Z" fill="#FF8B7B"/>
<path d="M102.02 90.67L101.15 93.655L99.5898 94.09L100.035 90.68L102.02 90.67Z" fill="#FF8B7B"/>
</g>
<defs>
</defs>
</svg>
