<svg viewBox="0 0 30 30" xmlns="http://www.w3.org/2000/svg">
<path d="M7.8125 3.75C5.5725 3.75 3.75 5.5725 3.75 7.8125V22.1875C3.75 24.4275 5.5725 26.25 7.8125 26.25H15.0281C14.6575 25.6712 14.3575 25.0419 14.1418 24.375H7.8125C6.60625 24.375 5.625 23.3937 5.625 22.1875V10.625H24.375V14.1418C25.0419 14.3575 25.6712 14.6568 26.25 15.0281V7.8125C26.25 5.5725 24.4275 3.75 22.1875 3.75H7.8125ZM7.8125 5.625H22.1875C23.3937 5.625 24.375 6.60625 24.375 7.8125V8.75H5.625V7.8125C5.625 6.60625 6.60625 5.625 7.8125 5.625ZM9.6875 13.125C9.2731 13.125 8.87567 13.2896 8.58265 13.5826C8.28962 13.8757 8.125 14.2731 8.125 14.6875C8.125 15.1019 8.28962 15.4993 8.58265 15.7924C8.87567 16.0854 9.2731 16.25 9.6875 16.25C10.1019 16.25 10.4993 16.0854 10.7924 15.7924C11.0854 15.4993 11.25 15.1019 11.25 14.6875C11.25 14.2731 11.0854 13.8757 10.7924 13.5826C10.4993 13.2896 10.1019 13.125 9.6875 13.125ZM15 13.125C14.5856 13.125 14.1882 13.2896 13.8951 13.5826C13.6021 13.8757 13.4375 14.2731 13.4375 14.6875C13.4375 15.1019 13.6021 15.4993 13.8951 15.7924C14.1882 16.0854 14.5856 16.25 15 16.25C15.4144 16.25 15.8118 16.0854 16.1049 15.7924C16.3979 15.4993 16.5625 15.1019 16.5625 14.6875C16.5625 14.2731 16.3979 13.8757 16.1049 13.5826C15.8118 13.2896 15.4144 13.125 15 13.125ZM21.875 15C18.0781 15 15 18.0781 15 21.875C15 25.6719 18.0781 28.75 21.875 28.75C25.6719 28.75 28.75 25.6719 28.75 21.875C28.75 18.0781 25.6719 15 21.875 15ZM21.875 16.875C22.2206 16.875 22.5 17.155 22.5 17.5V18.1348C23.465 18.1835 24.0805 18.7344 24.2749 19.0356C24.4624 19.3256 24.3794 19.713 24.0894 19.8999C23.7987 20.0855 23.4113 20.0044 23.2251 19.7144C23.2232 19.7144 22.9538 19.375 22.3669 19.375H21.4062C20.8894 19.375 20.4688 19.7956 20.4688 20.3125C20.4688 20.8294 20.8894 21.25 21.4062 21.25H22.5C23.7062 21.25 24.6875 22.2313 24.6875 23.4375C24.6875 24.6437 23.7062 25.625 22.5 25.625V26.25C22.5 26.595 22.2206 26.875 21.875 26.875C21.5294 26.875 21.25 26.595 21.25 26.25V25.6226C20.4725 25.6169 19.7612 25.3325 19.2456 24.8169C19.0012 24.5725 19.0012 24.1787 19.2456 23.9343C19.49 23.69 19.885 23.69 20.1294 23.9343C20.3306 24.135 20.6926 24.375 21.2732 24.375H22.5C23.0169 24.375 23.4375 23.9544 23.4375 23.4375C23.4375 22.9206 23.0169 22.5 22.5 22.5H21.4062C20.2 22.5 19.2188 21.5187 19.2188 20.3125C19.2188 19.16 20.1181 18.2227 21.25 18.1409V17.5C21.25 17.155 21.5294 16.875 21.875 16.875ZM9.6875 18.75C9.2731 18.75 8.87567 18.9146 8.58265 19.2076C8.28962 19.5007 8.125 19.8981 8.125 20.3125C8.125 20.7269 8.28962 21.1243 8.58265 21.4174C8.87567 21.7104 9.2731 21.875 9.6875 21.875C10.1019 21.875 10.4993 21.7104 10.7924 21.4174C11.0854 21.1243 11.25 20.7269 11.25 20.3125C11.25 19.8981 11.0854 19.5007 10.7924 19.2076C10.4993 18.9146 10.1019 18.75 9.6875 18.75Z" />
</svg>
