<svg viewBox="0 0 26 26" xmlns="http://www.w3.org/2000/svg">
  <path d="M25.25 20.2484H18.1249C16.5396 20.2484 15.25 21.5379 15.25 23.1233C15.25 23.8814 14.6331 24.4983 13.875 24.4983H2.87509C2.11674 24.4983 1.50003 23.8814 1.50003 23.1233V22.1221C1.50003 21.3644 2.11655 20.7476 2.8743 20.7472L4.85655 20.7463C4.85715 20.7463 4.85794 20.7461 4.85854 20.7461C4.88115 20.7461 4.90376 20.7447 4.92657 20.7427C4.9359 20.7419 4.94502 20.7403 4.95435 20.7391C4.96407 20.7377 4.97398 20.7369 4.9837 20.7353L10.2771 19.8223C10.2798 19.8217 10.2824 19.8211 10.285 19.8205C10.2933 19.8189 10.3015 19.8171 10.3096 19.8153C10.3229 19.8124 10.336 19.8094 10.3489 19.8056C10.358 19.8032 10.3671 19.8005 10.3762 19.7977C10.3883 19.7937 10.4004 19.7895 10.4125 19.785C10.4213 19.7816 10.4302 19.7786 10.4389 19.7751C10.4576 19.7671 10.4758 19.7588 10.4939 19.7495C10.501 19.7457 10.5081 19.7413 10.5153 19.7374C10.528 19.7302 10.5405 19.7231 10.5528 19.7152C10.5603 19.7104 10.5679 19.7052 10.5754 19.7001C10.5873 19.6918 10.5992 19.683 10.6107 19.6739C10.6169 19.6691 10.6232 19.6644 10.6293 19.6592C10.6468 19.6447 10.6639 19.6297 10.6799 19.6134L24.0489 6.24464C24.0489 6.24464 24.0487 6.24484 24.0489 6.24464C25.121 5.17248 25.121 3.42787 24.0489 2.35551L22.4969 0.803705C21.4247 -0.268652 19.6799 -0.268454 18.6078 0.803705L5.239 14.1725C5.22273 14.1885 5.20766 14.2058 5.19298 14.2232C5.18802 14.2292 5.18326 14.2353 5.1785 14.2415C5.16937 14.2532 5.16064 14.2651 5.15231 14.2772C5.14716 14.2845 5.142 14.2921 5.13724 14.2996C5.1295 14.3117 5.12236 14.324 5.11542 14.3365C5.11086 14.3446 5.10609 14.3528 5.10173 14.3609C5.093 14.3782 5.08507 14.3954 5.07753 14.4133C5.07376 14.4222 5.07059 14.4315 5.06702 14.4407C5.06285 14.4522 5.05869 14.4639 5.05492 14.4756C5.05194 14.4851 5.04916 14.4946 5.04659 14.5041C5.04321 14.5164 5.04024 14.5289 5.03746 14.5416C5.03548 14.5503 5.03349 14.5591 5.03191 14.5678C5.03131 14.5704 5.03072 14.5728 5.03032 14.5751L4.22437 19.2466L2.8735 19.2472C1.28897 19.248 0 20.5378 0 22.1221V23.1233C0 24.7086 1.28976 25.9983 2.87509 25.9983H13.875C15.4603 25.9983 16.7501 24.7086 16.7501 23.1233C16.7501 22.3651 17.3668 21.7482 18.1249 21.7482H25.25C25.6642 21.7482 26 21.4126 26 20.9984C26 20.584 25.6642 20.2484 25.25 20.2484ZM6.26236 16.2565L8.59592 18.59L5.77597 19.0764L6.26236 16.2565ZM17.4495 4.08306L18.579 5.21255L7.95937 15.8322L6.82988 14.7027L17.4495 4.08306ZM10.1495 18.0223L9.02002 16.8928L19.6398 6.2732L20.7693 7.40269L10.1495 18.0223ZM19.6684 1.86416C20.1558 1.37698 20.9487 1.37698 21.4362 1.86416L22.988 3.41616C23.4754 3.90354 23.4754 4.6966 22.988 5.18398L21.8298 6.34223C21.8298 6.34204 21.83 6.34223 21.83 6.34223C21.83 6.34223 21.83 6.34223 21.8298 6.34223L18.5102 3.02241L19.6684 1.86416Z" />
</svg>