<svg viewBox="0 0 20 20" xmlns="http://www.w3.org/2000/svg">
<path d="M15 2.50488C14.3604 2.50488 13.7158 2.74414 13.2324 3.23242H13.2275L3.82812 12.793L2.13867 17.8662L7.20703 16.1719L7.31445 16.0693L16.7676 6.76758C17.7393 5.7959 17.7393 4.2041 16.7676 3.23242C16.2842 2.74902 15.6396 2.50488 15 2.50488ZM15 3.75C15.3174 3.75 15.6348 3.86719 15.8838 4.11621C16.377 4.60938 16.377 5.39063 15.8838 5.88379L14.8975 6.85547C14.7607 6.51856 14.541 6.15723 14.1943 5.81055C13.8428 5.45899 13.4814 5.24414 13.1445 5.10742L14.1211 4.11133C14.3652 3.87207 14.6826 3.74512 15 3.75ZM12.3193 6.16211C12.5488 6.18164 12.8857 6.26953 13.3057 6.68945C13.7305 7.11426 13.8184 7.45117 13.8428 7.68066C13.8574 7.85645 13.833 7.88086 13.8232 7.91016L7.36328 14.2627C7.22656 13.9551 7.01172 13.6279 6.68945 13.3057C6.37207 12.9883 6.04492 12.7734 5.73242 12.6367L12.0898 6.18164C12.1191 6.16699 12.1436 6.14746 12.3193 6.16211ZM4.87305 13.6719C5.06836 13.6865 5.38086 13.7646 5.81055 14.1943C6.23535 14.6191 6.31348 14.9316 6.32812 15.1221C6.32812 15.1465 6.32324 15.1318 6.32812 15.1514L5.13672 15.5469C5.03906 15.4248 4.93652 15.3027 4.81445 15.1807C4.69727 15.0635 4.57519 14.9609 4.45312 14.8682L4.85352 13.6719C4.86816 13.6768 4.85352 13.6719 4.87305 13.6719Z" />
</svg>
