<svg width="338" height="269" viewBox="0 0 338 269" fill="none" xmlns="http://www.w3.org/2000/svg">
<path d="M13.6597 184.527C13.6597 184.527 13.47 183.602 13.4225 183.294C13.3751 182.939 13.3277 181.824 13.3277 181.824C13.3277 181.824 13.3277 177.959 13.6122 177.983C13.8968 178.006 14.2763 178.67 14.3475 178.907C14.4423 179.145 14.5609 179.405 14.6321 179.666C14.7269 179.903 14.9641 180.046 15.2724 179.951C15.5807 179.856 15.4384 178.836 15.3436 178.504C14.9878 177.437 13.4462 174.758 13.3039 174.45C13.1379 174.094 14.3712 167.407 14.6083 165.06C15.1064 161.266 15.8179 157.377 15.889 156.974L22.672 141.988L18.1421 137.364C18.1421 137.364 10.3868 153.867 10.1022 154.745C9.95991 155.148 9.46186 164.064 9.48557 164.064C9.50929 168.474 9.55672 172.339 9.55672 173.098C9.55672 173.098 8.91638 175.327 8.41833 176.702C7.92028 178.101 8.03887 179.571 7.96772 179.975C7.96772 180.046 7.61197 181.445 7.84913 183.199C8.06258 184.717 8.56063 183.176 8.56063 183.176C8.56063 183.176 8.67921 180.306 8.91638 180.354C9.08239 180.401 8.91638 181.966 9.12983 183.626C9.17726 184.053 9.24841 184.48 9.29584 184.883C9.43814 185.903 10.1022 186.116 10.1259 185.002C10.1259 184.622 10.1259 183.982 10.0785 183.508C10.0073 183.01 10.1022 182.535 10.1022 182.109C10.1022 181.255 10.1022 180.638 10.1496 180.662C10.1971 180.686 10.3156 180.52 10.3868 180.97C10.4817 181.516 10.3868 182.725 10.5765 183.531C10.6951 183.982 10.8374 184.93 10.8374 184.93C10.8374 184.93 11.288 186.448 11.3592 186.448C11.8572 186.424 11.8572 185.239 11.6438 184.646C11.6912 184.195 11.5015 183.199 11.5015 183.199C11.5015 183.199 11.5489 181.065 11.8572 181.065C12.0944 181.065 12.9719 186.163 13.4699 186.092C13.8494 186.069 13.6597 184.527 13.6597 184.527Z" fill="#FB9390"/>
<path d="M19.8971 150.666C19.8971 150.666 17.0749 150.192 15.6044 149.623C13.6122 148.888 12.3078 148.224 12.3078 148.224C12.3078 148.224 14.4898 138.882 17.2172 133.214C18.3318 130.867 19.4939 129.729 21.0592 129.468C21.0592 129.468 24.4033 131.673 24.2847 136.961C24.2373 138.194 19.8971 150.666 19.8971 150.666Z" fill="#E8605D"/>
<path d="M28.5536 182.062L32.206 215.591C32.206 215.591 30.4273 222.68 30.6407 224.696C30.8542 226.712 34.6014 253.127 34.6014 253.127L34.4354 254.621V259.008H48.3332C48.3332 259.008 45.3924 257.656 41.242 254.953C40.9337 254.763 40.2222 254.123 40.0562 252.866C38.9652 244.733 41.1234 217.559 41.1234 217.559L42.831 182.204L28.5536 182.062Z" fill="#FB9390"/>
<path d="M17.3595 189.104C16.5768 189.317 15.3673 218.128 14.7032 219.408C10.5765 227.518 9.60414 252.131 9.60414 252.131L8.3946 255.64L7.11391 259.932C7.11391 259.932 11.2406 261.07 13.3988 259.837L13.1616 255.593L12.9482 251.704L23.3597 221.021L29.0517 189.721L17.3595 189.104Z" fill="#FB9390"/>
<path d="M38.064 133.261C36.3801 130.89 29.4549 124.061 28.696 124.085C26.4429 124.132 19.0908 124.132 17.6441 124.891V126.503C17.6915 133.712 18.5927 140.873 20.4189 147.844C21.6759 152.705 22.8854 157.898 22.7194 159.748L22.7431 159.771C27.0121 164.016 33.7239 163.66 37.6134 159.036C37.6134 159.036 37.5897 153.867 38.2063 149.172C39.1787 141.798 42.2381 139.142 38.064 133.261Z" fill="#FA7167"/>
<path d="M26.4429 116.758C26.4429 116.758 26.6326 121.571 26.2294 123.374C25.8025 125.199 25.2571 125.342 28.862 125.887C30.285 126.1 31.6368 126.432 31.6368 126.432C31.6368 126.432 31.2573 123.753 31.2099 122.638C31.115 120.789 31.6368 115.027 31.6368 115.027L26.4429 116.758Z" fill="#FB9390"/>
<path d="M29.1703 119.153C29.9055 119.556 30.5933 119.817 31.2336 119.912C31.3522 117.635 31.5894 115.051 31.5894 115.051L26.6563 116.687C27.2493 117.659 28.0556 118.513 29.1703 119.153Z" fill="#EF7F7F"/>
<path d="M27.5813 103.289C27.5813 103.289 25.5179 104.024 24.3795 106.276C23.2411 108.529 22.8143 114.908 27.2967 117.397C29.5023 118.63 32.0637 118.868 33.2732 117.777C34.5065 116.662 34.3405 114.22 34.2219 112.181C33.9847 108.126 33.0835 102.008 27.5813 103.289Z" fill="#FB9390"/>
<path d="M24.2847 111.28C24.5456 112.347 24.1898 113.367 23.5258 113.58C22.8617 113.794 22.1028 113.082 21.8419 112.015C21.581 110.948 21.9368 109.929 22.6008 109.715C23.2649 109.526 24.0238 110.237 24.2847 111.28Z" fill="#F7A491"/>
<path d="M13.1853 255.617C11.288 256.494 9.2484 255.949 8.44203 255.664L7.11391 259.98C7.11391 259.98 11.2643 261.213 13.4225 259.98L13.1853 255.617Z" fill="#FA7167"/>
<path d="M34.2931 260.074H48.7602C49.3056 260.027 49.4242 259.576 49.2345 259.292C48.855 258.723 47.1712 258.296 45.2738 257.395C41.9535 257.75 34.9809 255.403 34.4354 254.597C34.1271 256.209 33.9848 260.003 34.2931 260.074Z" fill="#FA7167"/>
<path d="M63.3221 144.193C63.6067 143.814 64.5317 141.893 64.5317 141.893C64.5317 141.893 65.504 138.621 65.2906 138.668C65.172 138.692 64.7688 139.166 64.2945 140.138C64.0099 140.731 63.6779 141.798 63.3933 142.32C62.8715 143.244 62.2786 143.624 62.4209 143.268C62.5158 143.007 62.8952 142.794 63.2035 142.249C63.9862 140.921 64.6503 138.739 64.3657 138.763C64.1048 138.81 63.3458 140.304 62.5395 141.466C62.1837 141.988 61.1639 142.628 60.4998 143.031C60.4998 142.746 60.5947 142.462 60.6422 142.32C60.7133 142.059 61.8754 140.541 61.4248 140.352C60.9742 140.162 58.2468 143.458 58.2468 143.458L57.1321 145.379L57.0372 145.45C57.0372 145.45 43.4002 150.785 42.9496 150.643C41.8824 150.311 38.2063 139.688 38.2063 139.688L30.5696 141.063C30.451 140.992 38.5858 156.879 40.1036 157.638C41.4318 158.325 55.6143 150.927 58.2705 149.362C61.9466 147.939 63.3696 146.28 63.9625 145.402C64.2708 144.952 65.504 142.936 65.504 142.936C65.504 142.936 65.7649 140.162 65.5752 140.138C64.9111 140.067 64.7214 142.675 64.7214 142.675C64.7214 142.675 63.8202 143.908 63.6542 144.074C63.251 144.501 63.3221 144.193 63.3221 144.193Z" fill="#FB9390"/>
<path d="M25.6365 130.44C24.593 134.85 30.1427 144.691 30.1427 144.691C30.1427 144.691 38.064 140.849 39.4395 139.19C39.4395 139.19 33.9847 130.179 33.6527 129.586C32.9175 128.306 30.3561 125.697 28.6248 126.172C27.5338 126.504 25.6365 130.44 25.6365 130.44Z" fill="#E8605D"/>
<path d="M26.8935 119.556C27.4864 115.501 34.1982 107.249 31.6131 103.811C29.526 101.013 25.85 101.867 23.5257 102.649C12.9482 106.277 13.5648 119.58 10.2208 121.642C4.17305 125.413 0.449554 127.76 0.022656 136.249C-0.499108 146.327 8.06256 151.449 18.3318 148.983C23.8578 147.655 25.3282 145.853 27.5338 140.636C28.5299 138.288 30.5458 130.938 30.0004 127.357C29.5023 124.18 26.4192 122.828 26.8935 119.556Z" fill="#0B0754"/>
<path d="M30.9016 112.158C30.9016 113.367 30.4747 114.339 29.9292 114.339C29.3837 114.339 28.9568 113.367 28.9568 112.158C28.9568 110.948 29.3837 109.976 29.9292 109.976C30.4747 109.976 30.9016 110.948 30.9016 112.158Z" fill="#FB9390"/>
<path d="M44.1591 203.876L44.6572 183.982C44.752 178.362 43.6374 172.79 41.408 167.668L37.6371 159.037C36.1192 159.535 34.6725 159.961 33.0835 160.151C29.5972 160.554 26.182 160.151 22.7194 159.748C22.7194 159.89 22.6957 160.009 22.672 160.104C22.0553 163.044 18.5453 169.565 17.0748 178.481C15.4147 188.606 14.7743 203.758 14.9878 204.967C30.9965 205.678 34.7911 206.248 44.1591 203.876Z" fill="#92B5F9"/>
<path d="M243.212 104.285L255.236 116.307C255.236 116.307 278.147 125.27 280.708 130.772C283.269 136.273 278.407 136.012 273.024 135.253C267.64 134.494 252.414 125.01 252.414 125.01L238.469 108.885L243.212 104.285Z" fill="#4951EC"/>
<path d="M278.431 128.377L275.443 127.31L269.68 129.989C269.68 129.989 266.691 132.005 265.268 137.008C263.822 142.011 265.268 171.865 267.664 176.655C270.083 181.468 278.431 128.377 278.431 128.377Z" fill="#BED1F9"/>
<path d="M297.333 248.123C297.333 248.123 299.444 249.475 299.634 250.115C299.8 250.731 301.365 257.537 300.772 258.319C300.203 259.102 298.068 258.722 298.899 259.291C299.515 259.718 303.547 260.05 306.108 259.363C306.867 259.149 306.512 252.818 306.63 251.846C306.796 250.447 307.769 247.269 307.176 246.439C306.891 246.036 305.231 245.325 303.76 244.756C302.195 244.139 300.464 242.432 300.464 242.432L297.333 248.123Z" fill="#FB9390"/>
<path d="M303.618 244.662C303.618 244.662 302.361 256.707 300.914 257.585C300.535 257.822 298.472 257.988 298.282 258.984C298.282 259.007 298.234 260.003 298.851 260.027L306.654 260.003C306.654 260.003 306.725 254.075 306.678 251.775C306.678 251.775 307.745 245.847 307.413 245.42C307.033 244.97 303.618 244.662 303.618 244.662Z" fill="#0B0754"/>
<path d="M327.856 248.123C327.856 248.123 329.967 249.475 330.157 250.115C330.323 250.731 331.888 257.537 331.295 258.319C330.702 259.102 328.592 258.722 329.422 259.291C330.038 259.718 334.07 260.05 336.632 259.363C337.39 259.149 337.035 252.818 337.153 251.846C337.319 250.447 338.292 247.269 337.699 246.439C337.414 246.036 335.754 245.325 334.284 244.756C332.718 244.139 330.987 242.432 330.987 242.432L327.856 248.123Z" fill="#FB9390"/>
<path d="M289.53 169.896C289.53 169.896 296.669 184.053 298.116 187.87L308.978 215.448L332.955 243.641C332.955 243.641 331.2 248.17 328.544 249.38C328.544 249.38 299.634 226.047 297.262 222.372C293.633 216.775 277.127 182.44 277.127 182.44L274.067 175.848L289.53 169.896Z" fill="#0B0754"/>
<path d="M272.289 169.73L272.407 181.8C272.407 181.8 267.237 221.257 268.257 223.604C270.7 229.319 297.523 248.692 297.523 248.692L301.175 242.408L281.918 220.901L289.222 199.963C291.262 195.102 295.602 185.712 295.507 180.425C295.412 175.896 286.447 165.438 286.447 165.438L272.289 169.73Z" fill="#1A175B"/>
<path d="M283.246 187.586C290.361 185.974 296.1 183.46 296.693 181.492C296.954 180.591 292.993 171.581 290.076 159.559C289.127 155.622 289.293 151.947 287.775 138.17C287.443 135.254 286.234 129.136 281.728 127.547C280.139 127.002 279.261 127.073 279.261 127.073C279.214 127.073 273.498 127.12 270.889 128.567C270.249 129.444 267.83 134.234 267.19 147.299C266.905 152.99 265.767 171.296 266.004 174.284C266.027 174.734 266.075 175.161 266.146 175.564C267.166 183.46 275.467 189.365 283.246 187.586Z" fill="#4951EC"/>
<path d="M270.7 137.506C270.7 137.506 270.7 137.483 270.7 137.506C273.617 137.175 280.898 127.642 280.898 127.642L280.874 127.619L276.368 120.505C276.368 120.505 269.751 121.714 271.032 123.73C272.336 125.745 273.047 130.583 273.047 130.583C273.024 130.63 273 130.701 272.953 130.796C272.526 131.744 271.055 134.685 270.7 137.506Z" fill="#FB9390"/>
<path d="M271.055 123.706C269.751 121.69 276.392 120.481 276.392 120.481L276.771 121.074C276.771 121.572 276.724 122.022 276.581 122.425C275.87 124.441 274.138 126.219 272.36 127.073C272.028 125.84 271.577 124.536 271.055 123.706Z" fill="#EF7F7F"/>
<path d="M272.644 109.241C272.786 109.099 277.814 117.374 276.604 120.765C275.395 124.156 271.339 126.883 268.944 125.673C266.288 124.322 262.256 114.861 264.675 110.853C267.094 106.799 272.644 109.241 272.644 109.241Z" fill="#FB9390"/>
<path d="M265.363 105.518C268.328 104.878 273.593 105.755 276.581 107.842C280.234 110.403 280.352 114.979 278.716 117.967C277.079 120.955 278.052 123.136 278.052 123.136C278.052 123.136 272.905 122.804 271.885 119.319C271.458 117.848 271.98 116.852 271.008 116.023C270.249 115.382 269.609 113.533 268.85 112.039C268.85 112.039 265.529 110.284 264.272 111.731C263.845 112.252 261.569 106.348 265.363 105.518Z" fill="#0B0754"/>
<path d="M270.486 116.686C270.937 117.753 271.814 118.417 272.431 118.156C273.047 117.896 273.213 116.805 272.763 115.738C272.312 114.671 271.435 114.007 270.818 114.268C270.178 114.529 270.035 115.596 270.486 116.686Z" fill="#FB9390"/>
<path d="M334.165 244.686C334.165 244.686 332.884 256.708 331.414 257.585C331.034 257.822 328.971 257.988 328.781 258.984C328.781 259.008 328.71 260.027 329.351 260.004L337.153 259.98C337.153 259.98 337.248 254.052 337.201 251.752C337.201 251.752 338.268 245.824 337.936 245.397C337.58 244.97 334.165 244.686 334.165 244.686Z" fill="#0B0754"/>
<path d="M159.958 185.025C157.733 174.088 157.512 163.906 159.294 154.478C161.076 145.05 166.859 135.969 176.645 127.235C179.567 124.548 183.221 121.48 187.606 118.03C191.946 114.356 196.085 110.259 200.021 105.739C203.958 101.218 207.003 96.2973 209.158 90.9771C211.49 85.3885 212.021 79.4696 210.749 73.2202C209.796 68.5332 208.068 64.5851 205.565 61.3758C203.062 58.1666 200.118 55.6284 196.732 53.7612C193.346 51.8941 189.541 50.8095 185.317 50.5077C181.27 49.9374 177.248 50.0592 173.251 50.8733C168.366 51.8683 164.107 53.6656 160.473 56.2651C156.794 58.6415 153.562 61.5081 150.776 64.8648C148.167 67.953 145.87 71.4424 143.887 75.333C142.08 78.9552 140.584 82.3979 139.398 85.6612L106.334 71.476C107.814 63.9691 110.34 57.0625 113.913 50.7562C117.708 44.4047 122.24 38.8328 127.509 34.0407C132.954 28.9801 139.048 24.8335 145.79 21.6007C152.487 18.1448 159.61 15.6479 167.16 14.1103C175.597 12.3917 184.174 11.9233 192.889 12.705C201.604 13.4867 209.726 15.9001 217.255 19.9451C225.006 23.9449 231.742 29.7784 237.465 37.4456C243.363 44.8444 247.493 54.3467 249.854 65.9527C251.307 73.0948 251.713 79.6366 251.072 85.5782C250.607 91.2513 249.274 96.6364 247.074 101.733C244.873 106.83 242.027 111.594 238.534 116.024C235.042 120.455 230.972 124.887 226.324 129.32C222.428 132.903 218.509 136.374 214.568 139.733C210.626 143.093 207.086 146.72 203.947 150.613C200.984 154.238 198.691 158.308 197.065 162.823C195.617 167.07 195.46 171.983 196.595 177.563L159.958 185.025ZM176.492 262.894L167.094 216.694L204.064 209.164L213.463 255.364L176.492 262.894Z" fill="#CED3EC"/>
<path d="M236.761 106.917C236.69 106.561 236.975 106.846 236.429 104.048C236.263 103.242 235.765 102.388 235.386 101.938C235.172 101.7 234.721 101.274 234.437 101.108C233.963 100.823 233.583 101.297 233.678 101.558C233.773 101.819 234.271 102.744 234.366 103.005C234.461 103.265 234.508 103.929 234.295 104.143C234.081 104.356 230.571 100.349 230.358 99.9932C230.168 99.6849 229.765 98.3808 229.765 98.3808C229.765 98.3808 229.456 97.4323 229.077 97.6694C228.84 97.8354 228.555 98.6179 229.267 100.159C229.883 101.511 230.737 102.578 230.642 102.649C230.381 102.862 228.863 101.037 228.863 101.037C228.863 101.037 228.342 100.017 227.962 99.6612C227.725 98.9973 227.322 98.1437 226.895 98.4756C226.824 98.5468 227.108 99.9695 227.108 99.9695C227.108 99.9695 227.63 100.918 227.867 101.392C228.271 102.222 229.172 103.218 229.48 103.763C229.741 104.214 229.48 104.095 229.456 104.167C229.433 104.214 229.053 103.716 228.46 102.981C228.152 102.602 227.749 102.27 227.464 101.772C227.203 101.321 226.753 100.752 226.468 100.42C225.685 99.4715 225.259 100.112 225.852 101.108C226.089 101.487 226.326 101.89 226.587 102.317C227.583 103.929 228.816 105.186 228.697 105.328C228.531 105.518 226.421 103.099 226.421 103.099C226.421 103.099 224.927 102.104 225.828 103.574C226.848 105.281 227.962 106.348 228.033 106.395C228.389 106.704 229.314 108.15 230.69 109.004C232.065 109.881 234.295 111.209 234.295 111.209C234.555 111.517 235.196 112.513 236.097 113.936L239.441 109.929C238.255 108.696 236.809 107.154 236.761 106.917Z" fill="#FB9390"/>
<path d="M234.129 112.561L238.73 108.53L254.549 124.156C254.549 124.156 279.048 126.314 279.119 126.314L280.091 126.622C288.985 129.681 285.309 136.937 283.601 138.075C279.617 140.683 257.466 139.118 250.351 134.732C244.54 131.08 234.129 112.561 234.129 112.561Z" fill="#7C9AF2"/>
<path d="M69.1801 134.969C69.3461 135.609 69.4647 135.822 69.6781 136.273C71.1248 139.095 74.4926 143.102 74.4926 143.102L77.1014 136.866C77.1014 136.866 76.6745 134.898 75.9393 132.1C73.4253 132.764 71.03 133.167 69.1801 134.969Z" fill="#FB9390"/>
<path d="M84.0977 129.539C84.0977 129.539 69.6069 136.202 69.1325 136.06C68.8242 135.988 63.1797 125.887 63.1322 116.426C63.1085 112.039 67.3538 106.775 72.1208 107.818C74.5162 108.34 74.4687 109.051 78.0262 114.553C81.5363 120.054 84.0977 129.539 84.0977 129.539Z" fill="#4951EC"/>
<path d="M96.4541 248.953C96.4541 248.953 96.0983 255.023 96.0983 255.047C95.9798 255.83 95.4817 257.727 95.4817 258.414C95.4817 261.046 107.198 256.185 104.565 255C104.328 254.905 103.071 254.099 103 253.198C102.881 251.822 102.573 249.024 102.573 249.024L96.4541 248.953Z" fill="#FB9390"/>
<path d="M104.565 254.976C104.565 254.976 101.814 255.782 100.415 255.972C99.0155 256.162 97.1419 254.478 96.1458 254.928C95.0548 255.426 95.1022 259.979 95.1022 259.979C95.1022 259.979 109.854 261.26 114.004 259.932C115.617 259.434 110.186 256.849 104.565 254.976Z" fill="#0B0754"/>
<path d="M72.4767 248.953C72.4767 248.953 72.1209 255.023 72.1209 255.047C72.0023 255.83 71.5043 257.727 71.5043 258.414C71.5043 261.046 83.2203 256.185 80.5877 255C80.3506 254.905 78.7379 253.506 78.6667 252.605C78.5481 251.229 78.6193 249.024 78.6193 249.024L72.4767 248.953Z" fill="#FB9390"/>
<path d="M80.5877 254.976C80.5877 254.976 77.8366 255.782 76.4374 255.972C75.0381 256.162 73.1645 254.478 72.1684 254.928C71.0774 255.426 71.03 259.979 71.03 259.979C71.03 259.979 85.8528 261.497 90.0269 259.932C91.6159 259.339 86.2086 256.849 80.5877 254.976Z" fill="#0B0754"/>
<path d="M76.0579 138.336L86.3746 122.899C86.422 122.757 86.5169 122.496 86.6592 122.069C87.1809 120.528 88.2719 117.35 89.1968 114.173V114.149C89.4814 113.035 90.1218 111.114 90.7384 109.241C91.4025 107.154 92.2563 104.593 92.28 104.143C92.2563 104.072 92.2088 103.929 92.1377 103.763C91.7582 102.72 91.2364 100.207 91.0704 99.1396C90.9518 98.4519 90.8333 96.7683 91.6159 96.7683C92.8254 96.7683 92.2563 98.4519 92.8017 99.4952C93.0152 98.7839 93.4184 97.4086 93.6318 96.0096L93.8453 92.7373C93.8927 92.5002 93.6318 90.6743 94.4856 90.6743H94.533C95.292 90.7455 95.2683 92.6661 95.6003 95.9147C95.6951 95.5353 95.79 95.0848 95.8849 94.6817C95.8849 94.4683 96.0272 93.4724 96.1458 92.9744C96.0035 92.0733 96.0746 90.6269 96.9759 90.7692C97.4265 90.8403 97.4027 92.8321 97.4027 92.8321C97.4027 93.1167 97.379 95.2271 97.379 95.6302C97.4739 94.9188 97.8296 91.9074 98.5411 91.9074C99.1341 91.9074 99.1815 92.7136 99.1578 93.3538C99.1578 93.7332 98.7783 97.0055 98.7546 97.3849C99.0392 96.8869 99.3712 93.994 99.6321 93.994C100.77 93.994 100.367 98.0962 99.9404 99.1633C99.893 99.2818 99.8693 99.4952 99.7981 99.7324C99.6558 100.467 99.4186 101.677 98.802 102.791C98.0905 104.095 97.0944 106.206 96.9284 106.514C96.8098 107.178 96.4778 109.525 96.0272 112.466C95.8375 113.723 95.6477 115.122 95.4343 116.544C95.3868 116.853 95.1734 117.848 94.367 121.548C93.2524 126.622 93.1338 126.835 93.0863 126.93C92.612 127.855 81.4652 143.979 80.9909 144.667L80.7063 145.07L76.0579 138.336Z" fill="#FB9390"/>
<path d="M95.2682 102.341C95.2682 102.341 94.4382 100.065 92.944 100.041C92.944 100.041 93.7741 99.7094 94.4856 100.326C95.1971 100.942 95.2682 102.341 95.2682 102.341Z" fill="#EF7F7F"/>
<path d="M73.5676 97.9305L72.2395 106.894C72.2395 106.894 77.2911 111.233 80.2557 110.308C82.7222 109.549 81.0383 106.087 81.0383 106.087C81.0383 106.087 79.7102 101.298 80.1134 98.7841C80.5403 96.2944 73.5676 97.9305 73.5676 97.9305Z" fill="#FB9390"/>
<path d="M74.54 100.634C75.8207 101.274 78.3109 102.152 80.2794 102.365C80.0897 101.108 79.9948 99.7804 80.1371 98.8082C80.3268 97.6463 78.9513 97.3854 77.4097 97.4092C75.3938 97.5989 73.5913 97.9308 73.5913 97.9308L73.3305 99.6618C73.7099 100.065 74.1131 100.421 74.54 100.634Z" fill="#EF7F7F"/>
<path d="M67.1879 87.568C66.9744 87.568 69.1801 97.5745 72.619 99.3055C76.0342 101.036 81.1332 100.135 82.1056 97.4322C83.1728 94.4445 79.307 84.2246 74.4926 82.9204C69.6544 81.6399 67.1879 87.568 67.1879 87.568Z" fill="#FB9390"/>
<path d="M71.1485 78.3683C68.4211 80.0518 67.1642 82.5416 66.7373 83.5612C65.4566 84.2015 63.8913 85.6242 63.1561 89.3944C62.2311 94.042 65.504 97.6463 68.9429 98.7133C72.4055 99.8041 72.9747 102.223 72.9747 102.223L73.3067 99.5907C73.3067 99.5907 72.5478 97.3143 71.3857 96.1524C70.2236 95.0142 71.9312 93.3544 72.0735 91.9791C72.1921 90.9357 71.4569 88.8965 71.6229 87.1892C71.6229 87.1892 73.5439 84.0829 75.4412 83.3241C78.6904 82.0674 74.6586 76.2105 71.1485 78.3683Z" fill="#0B0754"/>
<path d="M72.5952 93.7806C73.0458 94.9425 72.8561 96.0807 72.1921 96.3416C71.528 96.6024 70.603 95.8673 70.1761 94.7291C69.7255 93.5672 69.9153 92.429 70.5793 92.1682C71.2434 91.8837 72.1446 92.6187 72.5952 93.7806Z" fill="#FB9390"/>
<path d="M85.331 138.573L105.253 135.111C105.253 135.111 102.976 129.017 102.17 129.017C101.363 129.017 87.1098 135.656 87.1098 135.656L85.9714 138.075L85.331 138.573Z" fill="#FB9390"/>
<path d="M75.1329 153.132C75.1329 153.132 73.1407 163.376 73.9471 171.153C74.7535 178.931 74.8246 206.532 74.8246 206.532L71.7415 250.684L79.0699 250.85C79.0699 250.85 87.7501 206.722 87.6078 207.836C87.4418 208.974 90.525 176.749 90.525 176.749L80.1608 152.136L75.1329 153.132Z" fill="#0B0754"/>
<path d="M77.0777 152.658C77.0777 152.658 75.7733 161.882 77.4097 165.937C79.0224 169.992 91.2839 209.686 91.4499 212.935C91.6159 216.183 95.6952 251.941 95.6952 251.941L104.209 251.68L106.059 211.891L102.193 161.882L98.4463 149.244L77.0777 152.658Z" fill="#0B0754"/>
<path d="M72.2395 106.893C72.2395 106.893 74.3503 108.364 76.295 108.198C78.2635 108.032 81.0146 106.087 81.0146 106.087L80.6352 104.688C80.6352 104.688 75.5598 103.906 75.4412 103.977C75.3227 104.072 72.2395 106.893 72.2395 106.893Z" fill="#FB9390"/>
<path d="M94.6516 128.733C94.6516 128.733 102.193 136.321 105.585 135.016C108.976 133.712 110.399 129.302 102.099 122.828C94.6516 117.019 94.6516 128.733 94.6516 128.733Z" fill="#FB9390"/>
<path d="M99.7507 138.099C98.636 131.602 90.525 111.399 89.8846 107.676C89.5763 105.874 85.1887 105.827 81.0384 106.064C76.6271 106.325 72.2632 106.918 72.2632 106.918C72.2632 106.918 68.3737 107.605 66.6424 109.312C64.9348 111.02 64.4842 115.762 66.927 124.773C68.8718 131.863 71.2908 135.775 72.4767 140.945C72.7138 142.676 72.9273 144.383 73.1882 146.398C73.6151 154.128 73.1882 164.348 73.1882 164.348C73.1882 164.348 94.3908 169.043 102.336 161.93C102.336 161.882 100.889 144.738 99.7507 138.099Z" fill="#7C9AF2"/>
<path d="M105.158 124.132C105.158 124.132 96.8335 131.46 96.3592 131.46C96.0509 131.46 84.4772 122.378 81.821 114.932C80.3506 110.806 83.4337 106.206 86.9675 106.206C89.4103 106.206 90.5012 106.894 95.3631 111.257C100.201 115.62 105.158 124.132 105.158 124.132Z" fill="#4951EC"/>
<path d="M54.4284 77.6095H17.8812C11.288 77.6095 5.95181 72.2743 5.95181 65.6823V58.1181C5.95181 51.5262 11.288 46.1909 17.8812 46.1909H54.4284C61.0216 46.1909 66.3578 51.5262 66.3578 58.1181V65.6823C66.3578 72.2743 60.9979 77.6095 54.4284 77.6095Z" fill="#BED1F9"/>
<path d="M59.1717 65.7525L74.042 72.4156L64.1048 58.4966L59.1717 65.7525Z" fill="#BED1F9"/>
<path d="M26.0634 60.8922C26.0634 62.1726 24.9013 63.216 23.4546 63.216C22.0079 63.216 20.8458 62.1726 20.8458 60.8922C20.8458 59.6117 22.0079 58.5684 23.4546 58.5684C24.9013 58.5921 26.0634 59.6117 26.0634 60.8922Z" fill="white"/>
<path d="M38.1826 60.8917C38.1826 62.1721 37.0204 63.2155 35.5737 63.2155C34.127 63.2155 32.9649 62.1721 32.9649 60.8917C32.9649 59.6112 34.127 58.5679 35.5737 58.5679C37.0204 58.5916 38.1826 59.6112 38.1826 60.8917Z" fill="white"/>
<path d="M50.3017 60.8917C50.3017 62.1721 49.1396 63.2155 47.6929 63.2155C46.2462 63.2155 45.084 62.1721 45.084 60.8917C45.084 59.6112 46.2462 58.5679 47.6929 58.5679C49.1396 58.5916 50.3017 59.6112 50.3017 60.8917Z" fill="white"/>
</svg>
