<svg viewBox="0 0 26 26" xmlns="http://www.w3.org/2000/svg">
<path d="M5.63029 0.673444C5.19936 0.638444 4.72029 0.763132 4.27842 1.07376C3.88904 1.34501 3.04904 2.01219 2.26373 2.76688C1.87217 3.14313 1.49811 3.53469 1.20936 3.91969C0.918418 4.30469 0.664668 4.65688 0.67998 5.16876C0.695293 5.62813 0.74123 6.98657 1.71904 9.06907C2.69686 11.1494 4.59342 14.0041 8.29248 17.7053C11.9937 21.4066 14.8484 23.3031 16.9287 24.2809C19.009 25.2588 20.3697 25.3047 20.829 25.32C21.3387 25.3353 21.6909 25.0816 22.0759 24.7906C22.4609 24.4997 22.8525 24.1278 23.2287 23.7363C23.9812 22.9509 24.6484 22.1109 24.9197 21.7216C25.5387 20.84 25.4359 19.7988 24.7469 19.3153C24.3137 19.0113 20.3303 16.36 19.7309 15.9925C19.1228 15.6206 18.4228 15.7891 17.7972 16.1194C17.305 16.3797 15.9728 17.1431 15.5922 17.3619C15.3056 17.1803 14.2184 16.4563 11.88 14.1178C9.53936 11.7794 8.81748 10.6922 8.63592 10.4056C8.85467 10.025 9.61592 8.69938 9.87842 8.19844C10.2065 7.57501 10.3903 6.86844 9.99873 6.25594C9.83467 5.99563 9.08873 4.86032 8.33623 3.72063C7.58154 2.58094 6.86623 1.50032 6.68029 1.24219V1.24001C6.43748 0.905319 6.05904 0.708444 5.63029 0.673444ZM5.52748 1.81751C5.68061 1.83719 5.77248 1.89844 5.77248 1.89844C5.86217 2.02313 6.64748 3.20001 7.39998 4.33751C8.15248 5.47719 8.92029 6.64532 9.05373 6.85751C9.07561 6.89032 9.10623 7.26219 8.88748 7.67563V7.67782C8.64029 8.14813 7.48748 10.1628 7.48748 10.1628L7.32779 10.445L7.49186 10.725C7.49186 10.725 8.35154 12.1753 11.0859 14.9097C13.8225 17.6441 15.2728 18.5059 15.2728 18.5059L15.5528 18.67L15.835 18.5103C15.835 18.5103 17.8453 17.3597 18.32 17.1103C18.7334 16.8938 19.1053 16.9222 19.149 16.9484C19.5362 17.1869 23.839 20.0459 24.1037 20.2319C24.1125 20.2384 24.3465 20.5928 24.0053 21.0784H24.0031C23.7975 21.3738 23.1237 22.2291 22.4215 22.9597C22.0694 23.325 21.7084 23.6663 21.4022 23.8959C21.0959 24.1256 20.8225 24.1978 20.8662 24.2C20.3894 24.1847 19.3372 24.1738 17.4056 23.2659C15.474 22.3603 12.7178 20.5469 9.08436 16.9113C5.45311 13.28 3.63967 10.5238 2.73186 8.59001C1.82623 6.65844 1.81529 5.60626 1.79998 5.13157C1.80217 5.17532 1.87436 4.89969 2.10404 4.59344C2.33373 4.28719 2.67279 3.92407 3.03811 3.57188C3.77092 2.86969 4.62404 2.19594 4.91936 1.99032V1.99251C5.16217 1.82188 5.37436 1.80001 5.52748 1.81751Z"/>
</svg>
