<svg viewBox="0 0 21 21" xmlns="http://www.w3.org/2000/svg">
<path d="M10.5 1.75C6.4003 1.75 3.0625 5.0878 3.0625 9.1875C3.0625 11.028 3.7377 12.7159 4.84668 14.0137L4.8501 14.0171L4.85266 14.0205C4.85266 14.0205 8.01663 17.6308 9.14306 18.7057C9.89737 19.4249 11.1018 19.4249 11.8561 18.7057C13.14 17.481 16.1482 14.0188 16.1482 14.0188L16.1499 14.0162L16.1525 14.0137C17.2624 12.7159 17.9375 11.028 17.9375 9.1875C17.9375 5.0878 14.5997 1.75 10.5 1.75ZM10.5 3.0625C13.8903 3.0625 16.625 5.7972 16.625 9.1875C16.625 10.7079 16.0709 12.0893 15.1544 13.1609C15.1484 13.1677 12.0706 16.6878 10.9503 17.7563C10.6905 18.0041 10.3086 18.0041 10.0488 17.7563C9.1125 16.8629 5.85423 13.1717 5.84473 13.1609L5.84387 13.16C4.92858 12.0885 4.375 10.7075 4.375 9.1875C4.375 5.7972 7.1097 3.0625 10.5 3.0625ZM10.5 6.5625C9.67969 6.5625 8.98136 6.89375 8.53296 7.39819C8.08456 7.90264 7.875 8.54948 7.875 9.1875C7.875 9.82552 8.08456 10.4724 8.53296 10.9768C8.98136 11.4813 9.67969 11.8125 10.5 11.8125C11.3203 11.8125 12.0186 11.4813 12.467 10.9768C12.9154 10.4724 13.125 9.82552 13.125 9.1875C13.125 8.54948 12.9154 7.90264 12.467 7.39819C12.0186 6.89375 11.3203 6.5625 10.5 6.5625ZM10.5 7.875C10.9922 7.875 11.2782 8.03594 11.4861 8.26978C11.6939 8.50361 11.8125 8.84115 11.8125 9.1875C11.8125 9.53385 11.6939 9.87139 11.4861 10.1052C11.2782 10.3391 10.9922 10.5 10.5 10.5C10.0078 10.5 9.72177 10.3391 9.51391 10.1052C9.30606 9.87139 9.1875 9.53385 9.1875 9.1875C9.1875 8.84115 9.30606 8.50361 9.51391 8.26978C9.72177 8.03594 10.0078 7.875 10.5 7.875Z" />
</svg>