<svg width="36" height="41" viewBox="0 0 36 41" fill="none" xmlns="http://www.w3.org/2000/svg">
<g filter="url(#filter0_d)">
<rect x="12.3335" y="9.06665" width="11.3333" height="10.2" fill="#B8271C"/>
<path d="M17.9999 2.26672C11.1149 2.26672 5.5332 7.84839 5.5332 14.7334C5.5332 22.9319 13.6388 26.8567 14.6543 27.7701C15.6913 28.7029 16.5481 30.7939 16.8937 31.9793C17.0615 32.5551 17.5329 32.8463 17.9999 32.8588C18.4679 32.8452 18.9383 32.5539 19.106 31.9793C19.4517 30.7939 20.3085 28.704 21.3455 27.7701C22.3609 26.8567 30.4665 22.9319 30.4665 14.7334C30.4665 7.84839 24.8849 2.26672 17.9999 2.26672ZM17.9999 18.1334C16.1219 18.1334 14.5999 16.6113 14.5999 14.7334C14.5999 12.8555 16.1219 11.3334 17.9999 11.3334C19.8778 11.3334 21.3999 12.8555 21.3999 14.7334C21.3999 16.6113 19.8778 18.1334 17.9999 18.1334Z" fill="#F44336"/>
</g>
<defs>
<filter id="filter0_d" x="-4" y="-2" width="44" height="44" filterUnits="userSpaceOnUse" color-interpolation-filters="sRGB">
<feFlood flood-opacity="0" result="BackgroundImageFix"/>
<feColorMatrix in="SourceAlpha" type="matrix" values="0 0 0 0 0 0 0 0 0 0 0 0 0 0 0 0 0 0 127 0"/>
<feOffset dy="3"/>
<feGaussianBlur stdDeviation="2.5"/>
<feColorMatrix type="matrix" values="0 0 0 0 0 0 0 0 0 0 0 0 0 0 0 0 0 0 0.3 0"/>
<feBlend mode="normal" in2="BackgroundImageFix" result="effect1_dropShadow"/>
<feBlend mode="normal" in="SourceGraphic" in2="effect1_dropShadow" result="shape"/>
</filter>
</defs>
</svg>
