<svg viewBox="0 0 50 50" xmlns="http://www.w3.org/2000/svg">
  <path d="M3.84871 39.9369L5.92035 37.8653C6.49241 37.2933 6.49241 36.3659 5.92035 35.7938C5.34849 35.2217 4.42096 35.2218 3.84881 35.7938L1.77717 37.8653C1.20511 38.4374 1.20511 39.3648 1.77717 39.9369C2.34923 40.5089 3.27665 40.5089 3.84871 39.9369ZM10.0634 39.9369C9.49148 39.3648 8.56396 39.3648 7.9919 39.9369L0.429533 47.4993C-0.142527 48.0713 -0.142527 48.9987 0.429533 49.5708C1.0015 50.1428 1.92902 50.1429 2.50108 49.5708L10.0634 42.0084C10.6356 41.4364 10.6356 40.5089 10.0634 39.9369ZM49.8375 1.40571C49.7454 0.761191 49.239 0.254852 48.5945 0.162764C48.437 0.140303 44.6757 -0.377754 39.4538 0.559534C32.6792 1.77553 26.4168 4.93944 21.457 9.89922C20.1342 11.222 18.6776 12.8396 17.2408 14.5808C15.4653 14.1786 9.62634 13.4435 3.84881 19.2212C-1.27131 24.3413 1.65021 27.3806 1.77717 27.5075C2.05187 27.7822 2.42442 27.9366 2.81289 27.9366C3.20136 27.9366 3.57401 27.7822 3.84861 27.5076C4.67867 26.6775 5.78217 26.2204 6.95598 26.2204C8.12978 26.2204 9.23328 26.6775 10.0632 27.5075L13.1707 30.6149L12.1349 31.6507C10.4175 33.3679 10.4171 36.1478 12.1349 37.8653C13.852 39.5826 16.6321 39.583 18.3495 37.8653L19.3853 36.8295C19.3853 36.8295 22.4886 39.9329 22.4943 39.9384C24.2061 41.652 24.2056 44.4387 22.4927 46.1515C22.218 46.4262 22.0636 46.7989 22.0636 47.1873C22.0636 47.5759 22.2179 47.9484 22.4927 48.2232C22.5609 48.2913 23.4708 49.1672 25.0932 49.1672C26.4887 49.1672 28.4114 48.5191 30.779 46.1515C36.5566 40.3739 35.8215 34.535 35.4194 32.7594C37.1607 31.3226 38.7783 29.8661 40.1011 28.5431C45.0507 23.5935 48.2233 17.3294 49.4408 10.5463C50.3779 5.32469 49.8601 1.56333 49.8375 1.40571ZM6.95617 23.2907C5.91654 23.2907 4.91012 23.5058 3.98757 23.915C4.2737 23.2352 4.85484 22.3584 5.92045 21.2927C8.44491 18.7682 11.6067 17.1113 15.1263 17.2561C13.3211 19.6426 11.6828 22.0948 10.5533 24.2336C9.46755 23.6195 8.2375 23.2907 6.95617 23.2907ZM16.2781 35.7938C15.7058 36.3661 14.7792 36.3662 14.2066 35.7938C13.6354 35.2226 13.6354 34.2933 14.2066 33.7222L22.4929 25.436C23.0639 24.8649 23.9933 24.8647 24.5645 25.436C25.1357 26.0071 25.1357 26.9364 24.5645 27.5076L16.2781 35.7938ZM28.7075 44.0801C27.6393 45.1483 26.7608 45.7297 26.0804 46.015C27.0088 43.9162 26.9042 41.4672 25.7664 39.4473C27.9073 38.3167 30.3622 36.6764 32.7508 34.8691C32.8349 36.8988 32.3295 40.4581 28.7075 44.0801ZM38.0296 26.4717C33.81 30.6913 27.8062 35.1846 23.8416 37.1425L21.4571 34.758L26.636 29.5791C28.3533 27.8618 28.3537 25.0819 26.636 23.3643C24.9225 21.6509 22.1345 21.6512 20.4213 23.3643L15.2423 28.5432L12.8579 26.1588C14.8156 22.1943 19.309 16.1905 23.5286 11.9707C27.2071 8.29221 31.5682 5.70573 36.5268 4.25312L45.736 13.4623C44.5186 17.5953 42.2374 22.2639 38.0296 26.4717ZM46.5314 10.1147L39.8769 3.46017C43.0291 2.88488 45.6232 2.89387 47.0319 2.96789C47.1045 4.37089 47.1093 6.95269 46.5314 10.1147ZM30.7792 10.9349C28.4894 13.2246 28.4889 16.9311 30.7792 19.2212C33.0634 21.5055 36.7804 21.506 39.0655 19.2212C41.35 16.9367 41.35 13.2195 39.0655 10.9348C36.7757 8.64533 33.0694 8.64475 30.7792 10.9349ZM36.9939 17.1497C35.8516 18.2919 33.9931 18.2919 32.8507 17.1497C31.7058 16.0048 31.7055 14.1516 32.8507 13.0066C33.9956 11.8617 35.8487 11.8616 36.9939 13.0066C38.1361 14.1489 38.1361 16.0074 36.9939 17.1497ZM12.1351 44.0801L10.0635 46.1516C9.49148 46.7237 9.49148 47.6511 10.0635 48.2232C10.6355 48.7951 11.563 48.7952 12.1351 48.2232L14.2066 46.1516C14.7787 45.5796 14.7787 44.6521 14.2066 44.0801C13.6346 43.5079 12.707 43.5079 12.1351 44.0801Z" />
</svg>
