<svg width="134" height="134" viewBox="0 0 134 134" fill="none" xmlns="http://www.w3.org/2000/svg">
<g clip-path="url(#clip0)">
<path d="M96.0209 17.0081C96.323 16.8673 96.4947 16.7918 96.5249 16.7777C97.5813 16.3219 98.8057 16.8083 99.2653 17.8629C99.7211 18.9192 99.1521 20.0948 98.1801 20.6033C97.5757 20.8943 32.8886 49.67 44.6277 112.812C44.8391 113.946 44.0881 115.027 42.9601 115.24C41.8303 115.45 40.7416 114.703 40.532 113.573C28.7474 50.1851 89.7976 19.9101 96.0209 17.0081Z" fill="white"/>
<path d="M31.4565 104.137C32.1098 103.832 32.9009 103.872 33.5356 104.316L42.0684 110.291L48.0429 101.758C48.7042 100.82 49.9986 100.589 50.9443 101.247C51.8863 101.906 52.1155 103.206 51.456 104.148L44.2865 114.387C43.6363 115.33 42.3326 115.561 41.3851 114.899L31.1458 107.73C30.2039 107.07 29.9747 105.77 30.6342 104.828C30.8477 104.517 31.1355 104.286 31.4565 104.137Z" fill="white"/>
</g>
<defs>
<clipPath id="clip0">
<rect width="100" height="100" fill="white" transform="translate(133.578 91.4475) rotate(155)"/>
</clipPath>
</defs>
</svg>
