<svg viewBox="0 0 50 50" xmlns="http://www.w3.org/2000/svg">
<path d="M2.8125 0C1.27734 0 0 1.27734 0 2.8125V7.8125C-0.0078125 7.875 -0.0078125 7.9375 0 8V40C0 40.5508 0.449219 41 1 41H24C24.3594 41.0039 24.6953 40.8164 24.8789 40.5039C25.0586 40.1914 25.0586 39.8086 24.8789 39.4961C24.6953 39.1836 24.3594 38.9961 24 39H2V9H42V25C41.9961 25.3594 42.1836 25.6953 42.4961 25.8789C42.8086 26.0586 43.1914 26.0586 43.5039 25.8789C43.8164 25.6953 44.0039 25.3594 44 25V8C44.0078 7.9375 44.0078 7.875 44 7.8125V2.8125C44 1.27734 42.7227 0 41.1875 0H2.8125ZM2.8125 2H41.1875C41.6523 2 42 2.34766 42 2.8125V7H2V2.8125C2 2.34766 2.34766 2 2.8125 2ZM7 15V17H11V15H7ZM14 15V17H37V15H14ZM7 20V22H11V20H7ZM14 20V22H37V20H14ZM7 25V27H11V25H7ZM14 25V27H28V25H14ZM36 26C30.4883 26 26 30.4883 26 36C26 41.5117 30.4883 46 36 46C38.3945 46 40.5898 45.1602 42.3125 43.75L48.2812 49.7188L49.7188 48.2812L43.75 42.3125C45.1602 40.5898 46 38.3945 46 36C46 30.4883 41.5117 26 36 26ZM36 28C40.4297 28 44 31.5703 44 36C44 40.4297 40.4297 44 36 44C31.5703 44 28 40.4297 28 36C28 31.5703 31.5703 28 36 28ZM7 30V32H11V30H7ZM14 30V32H24V30H14Z"/>
</svg>
