<svg viewBox="0 0 24 24" xmlns="http://www.w3.org/2000/svg">
<path d="M18.75 1.49988C16.6875 1.49988 15 3.18738 15 5.24988C15 5.50769 15.0293 5.75379 15.0762 5.99988L8.2793 9.05847C7.59375 8.12097 6.49219 7.49988 5.25 7.49988C3.1875 7.49988 1.5 9.18738 1.5 11.2499C1.5 13.3124 3.1875 14.9999 5.25 14.9999C6.49805 14.9999 7.61133 14.3729 8.29102 13.4237L15.0938 16.4471C15.0352 16.705 15 16.9745 15 17.2499C15 19.3124 16.6875 20.9999 18.75 20.9999C20.8125 20.9999 22.5 19.3124 22.5 17.2499C22.5 15.1874 20.8125 13.4999 18.75 13.4999C17.502 13.4999 16.3887 14.1268 15.709 15.076L8.90625 12.0585C8.96484 11.7948 9 11.5253 9 11.2499C9 10.9686 8.96484 10.6932 8.90625 10.4296L15.668 7.37097C16.3477 8.35535 17.4785 8.99988 18.75 8.99988C20.8125 8.99988 22.5 7.31238 22.5 5.24988C22.5 3.18738 20.8125 1.49988 18.75 1.49988ZM18.75 2.99988C20.0039 2.99988 21 3.99597 21 5.24988C21 6.50379 20.0039 7.49988 18.75 7.49988C17.4961 7.49988 16.5 6.50379 16.5 5.24988C16.5 3.99597 17.4961 2.99988 18.75 2.99988ZM5.25 8.99988C6.50391 8.99988 7.5 9.99597 7.5 11.2499C7.5 12.5038 6.50391 13.4999 5.25 13.4999C3.99609 13.4999 3 12.5038 3 11.2499C3 9.99597 3.99609 8.99988 5.25 8.99988ZM18.75 14.9999C20.0039 14.9999 21 15.996 21 17.2499C21 18.5038 20.0039 19.4999 18.75 19.4999C17.4961 19.4999 16.5 18.5038 16.5 17.2499C16.5 15.996 17.4961 14.9999 18.75 14.9999Z"/>
</svg>