<svg viewBox="0 0 20 20" xmlns="http://www.w3.org/2000/svg">
<path d="M20 0.394409L14.5918 4.90613L10.0273 3.38269L5.52734 8.25769L0.5 6.58191V17.7499C0.5 18.9862 1.51367 19.9999 2.75 19.9999H17.75C18.9863 19.9999 20 18.9862 20 17.7499V0.394409ZM18.5 3.60535V10.8007L14.709 13.8241L10.25 10.8475L5.52148 13.9999H2V8.66785L5.97266 9.99206L10.4727 5.11706L14.9082 6.59363L18.5 3.60535ZM10.25 12.6522L14.791 15.6815L18.5 12.7225V17.7499C18.5 18.1718 18.1719 18.4999 17.75 18.4999H2.75C2.32812 18.4999 2 18.1718 2 17.7499V15.4999H5.97852L10.25 12.6522Z" />
</svg>