<svg viewBox="0 0 16 16" xmlns="http://www.w3.org/2000/svg">
<path d="M8.00279 1.66651C7.90934 1.66593 7.8176 1.69154 7.73797 1.74045C7.65834 1.78936 7.59401 1.8596 7.55227 1.94321L5.83482 5.3781L1.7567 6.00571C1.66541 6.01981 1.57982 6.05892 1.50941 6.11871C1.439 6.17849 1.38652 6.25661 1.3578 6.34439C1.32908 6.43218 1.32523 6.52621 1.34669 6.61605C1.36814 6.70589 1.41406 6.78803 1.47935 6.85336L4.30032 9.67432L3.67206 13.757C3.65801 13.8483 3.66954 13.9418 3.70538 14.027C3.74122 14.1122 3.79996 14.1858 3.87509 14.2396C3.95022 14.2934 4.0388 14.3253 4.13098 14.3319C4.22317 14.3384 4.31536 14.3192 4.39732 14.2765L7.99953 12.397L11.6017 14.2765C11.6837 14.3192 11.7759 14.3384 11.8681 14.3319C11.9603 14.3253 12.0488 14.2934 12.124 14.2396C12.1991 14.1858 12.2579 14.1122 12.2937 14.027C12.3295 13.9418 12.3411 13.8483 12.327 13.757L11.6988 9.67432L14.5197 6.85336C14.585 6.78803 14.6309 6.70589 14.6524 6.61605C14.6738 6.52621 14.67 6.43218 14.6413 6.34439C14.6125 6.25661 14.5601 6.17849 14.4897 6.11871C14.4192 6.05892 14.3337 6.01981 14.2424 6.00571L10.1642 5.3781L8.4468 1.94321C8.40555 1.86059 8.34224 1.791 8.26387 1.74216C8.1855 1.69332 8.09513 1.66714 8.00279 1.66651Z" />
</svg>