<svg viewBox="0 0 28 26" xmlns="http://www.w3.org/2000/svg">
<path d="M6.6875 0.200012C6.35703 0.230481 6.11328 0.525794 6.14375 0.856262C6.17422 1.18673 6.46953 1.43048 6.8 1.40001H10.7375L0.36875 11.7688C0.129688 12.0078 0.129688 12.3922 0.36875 12.6313C0.607813 12.8703 0.992188 12.8703 1.23125 12.6313L11.6 2.26251V6.20001C11.5977 6.41564 11.7102 6.6172 11.8977 6.72736C12.0852 6.83517 12.3148 6.83517 12.5023 6.72736C12.6898 6.6172 12.8023 6.41564 12.8 6.20001V0.200012H6.8C6.78125 0.200012 6.7625 0.200012 6.74375 0.200012C6.725 0.200012 6.70625 0.200012 6.6875 0.200012ZM19.4 2.60001V26H27.8V2.60001H19.4ZM20.6 3.80001H26.6V24.8H20.6V3.80001ZM9.8 10.4V26H18.2V10.4H9.8ZM11 11.6H17V24.8H11V11.6ZM0.2 17V26H8.6V17H0.2ZM1.4 18.2H7.4V24.8H1.4V18.2Z"/>
</svg>
