<svg viewBox="0 0 50 50" xmlns="http://www.w3.org/2000/svg">
<path d="M15.8887 3L3 15.8887V34.1113L15.8887 47H34.1113L47 34.1113V15.8887L34.1113 3H33.6973H15.8887ZM16.7168 5H33.2832L45 16.7168V33.2832L33.2832 45H16.7168L5 33.2832V16.7168L16.7168 5ZM28.3965 18.207C25.3465 18.207 23.8633 21.4397 23.8633 25.1797C23.8633 28.9397 25.0834 32.2324 28.1934 32.2324C30.7954 32.2324 32.623 30.1386 32.623 24.9766C32.623 21.8466 31.6895 18.207 28.3965 18.207ZM12.5742 18.248C9.72822 18.248 8.26562 20.0765 8.26562 22.2715C8.26562 23.5135 8.9767 24.9568 10.8457 26.0938C12.0047 26.8468 12.6133 27.3321 12.6133 28.3281C12.6133 29.2241 11.9841 29.875 10.7441 29.875C9.99114 29.875 9.03728 29.6517 8.48828 29.3457L8.10156 31.6426C8.56856 31.9066 9.62566 32.1914 10.7227 32.1914C13.3857 32.1914 15.2363 30.5459 15.2363 28.0449C15.2363 26.6019 14.5859 25.2181 12.7559 24.1211C11.2929 23.2271 10.8867 22.8003 10.8867 21.9863C10.8867 21.2543 11.4362 20.5645 12.5742 20.5645C13.3262 20.5645 13.9167 20.7882 14.3027 21.0312L14.7285 18.7363C14.3415 18.4913 13.4892 18.248 12.5742 18.248ZM37.1016 18.3105C36.0856 18.3105 35.0674 18.4103 34.3164 18.5723V32.0684H36.9785V26.9668C37.1625 26.9888 37.3258 26.9883 37.5078 26.9883C38.6268 26.9883 39.9878 26.581 40.8418 25.666C41.5538 24.915 42 23.856 42 22.373C42 21.215 41.6343 20.0762 40.8223 19.3652C39.9483 18.5322 38.6876 18.3105 37.1016 18.3105ZM15.8711 18.3691V20.8281H18.2891V32.0703H20.9531V20.8281H23.3926V18.3691H15.8711ZM37.6309 20.4629C38.8709 20.4629 39.3594 21.3977 39.3594 22.5977C39.3594 23.8787 38.7697 24.834 37.4277 24.834C37.2637 24.834 37.1205 24.8345 36.9785 24.8145V20.5664C37.1425 20.5044 37.3859 20.4629 37.6309 20.4629ZM28.2734 20.5234C29.4934 20.5234 29.8594 22.6977 29.8594 25.0977C29.8594 27.8817 29.4339 29.9141 28.2969 29.9141C27.2179 29.9141 26.6289 28.3288 26.6289 25.2188C26.6289 22.2717 27.2164 20.5244 28.2734 20.5234Z" />
</svg>
