<svg viewBox="0 0 20 20" xmlns="http://www.w3.org/2000/svg">
<path d="M9.99002 0.824417C9.8244 0.827005 9.66658 0.895223 9.55123 1.01409C9.43587 1.13295 9.37241 1.29275 9.37479 1.45837V2.94844C5.96868 3.24854 3.2483 5.96893 2.94819 9.37503H1.45812C1.3753 9.37386 1.29307 9.38916 1.21622 9.42005C1.13936 9.45093 1.06941 9.49678 1.01043 9.55494C0.95145 9.61309 0.904615 9.68238 0.872648 9.75879C0.840681 9.8352 0.824219 9.91721 0.824219 10C0.824219 10.0829 0.840681 10.1649 0.872648 10.2413C0.904615 10.3177 0.95145 10.387 1.01043 10.4451C1.06941 10.5033 1.13936 10.5491 1.21622 10.58C1.29307 10.6109 1.3753 10.6262 1.45812 10.625H2.94819C3.2483 14.0311 5.96868 16.7515 9.37479 17.0516V18.5417C9.37362 18.6245 9.38892 18.7067 9.4198 18.7836C9.45068 18.8605 9.49653 18.9304 9.55469 18.9894C9.61284 19.0484 9.68213 19.0952 9.75854 19.1272C9.83496 19.1591 9.91696 19.1756 9.99979 19.1756C10.0826 19.1756 10.1646 19.1591 10.241 19.1272C10.3174 19.0952 10.3867 19.0484 10.4449 18.9894C10.503 18.9304 10.5489 18.8605 10.5798 18.7836C10.6107 18.7067 10.626 18.6245 10.6248 18.5417V17.0516C14.0309 16.7515 16.7513 14.0311 17.0514 10.625H18.5415C18.6243 10.6262 18.7065 10.6109 18.7834 10.58C18.8602 10.5491 18.9302 10.5033 18.9891 10.4451C19.0481 10.387 19.095 10.3177 19.1269 10.2413C19.1589 10.1649 19.1754 10.0829 19.1754 10C19.1754 9.91721 19.1589 9.8352 19.1269 9.75879C19.095 9.68238 19.0481 9.61309 18.9891 9.55494C18.9302 9.49678 18.8602 9.45093 18.7834 9.42005C18.7065 9.38916 18.6243 9.37386 18.5415 9.37503H17.0514C16.7513 5.96893 14.0309 3.24854 10.6248 2.94844V1.45837C10.626 1.37472 10.6104 1.29167 10.5789 1.21416C10.5474 1.13665 10.5007 1.06625 10.4415 1.00713C10.3823 0.948015 10.3118 0.90138 10.2343 0.869994C10.1567 0.838608 10.0737 0.82311 9.99002 0.824417ZM9.92573 4.17077C9.976 4.1769 10.0268 4.1769 10.0771 4.17077C13.2449 4.21211 15.7894 6.75771 15.829 9.92598C15.8229 9.97625 15.8229 10.0271 15.829 10.0773C15.7877 13.2452 13.2421 15.7897 10.0738 15.8293C10.046 15.8258 10.018 15.8242 9.99002 15.8244C9.96716 15.8248 9.94434 15.8264 9.92166 15.8293C6.7542 15.7875 4.21013 13.2421 4.17052 10.0741C4.17665 10.0238 4.17665 9.97299 4.17052 9.92272C4.21186 6.75489 6.75746 4.21038 9.92573 4.17077ZM9.99979 7.9167C9.35743 7.9167 8.79651 8.18009 8.43891 8.58239C8.08131 8.98469 7.91645 9.49656 7.91645 10C7.91645 10.5035 8.08131 11.0154 8.43891 11.4177C8.79651 11.82 9.35743 12.0834 9.99979 12.0834C10.6421 12.0834 11.2031 11.82 11.5607 11.4177C11.9183 11.0154 12.0831 10.5035 12.0831 10C12.0831 9.49656 11.9183 8.98469 11.5607 8.58239C11.2031 8.18009 10.6421 7.9167 9.99979 7.9167ZM9.99979 9.1667C10.3296 9.1667 10.4979 9.2679 10.6264 9.41247C10.7549 9.55704 10.8331 9.77434 10.8331 10C10.8331 10.2257 10.7549 10.443 10.6264 10.5876C10.4979 10.7322 10.3296 10.8334 9.99979 10.8334C9.66993 10.8334 9.50167 10.7322 9.37316 10.5876C9.24465 10.443 9.16645 10.2257 9.16645 10C9.16645 9.77434 9.24465 9.55704 9.37316 9.41247C9.50167 9.2679 9.66993 9.1667 9.99979 9.1667Z" />
</svg>