<svg viewBox="0 0 24 24" xmlns="http://www.w3.org/2000/svg">
<path d="M8 2.5C6.07589 2.5 4.5 4.07589 4.5 6C4.5 7.92411 6.07589 9.5 8 9.5C9.92411 9.5 11.5 7.92411 11.5 6C11.5 4.07589 9.92411 2.5 8 2.5ZM16 2.5C14.076 2.5 12.5 4.076 12.5 6C12.5 7.924 14.076 9.5 16 9.5C17.3784 9.5 18.6321 8.70468 19.6113 7.97656C20.5906 7.24845 21.29 6.52051 21.29 6.52051C21.4248 6.38072 21.5 6.19414 21.5 6C21.5 5.80586 21.4248 5.61928 21.29 5.47949C21.29 5.47949 20.5906 4.75155 19.6113 4.02344C18.6321 3.29532 17.3784 2.5 16 2.5ZM8 4C9.11345 4 10 4.88655 10 6C10 7.11345 9.11345 8 8 8C6.88655 8 6 7.11345 6 6C6 4.88655 6.88655 4 8 4ZM16 4C16.7246 4 17.8458 4.57968 18.7158 5.22656C19.236 5.61334 19.346 5.75164 19.6094 6C19.346 6.24836 19.236 6.38666 18.7158 6.77344C17.8458 7.42032 16.7246 8 16 8C14.887 8 14 7.113 14 6C14 4.887 14.887 4 16 4ZM4.75 10.5C3.785 10.5 3 11.285 3 12.25V17C3 19.757 5.243 22 8 22C9.271 22 10.4295 21.5199 11.3125 20.7354C10.9945 20.3369 10.7261 19.8973 10.5166 19.4258C9.8796 20.0868 8.988 20.5 8 20.5C6.07 20.5 4.5 18.93 4.5 17V12.25C4.5 12.112 4.612 12 4.75 12H10.0127C10.0642 11.4335 10.2864 10.9155 10.6299 10.5H4.75ZM12.75 10.5C11.7925 10.5 11 11.2925 11 12.25V17C11 19.7524 13.2476 22 16 22C18.7524 22 21 19.7524 21 17V12.25C21 11.2925 20.2075 10.5 19.25 10.5H12.75ZM12.75 12H19.25C19.3975 12 19.5 12.1025 19.5 12.25V17C19.5 18.9416 17.9416 20.5 16 20.5C14.0584 20.5 12.5 18.9416 12.5 17V12.25C12.5 12.1025 12.6025 12 12.75 12Z" />
</svg>
