<svg viewBox="0 0 16 16" fill="none" xmlns="http://www.w3.org/2000/svg">
<path fill-rule="evenodd" clip-rule="evenodd" d="M6.28516 1.97135C6.6465 1.36869 7.29734 1 8 1C8.70266 1 9.35351 1.36869 9.71484 1.97135L15.7148 11.9714C16.0855 12.5887 16.0955 13.359 15.7409 13.9857C15.3855 14.6123 14.7206 15 14 15H2.00002C1.27936 15 0.614478 14.6123 0.259146 13.9857C-0.0955188 13.359 -0.0854772 12.5894 0.285188 11.9714L6.28516 1.97135ZM8.66666 4.33333C8.66666 3.96533 8.368 3.66667 8 3.66667C7.632 3.66667 7.33334 3.96533 7.33334 4.33333V9.66666C7.33334 10.0347 7.632 10.3333 8 10.3333C8.368 10.3333 8.66666 10.0347 8.66666 9.66666V4.33333ZM8.83333 12.3333C8.83333 11.8733 8.46 11.5 8 11.5C7.54 11.5 7.16667 11.8733 7.16667 12.3333C7.16667 12.7933 7.54 13.1667 8 13.1667C8.46 13.1667 8.83333 12.7933 8.83333 12.3333Z" fill="#FFA800"/>
</svg>