<svg version="1" xmlns="http://www.w3.org/2000/svg" width="933.333" height="933.333" viewBox="0 0 700.000000 700.000000"><path d="M172.5 1.1c-44.4 4.3-86 24.3-117.6 56.6C23 90.3 5.1 129.4 1 175.8.3 183.6 0 244.1.2 358c.3 157.4.5 171.2 2.1 180 6 32.7 16.8 58.7 34.4 83.2 7.1 9.9 23.1 26.9 32.9 34.9 23.8 19.4 52.6 33.3 81.8 39.4 22.2 4.6 27.5 4.7 207.6 4.3 185.1-.5 173.7-.1 197.8-6.3 48.7-12.3 92.5-45.7 117.6-89.5 13.8-24.3 22-50.7 24.6-79.5.8-8.2 1-66.1.7-183l-.3-171-2.2-11.5c-7.9-41.6-26.1-76.1-54.8-104.1C609.8 23.2 571 5.3 526 1.1c-14-1.3-339.8-1.3-353.5 0zm217.3 114.3c56.4 8.7 106.6 30.8 147.5 65.1 2.6 2.1 4.7 4.4 4.7 5 0 .5-11.8 12.8-26.2 27.2l-26.2 26.2-6-4.8c-14.7-11.7-39.4-25.4-57.6-31.9-61.3-22.2-127.4-18.2-184.4 11.1-11.4 5.8-24.5 14.2-33 21.2l-5.9 4.8-7.5-7.9c-4.1-4.3-16-16.5-26.5-27l-18.9-19.1 7.8-6.8c16-13.7 45.2-31.5 67.4-41.1 26.4-11.4 55.3-19.1 85-22.9 15.6-1.9 65.2-1.4 79.8.9zM372 263.5c34.8 5.4 64.2 19.6 88.7 42.9 29 27.6 44.7 57.7 50.9 97.4 2 12.8 2.3 42.7.5 55.2-5.3 38.1-19.8 68.3-46 95.4-24.3 25.1-52 39.9-88.6 47.3-13 2.6-55 2.6-68 0-34.8-7-60.5-20.5-84.3-44-26.8-26.3-42.8-58.9-47.8-96.9-1.9-14.6-1.9-42.4.1-56.1 5.9-42.2 25.7-77.8 58.5-105.1 26.2-21.9 53.8-33.7 87.8-37.6 10.6-1.2 35.6-.4 48.2 1.5z"/><path d="M331.9 329.1c-10.7 1-25.3 5.6-33.9 10.6-7.9 4.6-20.7 16.6-26.6 24.9-23.7 33.1-26.9 86.8-7.5 124.1 17.9 34.4 52.3 52.6 91.1 48.3 42.8-4.7 72.8-34.9 80.5-80.9 2.4-14.1 1.6-42.9-1.4-54.8-8.7-34.4-29.6-58.3-59.6-68.1-11.7-3.8-28.6-5.4-42.6-4.1z"/></svg>