<svg viewBox="0 0 20 20" xmlns="http://www.w3.org/2000/svg">
<path fill-rule="evenodd" clip-rule="evenodd" d="M13.3335 4.16667C12.8732 4.16667 12.5002 4.53977 12.5002 5C12.5002 5.46023 12.8732 5.83333 13.3335 5.83333C13.7937 5.83333 14.1668 5.46023 14.1668 5C14.1668 4.53977 13.7937 4.16667 13.3335 4.16667ZM10.8335 5C10.8335 3.61929 11.9527 2.5 13.3335 2.5C14.7142 2.5 15.8335 3.61929 15.8335 5C15.8335 6.38071 14.7142 7.5 13.3335 7.5C11.9527 7.5 10.8335 6.38071 10.8335 5Z"/>
<path fill-rule="evenodd" clip-rule="evenodd" d="M6.6665 9.16667C6.20627 9.16667 5.83317 9.53975 5.83317 10C5.83317 10.4602 6.20627 10.8333 6.6665 10.8333C7.12674 10.8333 7.49984 10.4602 7.49984 10C7.49984 9.53975 7.12674 9.16667 6.6665 9.16667ZM4.1665 10C4.1665 8.61925 5.2858 7.5 6.6665 7.5C8.04721 7.5 9.1665 8.61925 9.1665 10C9.1665 11.3807 8.04721 12.5 6.6665 12.5C5.2858 12.5 4.1665 11.3807 4.1665 10Z"/>
<path fill-rule="evenodd" clip-rule="evenodd" d="M13.3335 14.1667C12.8732 14.1667 12.5002 14.5397 12.5002 15C12.5002 15.4602 12.8732 15.8333 13.3335 15.8333C13.7937 15.8333 14.1668 15.4602 14.1668 15C14.1668 14.5397 13.7937 14.1667 13.3335 14.1667ZM10.8335 15C10.8335 13.6192 11.9527 12.5 13.3335 12.5C14.7142 12.5 15.8335 13.6192 15.8335 15C15.8335 16.3807 14.7142 17.5 13.3335 17.5C11.9527 17.5 10.8335 16.3807 10.8335 15Z"/>
<path fill-rule="evenodd" clip-rule="evenodd" d="M2.5 4.99996C2.5 4.53973 2.8731 4.16663 3.33333 4.16663H11.6667C12.1269 4.16663 12.5 4.53973 12.5 4.99996C12.5 5.46019 12.1269 5.83329 11.6667 5.83329H3.33333C2.8731 5.83329 2.5 5.46019 2.5 4.99996Z" />
<path fill-rule="evenodd" clip-rule="evenodd" d="M7.5 9.99996C7.5 9.53971 7.8731 9.16663 8.33333 9.16663H16.6667C17.1269 9.16663 17.5 9.53971 17.5 9.99996C17.5 10.4602 17.1269 10.8333 16.6667 10.8333H8.33333C7.8731 10.8333 7.5 10.4602 7.5 9.99996Z" />
<path fill-rule="evenodd" clip-rule="evenodd" d="M2.5 9.99996C2.5 9.53971 2.8731 9.16663 3.33333 9.16663H5C5.46023 9.16663 5.83333 9.53971 5.83333 9.99996C5.83333 10.4602 5.46023 10.8333 5 10.8333H3.33333C2.8731 10.8333 2.5 10.4602 2.5 9.99996Z" />
<path fill-rule="evenodd" clip-rule="evenodd" d="M14.1665 4.99996C14.1665 4.53973 14.5396 4.16663 14.9998 4.16663H16.6665C17.1268 4.16663 17.4998 4.53973 17.4998 4.99996C17.4998 5.46019 17.1268 5.83329 16.6665 5.83329H14.9998C14.5396 5.83329 14.1665 5.46019 14.1665 4.99996Z" />
<path fill-rule="evenodd" clip-rule="evenodd" d="M14.1665 15C14.1665 14.5397 14.5396 14.1666 14.9998 14.1666H16.6665C17.1268 14.1666 17.4998 14.5397 17.4998 15C17.4998 15.4602 17.1268 15.8333 16.6665 15.8333H14.9998C14.5396 15.8333 14.1665 15.4602 14.1665 15Z" />
<path fill-rule="evenodd" clip-rule="evenodd" d="M2.5 15C2.5 14.5397 2.8731 14.1666 3.33333 14.1666H11.6667C12.1269 14.1666 12.5 14.5397 12.5 15C12.5 15.4602 12.1269 15.8333 11.6667 15.8333H3.33333C2.8731 15.8333 2.5 15.4602 2.5 15Z" />
</svg>
