<svg width="23" height="23" viewBox="0 0 23 23" fill="none" xmlns="http://www.w3.org/2000/svg">
<path d="M8.88461 0.634646C8.88461 0.284157 9.16874 3.05176e-05 9.51923 3.05176e-05C9.86972 3.05176e-05 10.1538 0.284157 10.1538 0.634646V2.53849H8.88461V0.634646Z" fill="white" fill-opacity="0.7"/>
<path fill-rule="evenodd" clip-rule="evenodd" d="M6.34615 2.53849C5.90112 2.53849 5.47391 2.61484 5.07692 2.75516C3.99501 3.13756 3.13753 3.99504 2.75513 5.07695C2.61481 5.47394 2.53846 5.90115 2.53846 6.34618V8.88465V10.1539V12.6923V13.9616V16.5C2.53846 16.9451 2.61481 17.3723 2.75513 17.7693C3.13753 18.8512 3.99501 19.7087 5.07692 20.0911C5.47391 20.2314 5.90112 20.3077 6.34615 20.3077H8.88461H10.1538H12.6923H13.9615H16.5C16.945 20.3077 17.3722 20.2314 17.7692 20.0911C18.8511 19.7087 19.7086 18.8512 20.091 17.7693C20.2313 17.3723 20.3077 16.9451 20.3077 16.5V13.9616V12.6923V10.1539V8.88465V6.34618C20.3077 5.90115 20.2313 5.47394 20.091 5.07695C19.5683 3.59806 18.1579 2.53849 16.5 2.53849C14.3971 2.53849 6.34615 2.53849 6.34615 2.53849ZM9.53603 7.69972C9.85141 7.61335 10.1855 7.78224 10.2993 8.09496L12.5783 14.3566C12.6982 14.6859 12.5284 15.0501 12.1991 15.17C11.8697 15.2898 11.5055 15.12 11.3857 14.7907L10.6219 12.6923H8.41316L7.6314 14.8402C7.51152 15.1696 7.14736 15.3394 6.818 15.2195C6.48865 15.0996 6.31884 14.7355 6.43871 14.4061L8.73945 8.08487C8.85729 7.76111 9.21119 7.59152 9.53603 7.69972ZM9.51755 9.65806L10.16 11.4231H8.87512L9.51755 9.65806ZM14.5962 7.61542C14.2457 7.61542 13.9615 7.89954 13.9615 8.25003V14.5962C13.9615 14.9467 14.2457 15.2308 14.5962 15.2308C14.9466 15.2308 15.2308 14.9467 15.2308 14.5962V8.25003C15.2308 7.89954 14.9466 7.61542 14.5962 7.61542Z" fill="white" fill-opacity="0.7"/>
<path d="M17.1346 3.05176e-05C16.7841 3.05176e-05 16.5 0.284157 16.5 0.634646V2.53849C16.945 2.53849 17.3722 2.61484 17.7692 2.75516V0.634646C17.7692 0.284157 17.4851 3.05176e-05 17.1346 3.05176e-05Z" fill="white" fill-opacity="0.7"/>
<path d="M22.2115 5.07695H20.091C20.2313 5.47394 20.3077 5.90115 20.3077 6.34618L22.2115 6.34618C22.562 6.34618 22.8462 6.06206 22.8462 5.71157C22.8462 5.36108 22.562 5.07695 22.2115 5.07695Z" fill="white" fill-opacity="0.7"/>
<path d="M22.2115 8.88465H20.3077V10.1539H22.2115C22.562 10.1539 22.8462 9.86975 22.8462 9.51926C22.8462 9.16877 22.562 8.88465 22.2115 8.88465Z" fill="white" fill-opacity="0.7"/>
<path d="M13.3269 3.05176e-05C12.9764 3.05176e-05 12.6923 0.284157 12.6923 0.634646V2.53849H13.9615V0.634646C13.9615 0.284157 13.6774 3.05176e-05 13.3269 3.05176e-05Z" fill="white" fill-opacity="0.7"/>
<path d="M5.71154 3.05176e-05C5.36105 3.05176e-05 5.07692 0.284157 5.07692 0.634646V2.75516C5.47391 2.61484 5.90112 2.53849 6.34615 2.53849L6.34615 0.634646C6.34615 0.284157 6.06203 3.05176e-05 5.71154 3.05176e-05Z" fill="white" fill-opacity="0.7"/>
<path d="M0.634615 5.07695C0.284127 5.07695 0 5.36108 0 5.71157C0 6.06206 0.284127 6.34618 0.634615 6.34618L2.53846 6.34618C2.53846 5.90115 2.61481 5.47394 2.75513 5.07695H0.634615Z" fill="white" fill-opacity="0.7"/>
<path d="M0.634615 8.88465C0.284127 8.88465 0 9.16877 0 9.51926C0 9.86975 0.284127 10.1539 0.634615 10.1539H2.53846V8.88465H0.634615Z" fill="white" fill-opacity="0.7"/>
<path d="M22.2115 12.6923H20.3077V13.9616H22.2115C22.562 13.9616 22.8462 13.6774 22.8462 13.327C22.8462 12.9765 22.562 12.6923 22.2115 12.6923Z" fill="white" fill-opacity="0.7"/>
<path d="M22.2115 16.5H20.3077C20.3077 16.9451 20.2313 17.3723 20.091 17.7693H22.2115C22.562 17.7693 22.8462 17.4851 22.8462 17.1346C22.8462 16.7842 22.562 16.5 22.2115 16.5Z" fill="white" fill-opacity="0.7"/>
<path d="M17.7692 22.2116V20.0911C17.3722 20.2314 16.945 20.3077 16.5 20.3077L16.5 22.2116C16.5 22.5621 16.7841 22.8462 17.1346 22.8462C17.4851 22.8462 17.7692 22.5621 17.7692 22.2116Z" fill="white" fill-opacity="0.7"/>
<path d="M13.9615 22.2116V20.3077H12.6923V22.2116C12.6923 22.5621 12.9764 22.8462 13.3269 22.8462C13.6774 22.8462 13.9615 22.5621 13.9615 22.2116Z" fill="white" fill-opacity="0.7"/>
<path d="M10.1538 22.2116V20.3077H8.88461V22.2116C8.88461 22.5621 9.16874 22.8462 9.51923 22.8462C9.86972 22.8462 10.1538 22.5621 10.1538 22.2116Z" fill="white" fill-opacity="0.7"/>
<path d="M6.34615 22.2116L6.34615 20.3077C5.90112 20.3077 5.47391 20.2314 5.07692 20.0911V22.2116C5.07692 22.5621 5.36105 22.8462 5.71154 22.8462C6.06203 22.8462 6.34615 22.5621 6.34615 22.2116Z" fill="white" fill-opacity="0.7"/>
<path d="M0.634615 16.5C0.284127 16.5 0 16.7842 0 17.1346C0 17.4851 0.284127 17.7693 0.634615 17.7693H2.75513C2.61481 17.3723 2.53846 16.9451 2.53846 16.5L0.634615 16.5Z" fill="white" fill-opacity="0.7"/>
<path d="M0.634615 12.6923C0.284127 12.6923 0 12.9765 0 13.327C0 13.6774 0.284127 13.9616 0.634615 13.9616H2.53846V12.6923H0.634615Z" fill="white" fill-opacity="0.7"/>
</svg>
