<svg viewBox="0 0 13 7" xmlns="http://www.w3.org/2000/svg">
<path d="M9.33951 0.245605C9.25866 0.245625 9.17966 0.269766 9.1126 0.314939C9.04555 0.360112 8.9935 0.424263 8.96311 0.499184C8.93272 0.574106 8.92538 0.65639 8.94202 0.735509C8.95865 0.814628 8.99852 0.886983 9.05651 0.943319L11.0714 2.95817H0.947909C0.894076 2.95741 0.840629 2.96735 0.790673 2.98743C0.740717 3.0075 0.695249 3.03731 0.656912 3.07511C0.618574 3.1129 0.588131 3.15795 0.567352 3.20761C0.546574 3.25728 0.535873 3.31058 0.535873 3.36442C0.535873 3.41826 0.546574 3.47156 0.567352 3.52123C0.588131 3.57089 0.618574 3.61594 0.656912 3.65373C0.695249 3.69153 0.740717 3.72134 0.790673 3.74141C0.840629 3.76149 0.894076 3.77143 0.947909 3.77067H11.0714L9.05651 5.78552C9.01752 5.82296 8.98639 5.86779 8.96495 5.91741C8.94351 5.96702 8.93218 6.02042 8.93163 6.07446C8.93108 6.12851 8.94132 6.18212 8.96175 6.23216C8.98218 6.2822 9.01239 6.32767 9.05061 6.36588C9.08883 6.4041 9.13429 6.43431 9.18433 6.45474C9.23437 6.47517 9.28798 6.48541 9.34203 6.48486C9.39608 6.48431 9.44947 6.47299 9.49909 6.45154C9.5487 6.4301 9.59354 6.39897 9.63097 6.35998L12.3393 3.65165C12.4155 3.57546 12.4582 3.47215 12.4582 3.36442C12.4582 3.25669 12.4155 3.15338 12.3393 3.07719L9.63097 0.368856C9.59311 0.32986 9.5478 0.298858 9.49773 0.277688C9.44767 0.256517 9.39387 0.245608 9.33951 0.245605Z" />
</svg>
