<svg viewBox="0 0 14 18" xmlns="http://www.w3.org/2000/svg">
<path d="M7.00004 0.341797C6.74416 0.341797 6.48851 0.441219 6.29301 0.636719L0.636756 6.29297C0.245756 6.68297 0.245756 7.31603 0.636756 7.70703L0.722693 7.79297C1.11269 8.18397 1.74576 8.18397 2.13676 7.79297L6.00004 3.92969V17C6.00004 17.552 6.44804 18 7.00004 18C7.55204 18 8.00004 17.552 8.00004 17V3.92969L11.8633 7.79297C12.2533 8.18397 12.8864 8.18397 13.2774 7.79297L13.3633 7.70703C13.7543 7.31703 13.7543 6.68397 13.3633 6.29297L7.70707 0.636719C7.51207 0.441219 7.25591 0.341797 7.00004 0.341797Z" />
</svg>
