<svg viewBox="0 0 24 24" xmlns="http://www.w3.org/2000/svg">
<path d="M6.75 2C5.24011 2 4 3.24011 4 4.75V19.25C4 20.7599 5.24011 22 6.75 22H17.25C18.7599 22 20 20.7599 20 19.25V4.75C20 3.24011 18.7599 2 17.25 2H6.75ZM6.75 3.5H17.25C17.9491 3.5 18.5 4.05089 18.5 4.75V19.25C18.5 19.9491 17.9491 20.5 17.25 20.5H6.75C6.05089 20.5 5.5 19.9491 5.5 19.25V4.75C5.5 4.05089 6.05089 3.5 6.75 3.5ZM8.23047 5.49902C7.56007 5.49902 7 6.06007 7 6.73047V9.76953C7 10.4399 7.56007 11 8.23047 11H15.7695C16.4399 11 16.9997 10.4401 17.001 9.77051V6.73047C17.001 6.06007 16.4399 5.49902 15.7695 5.49902H8.23047ZM8.5 6.99902H15.501V9.5H8.5V6.99902ZM8.25 12.5C7.91848 12.5 7.60054 12.6317 7.36612 12.8661C7.1317 13.1005 7 13.4185 7 13.75C7 14.0815 7.1317 14.3995 7.36612 14.6339C7.60054 14.8683 7.91848 15 8.25 15C8.58152 15 8.89946 14.8683 9.13388 14.6339C9.3683 14.3995 9.5 14.0815 9.5 13.75C9.5 13.4185 9.3683 13.1005 9.13388 12.8661C8.89946 12.6317 8.58152 12.5 8.25 12.5ZM12 12.5C11.6685 12.5 11.3505 12.6317 11.1161 12.8661C10.8817 13.1005 10.75 13.4185 10.75 13.75C10.75 14.0815 10.8817 14.3995 11.1161 14.6339C11.3505 14.8683 11.6685 15 12 15C12.3315 15 12.6495 14.8683 12.8839 14.6339C13.1183 14.3995 13.25 14.0815 13.25 13.75C13.25 13.4185 13.1183 13.1005 12.8839 12.8661C12.6495 12.6317 12.3315 12.5 12 12.5ZM15.75 12.5C15.0595 12.5 14.5 13.0595 14.5 13.75V17.25C14.5 17.9405 15.0595 18.5 15.75 18.5C16.4405 18.5 17 17.9405 17 17.25V13.75C17 13.0595 16.4405 12.5 15.75 12.5ZM8.25 16C7.91848 16 7.60054 16.1317 7.36612 16.3661C7.1317 16.6005 7 16.9185 7 17.25C7 17.5815 7.1317 17.8995 7.36612 18.1339C7.60054 18.3683 7.91848 18.5 8.25 18.5C8.58152 18.5 8.89946 18.3683 9.13388 18.1339C9.3683 17.8995 9.5 17.5815 9.5 17.25C9.5 16.9185 9.3683 16.6005 9.13388 16.3661C8.89946 16.1317 8.58152 16 8.25 16ZM12 16C11.6685 16 11.3505 16.1317 11.1161 16.3661C10.8817 16.6005 10.75 16.9185 10.75 17.25C10.75 17.5815 10.8817 17.8995 11.1161 18.1339C11.3505 18.3683 11.6685 18.5 12 18.5C12.3315 18.5 12.6495 18.3683 12.8839 18.1339C13.1183 17.8995 13.25 17.5815 13.25 17.25C13.25 16.9185 13.1183 16.6005 12.8839 16.3661C12.6495 16.1317 12.3315 16 12 16Z" />
</svg>