<svg viewBox="0 0 50 50" xmlns="http://www.w3.org/2000/svg">
<path d="M13 3V8H8V45H23.1875C23.6055 46.1562 24.707 47 26 47H45C46.6445 47 48 45.6445 48 44V31C48 29.3555 46.6445 28 45 28H42V8H37V3H13ZM15 5H35V8H17V10H40V28H26C24.3555 28 23 29.3555 23 31V43H10V10H15V5ZM14 13V15H18V13H14ZM23 13V15H27V13H23ZM32 13V15H36V13H32ZM14 18V20H18V18H14ZM23 18V20H27V18H23ZM32 18V20H36V18H32ZM14 23V25H18V23H14ZM23 23V25H27V23H23ZM32 23V25H36V23H32ZM14 28V30H18V28H14ZM26 30H45C45.5664 30 46 30.4336 46 31V44C46 44.5664 45.5664 45 45 45H26C25.4336 45 25 44.5664 25 44V31C25 30.4336 25.4336 30 26 30ZM35.4727 32C33.0117 32.043 32.7148 33.8125 33.2539 35.8359C33.1602 35.8945 33 36.0742 33.043 36.3945C33.1172 36.9961 33.3633 37.1445 33.5273 37.1562C33.5859 37.7148 33.9648 38.375 34.168 38.4805C34.168 38.8789 34.1836 39.1836 34.1406 39.6211C33.6562 40.8984 30.1523 40.5391 30 43H41C40.8477 40.5391 37.3594 40.8984 36.8711 39.6211C36.832 39.1836 36.8438 38.8828 36.8438 38.4844C37.0469 38.3789 37.4102 37.7188 37.4727 37.1562C37.6328 37.1445 37.8867 36.9922 37.957 36.3945C38 36.0742 37.8398 35.8945 37.7461 35.8359C38.0039 35.0742 38.5469 32.7227 36.75 32.4805C36.5625 32.1602 36.0898 32 35.4727 32ZM14 33V35H18V33H14ZM14 38V40H18V38H14Z"/>
</svg>
