<svg viewBox="0 0 13 13" xmlns="http://www.w3.org/2000/svg">
  <path fill-rule="evenodd" clip-rule="evenodd" d="M0.319981 11.135C-0.10666 11.5617 -0.10666 12.2534 0.319981 12.68C0.746622 13.1067 1.43834 13.1067 1.86499 12.68L6.50006 8.04494L11.1351 12.68C11.5618 13.1067 12.2535 13.1067 12.6801 12.68C13.1068 12.2534 13.1068 11.5617 12.6801 11.135L8.04506 6.49994L12.68 1.86499C13.1067 1.43834 13.1067 0.746622 12.68 0.319981C12.2534 -0.10666 11.5617 -0.10666 11.135 0.319981L6.50006 4.95494L1.86511 0.319982C1.43846 -0.106659 0.746743 -0.106659 0.320102 0.319982C-0.10654 0.746624 -0.10654 1.43835 0.320102 1.86499L4.95505 6.49994L0.319981 11.135Z" />
</svg>
