<svg viewBox="0 0 48 48" xmlns="http://www.w3.org/2000/svg">
<path d="M24 0C10.766 0 0 10.766 0 24C0 37.234 10.766 48 24 48C37.234 48 48 37.234 48 24C48 10.766 37.234 0 24 0ZM37.978 20.088L35.804 32.754C35.68 33.474 35.056 34 34.326 34H13.674C12.944 34 12.32 33.474 12.196 32.754L10.022 20.088C9.926 19.534 10.15 18.972 10.6 18.634C11.052 18.294 11.65 18.24 12.158 18.486L17.946 21.304L22.69 12.77C23.218 11.816 24.784 11.816 25.312 12.77L30.056 21.304L35.844 18.486C36.35 18.24 36.95 18.294 37.402 18.634C37.85 18.972 38.074 19.534 37.978 20.088Z"/>
</svg>
