<svg viewBox="0 0 50 50" xmlns="http://www.w3.org/2000/svg">
<path d="M11 4C9.346 4 8 5.346 8 7V43C8 44.654 9.346 46 11 46H29.6172C29.2512 45.367 28.9453 44.699 28.6973 44H11C10.449 44 10 43.552 10 43V7C10 6.448 10.449 6 11 6H39C39.551 6 40 6.448 40 7V28C40.683 28 41.348 28.0697 42 28.1797V7C42 5.346 40.654 4 39 4H11ZM12 8V9V18H38V8H12ZM14 10H36V16H14V10ZM24 12V14H26V12H24ZM28 12V14H30V12H28ZM32 12V14H34V12H32ZM13 22C12.448 22 12 22.447 12 23V41C12 41.553 12.448 42 13 42H28.1797C28.0697 41.348 28 40.683 28 40H26V36H28.6973C28.9453 35.301 29.2512 34.633 29.6172 34H26V30H30V33.3711C30.565 32.5201 31.242 31.7532 32 31.0742V30H33.3711C34.182 29.4616 35.0656 29.025 36 28.6973C36.0006 28.6971 36.0014 28.6975 36.002 28.6973C36.2229 28.6191 36.4495 28.5555 36.6758 28.4902C36.7839 28.4591 36.8888 28.4208 36.998 28.3926C36.9987 28.3924 36.9994 28.3927 37 28.3926C37.3278 28.3081 37.6615 28.2367 38 28.1797V23C38 22.447 37.552 22 37 22H13ZM14 24H18V28H14V24ZM20 24H24V28H20V24ZM26 24H30V28H26V24ZM32 24H36V28H32V24ZM14 30H18V34H14V30ZM20 30H24V34H20V30ZM40 30C34.5 30 30 34.5 30 40C30 45.5 34.5 50 40 50C45.5 50 50 45.5 50 40C50 34.5 45.5 30 40 30ZM40 32C44.4 32 48 35.6 48 40C48 44.4 44.4 48 40 48C35.6 48 32 44.4 32 40C32 35.6 35.6 32 40 32ZM39.6992 33.4004V34.9004C38.7992 34.9004 36.9004 35.5992 36.9004 37.6992C36.9004 41.1992 41.4004 40.3 41.4004 42.5C41.4004 42.7 41.3996 43.6992 40.0996 43.6992C38.5996 43.6992 38.5996 42.3 38.5996 42H36.5996C36.5996 45 39.1996 45.3008 39.5996 45.3008V46.6992H40.6992V45.3008C41.0992 45.3008 43.5 45 43.5 42.5C43.5 39 39 39.7992 39 37.6992C39 37.4992 38.9996 36.5004 40.0996 36.4004C41.2996 36.4004 41.4004 37.4996 41.4004 38.0996H43.4004C43.4004 35.4996 41.5008 35.0004 40.8008 34.9004V33.4004H39.6992ZM14 36H18V40H14V36ZM20 36H24V40H20V36Z"/>
</svg>
