<svg viewBox="0 0 32 32" xmlns="http://www.w3.org/2000/svg">
<path d="M25.4808 5.32407C25.4508 5.32497 25.4209 5.32749 25.3912 5.33162H17.763C17.6532 5.33007 17.5442 5.35036 17.4423 5.3913C17.3404 5.43225 17.2477 5.49304 17.1695 5.57014C17.0913 5.64724 17.0292 5.73911 16.9868 5.84042C16.9444 5.94172 16.9226 6.05044 16.9226 6.16026C16.9226 6.27007 16.9444 6.3788 16.9868 6.4801C17.0292 6.58141 17.0913 6.67328 17.1695 6.75038C17.2477 6.82748 17.3404 6.88827 17.4423 6.92922C17.5442 6.97016 17.6532 6.99045 17.763 6.9889H23.4966L14.9675 15.518C14.8879 15.5944 14.8245 15.6858 14.7807 15.787C14.737 15.8882 14.7139 15.9971 14.7127 16.1074C14.7116 16.2176 14.7325 16.327 14.7742 16.429C14.8159 16.5311 14.8775 16.6238 14.9554 16.7018C15.0334 16.7798 15.1261 16.8414 15.2282 16.883C15.3303 16.9247 15.4396 16.9456 15.5498 16.9445C15.6601 16.9434 15.769 16.9203 15.8702 16.8765C15.9714 16.8328 16.0629 16.7693 16.1392 16.6898L24.6683 8.16064V13.8942C24.6668 14.004 24.6871 14.113 24.728 14.2149C24.769 14.3168 24.8297 14.4095 24.9068 14.4877C24.9839 14.5659 25.0758 14.628 25.1771 14.6704C25.2784 14.7128 25.3872 14.7346 25.497 14.7346C25.6068 14.7346 25.7155 14.7128 25.8168 14.6704C25.9181 14.628 26.01 14.5659 26.0871 14.4877C26.1642 14.4095 26.225 14.3168 26.2659 14.2149C26.3069 14.113 26.3272 14.004 26.3256 13.8942V6.26492C26.3419 6.1457 26.3321 6.02435 26.2968 5.90931C26.2615 5.79427 26.2016 5.6883 26.1212 5.59877C26.0408 5.50923 25.9418 5.43828 25.8312 5.39084C25.7207 5.34341 25.6011 5.32062 25.4808 5.32407ZM9.47668 6.9889C7.1982 6.9889 5.3335 8.8536 5.3335 11.1321V22.1806C5.3335 24.459 7.1982 26.3237 9.47668 26.3237H20.5252C22.8036 26.3237 24.6683 24.459 24.6683 22.1806V16.6563C24.6699 16.5465 24.6496 16.4375 24.6087 16.3356C24.5677 16.2337 24.5069 16.141 24.4298 16.0628C24.3527 15.9846 24.2608 15.9225 24.1595 15.8801C24.0582 15.8377 23.9495 15.8159 23.8397 15.8159C23.7299 15.8159 23.6212 15.8377 23.5199 15.8801C23.4185 15.9225 23.3267 15.9846 23.2496 16.0628C23.1725 16.141 23.1117 16.2337 23.0707 16.3356C23.0298 16.4375 23.0095 16.5465 23.0111 16.6563V22.1806C23.0111 23.5635 21.9081 24.6665 20.5252 24.6665H9.47668C8.09368 24.6665 6.99077 23.5635 6.99077 22.1806V11.1321C6.99077 9.74908 8.09368 8.64617 9.47668 8.64617H15.0009C15.1107 8.64772 15.2197 8.62743 15.3216 8.58649C15.4235 8.54554 15.5163 8.48475 15.5945 8.40765C15.6727 8.33055 15.7348 8.23868 15.7771 8.13737C15.8195 8.03607 15.8414 7.92735 15.8414 7.81753C15.8414 7.70772 15.8195 7.599 15.7771 7.49769C15.7348 7.39638 15.6727 7.30451 15.5945 7.22741C15.5163 7.15031 15.4235 7.08952 15.3216 7.04857C15.2197 7.00763 15.1107 6.98734 15.0009 6.9889H9.47668Z" />
</svg>
