<svg viewBox="0 0 32 32" fill="none" xmlns="http://www.w3.org/2000/svg">
  <path d="M16 2.66667C8.63602 2.66667 2.66669 8.636 2.66669 16C2.66669 23.364 8.63602 29.3333 16 29.3333C23.364 29.3333 29.3334 23.364 29.3334 16C29.3334 8.636 23.364 2.66667 16 2.66667Z" fill="#118BE4"/>
  <path d="M17.8047 19.534H21.2553L21.7973 16.0287H17.8047V14.1127C17.8047 12.6567 18.2807 11.3653 19.6427 11.3653H21.8313V8.30666C21.4467 8.25466 20.6333 8.14133 19.0967 8.14133C15.8873 8.14133 14.006 9.83599 14.006 13.6973V16.0293H10.7067V19.5347H14.0053V29.1693C14.6587 29.2667 15.3207 29.3333 16 29.3333C16.614 29.3333 17.2133 29.2773 17.8047 29.1973V19.534Z" fill="white"/>
</svg>