<svg viewBox="0 0 21 21" xmlns="http://www.w3.org/2000/svg">
<path d="M10.4786 1.75007C10.3387 1.75485 10.204 1.80426 10.0941 1.89106L3.87598 6.78987C3.08677 7.41183 2.625 8.36223 2.625 9.36702V17.7188C2.625 18.3154 3.12218 18.8126 3.71875 18.8126H8.09375C8.69032 18.8126 9.1875 18.3154 9.1875 17.7188V13.3438C9.1875 13.2147 9.27717 13.1251 9.40625 13.1251H11.5938C11.7228 13.1251 11.8125 13.2147 11.8125 13.3438V17.7188C11.8125 18.3154 12.3097 18.8126 12.9062 18.8126H17.2812C17.8778 18.8126 18.375 18.3154 18.375 17.7188V9.36702C18.375 8.36223 17.9132 7.41183 17.124 6.78987L10.9059 1.89106C10.7845 1.7952 10.6332 1.74526 10.4786 1.75007ZM10.5 3.24202L16.3123 7.82124C16.7866 8.19503 17.0625 8.76355 17.0625 9.36702V17.5001H13.125V13.3438C13.125 12.506 12.4315 11.8126 11.5938 11.8126H9.40625C8.56846 11.8126 7.875 12.506 7.875 13.3438V17.5001H3.9375V9.36702C3.9375 8.76355 4.21345 8.19503 4.68774 7.82124L10.5 3.24202Z" />
</svg>