<svg viewBox="0 0 24 24" xmlns="http://www.w3.org/2000/svg">
<path d="M12 2.04785C11.3978 2.04785 10.7954 2.24371 10.2979 2.63574L4.42969 7.25977C3.52774 7.97058 3 9.05675 3 10.2051V18.75C3 19.9837 4.01625 21 5.25 21H18.75C19.9838 21 21 19.9837 21 18.75V10.2051C21 9.05675 20.4723 7.97058 19.5703 7.25977L13.7012 2.63574C13.2036 2.24371 12.6022 2.04785 12 2.04785ZM12 3.54395C12.2726 3.54395 12.545 3.63448 12.7734 3.81445L18.6426 8.43848C19.1846 8.86566 19.5 9.5154 19.5 10.2051V18.75C19.5 19.1732 19.1733 19.5 18.75 19.5H5.25C4.82675 19.5 4.5 19.1732 4.5 18.75V10.2051C4.5 9.5154 4.81537 8.86566 5.35742 8.43848L11.2266 3.81445C11.455 3.63448 11.7274 3.54395 12 3.54395ZM12 7C11.62 7 11.313 7.30848 11.3135 7.68848V8.39258C10.068 8.48258 9.07812 9.51423 9.07812 10.7822C9.07812 12.1087 10.1579 13.1885 11.4844 13.1885H12.6875C13.256 13.1885 13.7188 13.6502 13.7188 14.2187C13.7188 14.7872 13.256 15.25 12.6875 15.25H11.3389C10.7004 15.25 10.3006 14.9852 10.0791 14.7637C9.8106 14.4952 9.37592 14.4952 9.10742 14.7637C8.83892 15.0322 8.83892 15.4678 9.10742 15.7363C9.67492 16.3038 10.4575 16.6156 11.3125 16.6221V17.3125C11.3125 17.692 11.62 18 12 18C12.38 18 12.6875 17.692 12.6875 17.3125V16.625C14.014 16.625 15.0928 15.5443 15.0928 14.2178C15.0928 12.8913 14.013 11.8115 12.6865 11.8115H11.4844C10.9159 11.8115 10.4531 11.3497 10.4531 10.7812C10.4531 10.2127 10.9159 9.75 11.4844 9.75H12.541C13.1856 9.75 13.4821 10.1205 13.4854 10.1221V10.123C13.6905 10.4415 14.1153 10.5315 14.4346 10.3271C14.7536 10.1211 14.8456 9.69595 14.6396 9.37695C14.4256 9.04595 13.7485 8.43877 12.6875 8.38476V7.6875C12.6875 7.308 12.38 7 12 7Z" />
</svg>
