<svg viewBox="0 0 30 30" xmlns="http://www.w3.org/2000/svg">
<path d="M3.4375 3.12497C3.31327 3.12321 3.18993 3.14617 3.07465 3.19249C2.95936 3.23882 2.85444 3.30759 2.76597 3.39482C2.6775 3.48205 2.60724 3.58599 2.55929 3.70061C2.51134 3.81523 2.48665 3.93823 2.48665 4.06247C2.48665 4.18671 2.51134 4.30972 2.55929 4.42433C2.60724 4.53895 2.6775 4.64289 2.76597 4.73012C2.85444 4.81735 2.95936 4.88613 3.07465 4.93245C3.18993 4.97878 3.31327 5.00173 3.4375 4.99997H3.75V12.5244C2.69375 12.6744 1.875 13.5875 1.875 14.6875V21.5625C1.875 22.0812 2.29375 22.5 2.8125 22.5H12.5V21.5625V20.625V16.25H10.625C10.28 16.25 10 16.53 10 16.875V20.625H3.75V14.6875C3.75 14.5125 3.8875 14.375 4.0625 14.375H4.6875C5.20625 14.375 5.625 13.9562 5.625 13.4375V4.99997H17.5V10.625H19.375V4.99997H19.6875C19.8117 5.00173 19.9351 4.97878 20.0504 4.93245C20.1656 4.88613 20.2706 4.81735 20.359 4.73012C20.4475 4.64289 20.5178 4.53895 20.5657 4.42433C20.6137 4.30972 20.6384 4.18671 20.6384 4.06247C20.6384 3.93823 20.6137 3.81523 20.5657 3.70061C20.5178 3.58599 20.4475 3.48205 20.359 3.39482C20.2706 3.30759 20.1656 3.23882 20.0504 3.19249C19.9351 3.14617 19.8117 3.12321 19.6875 3.12497H3.4375ZM8.75 7.49997C8.405 7.49997 8.125 7.77997 8.125 8.12497V9.37497C8.125 9.71997 8.405 9.99997 8.75 9.99997H10C10.345 9.99997 10.625 9.71997 10.625 9.37497V8.12497C10.625 7.77997 10.345 7.49997 10 7.49997H8.75ZM13.125 7.49997C12.78 7.49997 12.5 7.77997 12.5 8.12497V9.37497C12.5 9.71997 12.78 9.99997 13.125 9.99997H14.375C14.72 9.99997 15 9.71997 15 9.37497V8.12497C15 7.77997 14.72 7.49997 14.375 7.49997H13.125ZM8.75 11.875C8.405 11.875 8.125 12.155 8.125 12.5V13.75C8.125 14.095 8.405 14.375 8.75 14.375H10C10.345 14.375 10.625 14.095 10.625 13.75V12.5C10.625 12.155 10.345 11.875 10 11.875H8.75ZM16.5625 11.875C15.0156 11.875 13.75 13.1406 13.75 14.6875V25.9375C13.75 26.455 14.17 26.875 14.6875 26.875H27.1875C27.705 26.875 28.125 26.455 28.125 25.9375V14.6875C28.125 13.1406 26.8594 11.875 25.3125 11.875H16.5625ZM16.5625 13.75H25.3125C25.83 13.75 26.25 14.17 26.25 14.6875V25H15.625V14.6875C15.625 14.17 16.045 13.75 16.5625 13.75ZM6.25 16.25C5.905 16.25 5.625 16.53 5.625 16.875V18.125C5.625 18.47 5.905 18.75 6.25 18.75H7.5C7.845 18.75 8.125 18.47 8.125 18.125V16.875C8.125 16.53 7.845 16.25 7.5 16.25H6.25ZM18.125 16.25C17.78 16.25 17.5 16.53 17.5 16.875V18.125C17.5 18.47 17.78 18.75 18.125 18.75H19.375C19.72 18.75 20 18.47 20 18.125V16.875C20 16.53 19.72 16.25 19.375 16.25H18.125ZM22.5 16.25C22.155 16.25 21.875 16.53 21.875 16.875V18.125C21.875 18.47 22.155 18.75 22.5 18.75H23.75C24.095 18.75 24.375 18.47 24.375 18.125V16.875C24.375 16.53 24.095 16.25 23.75 16.25H22.5ZM18.125 20.625C17.78 20.625 17.5 20.905 17.5 21.25V22.5C17.5 22.845 17.78 23.125 18.125 23.125H19.375C19.72 23.125 20 22.845 20 22.5V21.25C20 20.905 19.72 20.625 19.375 20.625H18.125ZM22.5 20.625C22.155 20.625 21.875 20.905 21.875 21.25V22.5C21.875 22.845 22.155 23.125 22.5 23.125H23.75C24.095 23.125 24.375 22.845 24.375 22.5V21.25C24.375 20.905 24.095 20.625 23.75 20.625H22.5Z" />
</svg>