<svg viewBox="0 0 70 55" xmlns="http://www.w3.org/2000/svg">
<path d="M67.2656 46.7219V21.0827L67.6763 21.4848C68.2158 22.0131 69.0815 22.004 69.6097 21.4645C70.1379 20.9248 70.1287 20.0593 69.5892 19.531C69.5721 19.5143 50.8993 1.22955 50.0384 0.390366C49.5068 -0.130122 48.657 -0.130122 48.1254 0.390366L40.1458 8.20329H30.4883V5.46892H31.8555C32.6106 5.46892 33.2227 4.85669 33.2227 4.10173C33.2227 3.34677 32.6106 2.73455 31.8555 2.73455H18.1836C17.4285 2.73455 16.8164 3.34677 16.8164 4.10173C16.8164 4.85669 17.4285 5.46892 18.1836 5.46892H19.5508V8.20329H6.83594C6.31805 8.20329 5.84473 8.49587 5.61312 8.95908L0.144375 19.8966C-0.0675391 20.3204 -0.0448438 20.8237 0.204258 21.2267C0.453223 21.6298 0.89332 21.8752 1.36719 21.8752H5.46875V42.3856C4.07641 43.4326 3.13318 44.976 2.83541 46.6846C1.1915 47.2193 0 48.7662 0 50.5861C0 52.8477 1.83996 54.6877 4.10156 54.6877H28.8477C29.6028 54.6877 30.2148 54.0754 30.2148 53.3205C30.2148 52.5655 29.6028 51.9533 28.8477 51.9533H21.6398C21.7916 51.5254 21.875 51.0654 21.875 50.5861C21.875 50.1066 21.7908 49.647 21.6389 49.2175H48.361C48.2092 49.647 48.125 50.1068 48.125 50.5861C48.125 51.0654 48.2084 51.5254 48.3602 51.9533H41.1523C40.3972 51.9533 39.7852 52.5655 39.7852 53.3205C39.7852 54.0754 40.3972 54.6877 41.1523 54.6877H65.8984C68.16 54.6877 70 52.8477 70 50.5861C70 48.804 68.8565 47.2864 67.2656 46.7219ZM49.082 3.28074L64.5312 18.4058V42.3883C63.3879 41.5277 61.9678 41.0158 60.4297 41.0158C59.9683 41.0158 59.5103 41.0638 59.0625 41.1561V23.2424C59.0625 22.4874 58.4504 21.8752 57.6953 21.8752H40.4688C39.7137 21.8752 39.1016 22.4874 39.1016 23.2424V46.4845H33.6328V18.4058L49.082 3.28074ZM51.0971 46.4845H41.8359V38.2814H56.3281V42.4044C55.8238 42.7886 55.3727 43.2406 54.9905 43.7503C54.9806 43.7502 54.9708 43.7502 54.9609 43.7502C53.1789 43.7502 51.6618 44.8938 51.0971 46.4845ZM56.3281 24.6095V35.547H50.4492V24.6095H56.3281ZM47.7148 35.547H41.8359V24.6095H47.7148V35.547ZM22.2852 5.46892H27.7539V8.20329H22.2852V5.46892ZM7.68086 10.9363H37.3528C36.6513 11.623 29.2774 18.8433 28.9734 19.1408H3.5793L7.68086 10.9363ZM29.5312 21.8752C29.8888 21.8752 30.2322 21.7352 30.4877 21.485L30.8984 21.0829V46.4845H18.9029C18.3382 44.8938 16.8209 43.7502 15.0391 43.7502C15.0291 43.7502 15.0192 43.7502 15.0094 43.7503C13.7277 42.0428 11.7219 41.0158 9.57031 41.0158C9.10943 41.0158 8.65156 41.0638 8.20312 41.1552V21.8752H29.5312ZM19.1406 50.5861C19.1406 51.34 18.5273 51.9533 17.7734 51.9533H4.10156C3.3477 51.9533 2.73438 51.34 2.73438 50.5861C2.73438 49.8322 3.3477 49.2189 4.10156 49.2189C4.85666 49.2189 5.46875 48.6067 5.46875 47.8517C5.46875 45.5851 7.30967 43.7502 9.57031 43.7502C11.0567 43.7502 12.4301 44.5773 13.1545 45.9088C13.6798 46.8742 14.6277 46.5544 15.0516 46.4845C15.7998 46.4915 16.4061 47.1021 16.4061 47.8517C16.4061 48.6067 17.0182 49.2189 17.7733 49.2189C18.5273 49.2189 19.1406 49.8324 19.1406 50.5861ZM65.8984 51.9533H52.2266C51.4727 51.9533 50.8594 51.34 50.8594 50.5861C50.8594 49.8322 51.4727 49.2189 52.2266 49.2189C52.9817 49.2189 53.5938 48.6067 53.5938 47.8517C53.5938 47.1021 54.2002 46.4915 54.9482 46.4845C55.0674 46.5042 56.2537 46.9966 56.8453 45.9088C57.2095 45.2396 57.7428 44.6857 58.3904 44.3054C59.0056 43.9421 59.7107 43.75 60.4297 43.75C62.6913 43.75 64.5312 45.59 64.5312 47.8516C64.5312 48.6066 65.1433 49.2188 65.8984 49.2188C66.6523 49.2188 67.2656 49.8321 67.2656 50.586C67.2656 51.3398 66.6523 51.9533 65.8984 51.9533Z"/>
<path d="M12.3047 41.0157H26.7969C27.552 41.0157 28.1641 40.4035 28.1641 39.6486V28.7111C28.1641 27.9561 27.552 27.3439 26.7969 27.3439H12.3047C11.5496 27.3439 10.9375 27.9561 10.9375 28.7111V39.6486C10.9375 40.4037 11.5496 41.0157 12.3047 41.0157ZM13.6719 35.547H18.1836V38.2814H13.6719V35.547ZM20.918 38.2814V35.547H25.4297V38.2814H20.918ZM25.4297 32.8126H20.918V30.0782H25.4297V32.8126ZM18.1836 30.0782V32.8126H13.6719V30.0782H18.1836Z"/>
<path d="M49.082 16.4064C51.3436 16.4064 53.1836 14.5664 53.1836 12.3048C53.1836 10.0432 51.3436 8.20325 49.082 8.20325C46.8204 8.20325 44.9805 10.0432 44.9805 12.3048C44.9805 14.5664 46.8204 16.4064 49.082 16.4064ZM49.082 10.9376C49.8359 10.9376 50.4492 11.5509 50.4492 12.3048C50.4492 13.0587 49.8359 13.672 49.082 13.672C48.3282 13.672 47.7148 13.0587 47.7148 12.3048C47.7148 11.5509 48.3282 10.9376 49.082 10.9376Z"/>
<path d="M35 54.6876C35.7551 54.6876 36.3672 54.0755 36.3672 53.3204C36.3672 52.5654 35.7551 51.9532 35 51.9532C34.2449 51.9532 33.6328 52.5654 33.6328 53.3204C33.6328 54.0755 34.2449 54.6876 35 54.6876Z"/>
</svg>
