<svg viewBox="0 0 70 70" xmlns="http://www.w3.org/2000/svg">
<path d="M68.8334 67.6665H64.0946C64.1443 67.2831 64.1668 66.8917 64.1668 66.4999C64.1668 63.2069 62.2717 60.4038 59.5001 59.1058V19.8332C59.5001 19.1332 59.0335 18.6666 58.3335 18.6666H40.8335V1.16662C40.8335 0.466621 40.3669 3.00356e-08 39.6669 3.00356e-08H8.16689C7.46662 -0.000136689 7 0.466484 7 1.16648V67.6665H1.16662C0.466621 67.6665 0 68.1331 0 68.8331C0 69.5331 0.466621 69.9999 1.16662 69.9999H8.16662H11.6666H39.6666H62.65H68.8334C69.5334 69.9999 70 69.5332 70 68.8332C70 68.1332 69.5334 67.6665 68.8334 67.6665ZM57.1666 58.4155C56.7859 58.3624 56.3968 58.3331 56 58.3331C55.1193 58.3331 54.2553 58.4831 53.4391 58.7635C53.2358 58.4925 52.9081 58.3331 52.5 58.3331C51.8 58.3331 51.3334 58.7997 51.3334 59.4997V59.8572C50.8912 60.1758 50.4801 60.5392 50.107 60.9432C50.0481 61.0055 49.9901 61.0687 49.9334 61.133C48.9666 59.9245 47.7214 59.0503 46.3135 58.6247C46.1113 58.4392 45.8325 58.333 45.5 58.333C45.37 58.333 45.248 58.3492 45.1355 58.38C44.8721 58.3492 44.6045 58.333 44.3334 58.333C43.6022 58.333 42.7789 58.4278 42.1118 58.6987C42.0293 58.7266 41.9472 58.7553 41.866 58.7861C41.0598 58.1306 40.1168 57.6588 39.1232 57.3992C39.1126 57.3963 39.1018 57.3943 39.0914 57.3914C39.0048 57.3691 38.9178 57.3479 38.8304 57.3289C38.7596 57.3133 38.688 57.2998 38.6165 57.2864C38.5854 57.2806 38.5544 57.2745 38.5232 57.2692C38.4482 57.2562 38.3728 57.2447 38.297 57.2342C38.2631 57.2294 38.2292 57.2251 38.1951 57.2209C38.1255 57.2123 38.0557 57.2042 37.9854 57.1978C37.9341 57.193 37.8827 57.1894 37.8313 57.1858C37.7763 57.1819 37.7215 57.1774 37.6662 57.1748C37.5553 57.1695 37.4444 57.1662 37.3334 57.1662C37.2475 57.1662 37.1623 57.168 37.0776 57.1711C37.0221 57.173 36.9667 57.1765 36.9113 57.1796C36.8892 57.181 36.8668 57.1819 36.8446 57.1834C35.7818 57.254 34.7375 57.5539 33.8332 58.0852V20.9999H39.6666H57.1666V58.4155ZM9.33338 2.33324H38.5V18.6666H32.6666C31.9666 18.6666 31.5 19.1332 31.5 19.8332V56.1166C30.9038 55.5204 30.2165 55.016 29.4682 54.6213C29.4022 54.5861 29.3355 54.5519 29.2685 54.5185C29.2421 54.5055 29.216 54.492 29.1895 54.4793C28.3568 54.0754 27.4508 53.8104 26.504 53.7113C26.4908 53.71 26.4774 53.7089 26.464 53.7075C26.354 53.6966 26.2436 53.688 26.1326 53.6815C26.1032 53.6797 26.0738 53.678 26.0442 53.6765C25.9189 53.6706 25.7931 53.6666 25.6666 53.6666C23.9303 53.6666 22.3217 54.2377 21 55.1975V54.8334C21 54.1334 20.5334 53.6668 19.8334 53.6668C19.1334 53.6668 18.6668 54.1334 18.6668 54.8334V57.1668C18.6668 57.3418 18.6959 57.5021 18.7506 57.6443C18.1777 58.5884 17.783 59.6526 17.6168 60.7835C16.2736 60.937 15.0455 61.4204 14.0001 62.1429V61.8335C14.0001 61.1335 13.5335 60.6669 12.8335 60.6669C12.1335 60.6669 11.6669 61.1335 11.6669 61.8335V64.1669C11.6669 64.3031 11.6851 64.4301 11.7187 64.5468C11.1403 65.4824 10.7466 66.541 10.5845 67.6668H9.33365V2.33324H9.33338ZM18.1357 63.0241C18.1588 63.022 18.1822 63.0206 18.2055 63.0189C18.267 63.0141 18.3285 63.0094 18.3906 63.0066C18.4821 63.0025 18.5741 62.9997 18.6668 62.9997C19.3668 62.9997 19.8334 62.5331 19.8334 61.8331C19.8334 58.5665 22.4 55.9997 25.6668 55.9997C28.5834 55.9997 31.0334 58.0997 31.3834 61.0163C31.4623 61.3319 31.6496 61.5919 31.9058 61.7647C31.9219 61.7761 31.9385 61.7868 31.9553 61.7973C31.9733 61.8084 31.9912 61.8196 32.01 61.8297C32.053 61.8535 32.0979 61.8752 32.1446 61.8939C32.1464 61.8946 32.148 61.8953 32.1498 61.8961C32.2033 61.9175 32.2591 61.9354 32.3166 61.9497C32.3168 61.9497 32.3168 61.9497 32.3169 61.9499C32.3863 61.973 32.4652 61.9819 32.5486 61.9793C32.9321 61.9849 33.2888 61.7751 33.4834 61.4835C33.4834 61.4834 33.4835 61.4834 33.4837 61.4832L33.6003 61.3666C34.5337 60.2 35.8169 59.5 37.3337 59.5C38.1214 59.5 38.9088 59.7207 39.6155 60.1333C38.2238 61.4418 37.4347 63.1477 37.3429 64.9728C37.3368 65.0922 37.3337 65.2125 37.3337 65.3334C37.3337 66.1447 37.4686 66.9222 37.7356 67.6668H12.95C13.4961 65.1548 15.5755 63.2566 18.1357 63.0241ZM40.4898 67.6665C40.0441 66.9126 39.7834 66.0213 39.7834 65.2165C39.7834 63.9264 40.292 62.7642 41.1662 61.9146C41.3332 61.7597 41.5114 61.6167 41.6995 61.4872C41.8817 61.4886 42.0651 61.4506 42.2334 61.3665C44.8 59.9665 47.8334 61.2499 48.7668 63.8165C48.8834 64.1665 49.2334 64.5165 49.8168 64.5165C49.9275 64.5165 50.05 64.4812 50.173 64.4186C50.4658 64.3706 50.6972 64.1557 50.8668 63.8165C51.3189 62.8558 52.0189 62.0888 52.8709 61.5511C53.0548 61.4998 53.2127 61.409 53.3384 61.2858C54.1397 60.883 55.048 60.6665 56.0001 60.6665C59.2668 60.6665 61.8335 63.2331 61.8335 66.4999C61.8335 66.8499 61.8335 67.3165 61.7169 67.6665H40.4898Z"/>
<path d="M38.4996 30.3326C37.7996 30.3326 37.333 30.7993 37.333 31.4993V33.8326C37.333 34.5326 37.7996 34.9993 38.4996 34.9993C39.1996 34.9993 39.6663 34.5326 39.6663 33.8326V31.4993C39.6663 30.7993 39.1996 30.3326 38.4996 30.3326Z"/>
<path d="M38.4996 51.3328C37.7996 51.3328 37.333 51.7994 37.333 52.4994V54.8328C37.333 55.5328 37.7996 55.9994 38.4996 55.9994C39.1996 55.9994 39.6663 55.5328 39.6663 54.8328V52.4994C39.6663 51.7994 39.1996 51.3328 38.4996 51.3328Z"/>
<path d="M38.4996 37.3328C37.7996 37.3328 37.333 37.7994 37.333 38.4994V40.8328C37.333 41.5328 37.7996 41.9994 38.4996 41.9994C39.1996 41.9994 39.6663 41.5328 39.6663 40.8328V38.4994C39.6663 37.7994 39.1996 37.3328 38.4996 37.3328Z"/>
<path d="M38.4996 44.3328C37.7996 44.3328 37.333 44.7994 37.333 45.4994V47.8328C37.333 48.5328 37.7996 48.9994 38.4996 48.9994C39.1996 48.9994 39.6663 48.5328 39.6663 47.8328V45.4994C39.6663 44.7994 39.1996 44.3328 38.4996 44.3328Z"/>
<path d="M38.4996 23.3329C37.7996 23.3329 37.333 23.7995 37.333 24.4995V26.8329C37.333 27.5329 37.7996 27.9995 38.4996 27.9995C39.1996 27.9995 39.6663 27.5329 39.6663 26.8329V24.4995C39.6663 23.7995 39.1996 23.3329 38.4996 23.3329Z"/>
<path d="M45.4996 34.9993C46.1996 34.9993 46.6663 34.5326 46.6663 33.8326V31.4993C46.6663 30.7993 46.1996 30.3326 45.4996 30.3326C44.7996 30.3326 44.333 30.7993 44.333 31.4993V33.8326C44.333 34.5326 44.7996 34.9993 45.4996 34.9993Z"/>
<path d="M45.4996 27.9995C46.1996 27.9995 46.6663 27.5329 46.6663 26.8329V24.4995C46.6663 23.7995 46.1996 23.3329 45.4996 23.3329C44.7996 23.3329 44.333 23.7995 44.333 24.4995V26.8329C44.333 27.5329 44.7996 27.9995 45.4996 27.9995Z"/>
<path d="M45.4996 41.9994C46.1996 41.9994 46.6663 41.5328 46.6663 40.8328V38.4994C46.6663 37.7994 46.1996 37.3328 45.4996 37.3328C44.7996 37.3328 44.333 37.7994 44.333 38.4994V40.8328C44.333 41.5328 44.7996 41.9994 45.4996 41.9994Z"/>
<path d="M45.4996 48.9994C46.1996 48.9994 46.6663 48.5328 46.6663 47.8328V45.4994C46.6663 44.7994 46.1996 44.3328 45.4996 44.3328C44.7996 44.3328 44.333 44.7994 44.333 45.4994V47.8328C44.333 48.5328 44.7996 48.9994 45.4996 48.9994Z"/>
<path d="M45.4996 55.9994C46.1996 55.9994 46.6663 55.5328 46.6663 54.8328V52.4994C46.6663 51.7994 46.1996 51.3328 45.4996 51.3328C44.7996 51.3328 44.333 51.7994 44.333 52.4994V54.8328C44.333 55.5328 44.7996 55.9994 45.4996 55.9994Z"/>
<path d="M52.5001 41.9994C53.2001 41.9994 53.6667 41.5328 53.6667 40.8328V38.4994C53.6667 37.7994 53.2001 37.3328 52.5001 37.3328C51.8001 37.3328 51.3335 37.7994 51.3335 38.4994V40.8328C51.3335 41.5328 51.8001 41.9994 52.5001 41.9994Z"/>
<path d="M52.5001 34.9993C53.2001 34.9993 53.6667 34.5326 53.6667 33.8326V31.4993C53.6667 30.7993 53.2001 30.3326 52.5001 30.3326C51.8001 30.3326 51.3335 30.7993 51.3335 31.4993V33.8326C51.3335 34.5326 51.8001 34.9993 52.5001 34.9993Z"/>
<path d="M52.5001 55.9994C53.2001 55.9994 53.6667 55.5328 53.6667 54.8328V52.4994C53.6667 51.7994 53.2001 51.3328 52.5001 51.3328C51.8001 51.3328 51.3335 51.7994 51.3335 52.4994V54.8328C51.3335 55.5328 51.8001 55.9994 52.5001 55.9994Z"/>
<path d="M52.5001 48.9994C53.2001 48.9994 53.6667 48.5328 53.6667 47.8328V45.4994C53.6667 44.7994 53.2001 44.3328 52.5001 44.3328C51.8001 44.3328 51.3335 44.7994 51.3335 45.4994V47.8328C51.3335 48.5328 51.8001 48.9994 52.5001 48.9994Z"/>
<path d="M52.5001 27.9995C53.2001 27.9995 53.6667 27.5329 53.6667 26.8329V24.4995C53.6667 23.7995 53.2001 23.3329 52.5001 23.3329C51.8001 23.3329 51.3335 23.7995 51.3335 24.4995V26.8329C51.3335 27.5329 51.8001 27.9995 52.5001 27.9995Z"/>
<path d="M12.8346 44.3328C13.5346 44.3328 14.0012 43.8661 14.0012 43.1661V40.8328C14.0012 40.1328 13.5346 39.6661 12.8346 39.6661C12.1346 39.6661 11.668 40.1328 11.668 40.8328V43.1661C11.6678 43.866 12.1346 44.3328 12.8346 44.3328Z"/>
<path d="M12.8346 51.3328C13.5346 51.3328 14.0012 50.8661 14.0012 50.1661V47.8328C14.0012 47.1328 13.5346 46.6661 12.8346 46.6661C12.1346 46.6661 11.668 47.1328 11.668 47.8328V50.1661C11.6678 50.866 12.1346 51.3328 12.8346 51.3328Z"/>
<path d="M12.8346 58.3329C13.5346 58.3329 14.0012 57.8663 14.0012 57.1663V54.8329C14.0012 54.1329 13.5346 53.6663 12.8346 53.6663C12.1346 53.6663 11.668 54.1329 11.668 54.8329V57.1663C11.6678 57.8661 12.1346 58.3329 12.8346 58.3329Z"/>
<path d="M12.8346 9.3327C13.5346 9.3327 14.0012 8.86608 14.0012 8.16608V5.8327C14.0012 5.1327 13.5346 4.66608 12.8346 4.66608C12.1346 4.66608 11.668 5.1327 11.668 5.8327V8.16608C11.6678 8.86594 12.1346 9.3327 12.8346 9.3327Z"/>
<path d="M12.8346 16.3328C13.5346 16.3328 14.0012 15.8661 14.0012 15.1661V12.8328C14.0012 12.1328 13.5346 11.6661 12.8346 11.6661C12.1346 11.6661 11.668 12.1328 11.668 12.8328V15.1661C11.6678 15.866 12.1346 16.3328 12.8346 16.3328Z"/>
<path d="M12.8346 23.3329C13.5346 23.3329 14.0012 22.8663 14.0012 22.1663V19.8329C14.0012 19.1329 13.5346 18.6663 12.8346 18.6663C12.1346 18.6663 11.668 19.1329 11.668 19.8329V22.1663C11.6678 22.8661 12.1346 23.3329 12.8346 23.3329Z"/>
<path d="M12.8346 30.3328C13.5346 30.3328 14.0012 29.8661 14.0012 29.1661V26.8328C14.0012 26.1328 13.5346 25.6661 12.8346 25.6661C12.1346 25.6661 11.668 26.1328 11.668 26.8328V29.1661C11.6678 29.866 12.1346 30.3328 12.8346 30.3328Z"/>
<path d="M12.8346 37.3327C13.5346 37.3327 14.0012 36.8661 14.0012 36.1661V33.8328C14.0012 33.1328 13.5346 32.6661 12.8346 32.6661C12.1346 32.6661 11.668 33.1328 11.668 33.8328V36.1661C11.6678 36.866 12.1346 37.3327 12.8346 37.3327Z"/>
<path d="M19.8336 16.3328C20.5336 16.3328 21.0002 15.8661 21.0002 15.1661V12.8328C21.0002 12.1328 20.5336 11.6661 19.8336 11.6661C19.1336 11.6661 18.667 12.1328 18.667 12.8328V15.1661C18.6669 15.866 19.1336 16.3328 19.8336 16.3328Z"/>
<path d="M19.8336 9.3327C20.5336 9.3327 21.0002 8.86608 21.0002 8.16608V5.8327C21.0002 5.1327 20.5336 4.66608 19.8336 4.66608C19.1336 4.66608 18.667 5.1327 18.667 5.8327V8.16608C18.6669 8.86594 19.1336 9.3327 19.8336 9.3327Z"/>
<path d="M19.8336 30.3328C20.5336 30.3328 21.0002 29.8661 21.0002 29.1661V26.8328C21.0002 26.1328 20.5336 25.6661 19.8336 25.6661C19.1336 25.6661 18.667 26.1328 18.667 26.8328V29.1661C18.6669 29.866 19.1336 30.3328 19.8336 30.3328Z"/>
<path d="M19.8336 23.3329C20.5336 23.3329 21.0002 22.8663 21.0002 22.1663V19.8329C21.0002 19.1329 20.5336 18.6663 19.8336 18.6663C19.1336 18.6663 18.667 19.1329 18.667 19.8329V22.1663C18.6669 22.8661 19.1336 23.3329 19.8336 23.3329Z"/>
<path d="M19.8336 37.3327C20.5336 37.3327 21.0002 36.8661 21.0002 36.1661V33.8328C21.0002 33.1328 20.5336 32.6661 19.8336 32.6661C19.1336 32.6661 18.667 33.1328 18.667 33.8328V36.1661C18.6669 36.866 19.1336 37.3327 19.8336 37.3327Z"/>
<path d="M19.8336 44.3328C20.5336 44.3328 21.0002 43.8661 21.0002 43.1661V40.8328C21.0002 40.1328 20.5336 39.6661 19.8336 39.6661C19.1336 39.6661 18.667 40.1328 18.667 40.8328V43.1661C18.6669 43.866 19.1336 44.3328 19.8336 44.3328Z"/>
<path d="M19.8336 51.3328C20.5336 51.3328 21.0002 50.8661 21.0002 50.1661V47.8328C21.0002 47.1328 20.5336 46.6661 19.8336 46.6661C19.1336 46.6661 18.667 47.1328 18.667 47.8328V50.1661C18.6669 50.866 19.1336 51.3328 19.8336 51.3328Z"/>
<path d="M26.8336 23.3329C27.5336 23.3329 28.0002 22.8663 28.0002 22.1663V19.8329C28.0002 19.1329 27.5336 18.6663 26.8336 18.6663C26.1336 18.6663 25.667 19.1329 25.667 19.8329V22.1663C25.6669 22.8661 26.1336 23.3329 26.8336 23.3329Z"/>
<path d="M26.8336 16.3328C27.5336 16.3328 28.0002 15.8661 28.0002 15.1661V12.8328C28.0002 12.1328 27.5336 11.6661 26.8336 11.6661C26.1336 11.6661 25.667 12.1328 25.667 12.8328V15.1661C25.6669 15.866 26.1336 16.3328 26.8336 16.3328Z"/>
<path d="M26.8336 9.3327C27.5336 9.3327 28.0002 8.86608 28.0002 8.16608V5.8327C28.0002 5.1327 27.5336 4.66608 26.8336 4.66608C26.1336 4.66608 25.667 5.1327 25.667 5.8327V8.16608C25.6669 8.86594 26.1336 9.3327 26.8336 9.3327Z"/>
<path d="M26.8336 51.3328C27.5336 51.3328 28.0002 50.8661 28.0002 50.1661V47.8328C28.0002 47.1328 27.5336 46.6661 26.8336 46.6661C26.1336 46.6661 25.667 47.1328 25.667 47.8328V50.1661C25.6669 50.866 26.1336 51.3328 26.8336 51.3328Z"/>
<path d="M26.8336 44.3328C27.5336 44.3328 28.0002 43.8661 28.0002 43.1661V40.8328C28.0002 40.1328 27.5336 39.6661 26.8336 39.6661C26.1336 39.6661 25.667 40.1328 25.667 40.8328V43.1661C25.6669 43.866 26.1336 44.3328 26.8336 44.3328Z"/>
<path d="M26.8336 37.3327C27.5336 37.3327 28.0002 36.8661 28.0002 36.1661V33.8328C28.0002 33.1328 27.5336 32.6661 26.8336 32.6661C26.1336 32.6661 25.667 33.1328 25.667 33.8328V36.1661C25.6669 36.866 26.1336 37.3327 26.8336 37.3327Z"/>
<path d="M26.8336 30.3328C27.5336 30.3328 28.0002 29.8661 28.0002 29.1661V26.8328C28.0002 26.1328 27.5336 25.6661 26.8336 25.6661C26.1336 25.6661 25.667 26.1328 25.667 26.8328V29.1661C25.6669 29.866 26.1336 30.3328 26.8336 30.3328Z"/>
<path d="M33.8346 16.3328C34.5346 16.3328 35.0012 15.8661 35.0012 15.1661V12.8328C35.0012 12.1328 34.5346 11.6661 33.8346 11.6661C33.1346 11.6661 32.668 12.1328 32.668 12.8328V15.1661C32.6678 15.866 33.1346 16.3328 33.8346 16.3328Z"/>
<path d="M33.8346 9.3327C34.5346 9.3327 35.0012 8.86608 35.0012 8.16608V5.8327C35.0012 5.1327 34.5346 4.66608 33.8346 4.66608C33.1346 4.66608 32.668 5.1327 32.668 5.8327V8.16608C32.6678 8.86594 33.1346 9.3327 33.8346 9.3327Z"/>
</svg>
