<svg width="21" height="25" viewBox="0 0 21 25" fill="none" xmlns="http://www.w3.org/2000/svg">
<path d="M2 16.3791C2 13.94 2.80464 11.9285 4.41391 10.3443C6.03157 8.75181 7.94678 7.95555 10.1595 7.95555C12.607 7.95555 14.6311 8.756 16.232 10.3569C17.8329 11.9494 18.6334 13.9652 18.6334 16.4043C18.6334 18.8265 17.8413 20.8381 16.2572 22.439C14.673 24.0399 12.6782 24.8404 10.2727 24.8404C7.86715 24.8404 5.88489 24.0441 4.32591 22.4516C2.7753 20.8591 2 18.8349 2 16.3791ZM10.323 11.2495C8.94 11.2244 7.82524 11.7021 6.9787 12.6828C6.13215 13.6635 5.70888 14.9291 5.70888 16.4797C5.70888 17.9465 6.14053 19.1618 7.00384 20.1257C7.86715 21.0896 8.95676 21.5715 10.2727 21.5715C11.6557 21.5715 12.7704 21.098 13.617 20.1508C14.4719 19.1953 14.8993 17.9381 14.8993 16.3791C14.8993 14.8453 14.4803 13.6132 13.6421 12.6828C12.8123 11.7524 11.7059 11.2747 10.323 11.2495Z" fill="#222222"/>
<path d="M2.1077 5.54159C3.41684 6.8612 3.4163 6.86174 3.41577 6.86226C3.41561 6.86242 3.41509 6.86294 3.41477 6.86326C3.41412 6.8639 3.41352 6.86449 3.41296 6.86504C3.41184 6.86614 3.41091 6.86706 3.41015 6.8678C3.40863 6.86929 3.40783 6.87006 3.40773 6.87016C3.40754 6.87034 3.41017 6.8678 3.4156 6.8627C3.42648 6.8525 3.44849 6.83213 3.48144 6.80301C3.5474 6.74471 3.65662 6.65182 3.80731 6.53555C4.1094 6.30245 4.57329 5.97915 5.18477 5.65251C6.40681 4.99971 8.19858 4.34314 10.4724 4.34314V0.625491C7.46326 0.625491 5.07268 1.49756 3.43311 2.3734C2.61378 2.81107 1.97705 3.25209 1.53623 3.59223C1.31545 3.76258 1.14264 3.90854 1.01944 4.01743C0.957795 4.07191 0.908446 4.11723 0.871597 4.15181C0.853168 4.1691 0.837852 4.18373 0.825675 4.19548C0.819585 4.20136 0.814279 4.20652 0.80976 4.21095C0.8075 4.21316 0.805436 4.21519 0.80357 4.21702C0.802637 4.21794 0.801752 4.21882 0.800918 4.21964C0.800501 4.22005 0.79991 4.22064 0.799702 4.22085C0.799126 4.22142 0.798561 4.22198 2.1077 5.54159ZM10.4724 4.34314C12.7462 4.34314 14.538 4.99971 15.76 5.65251C16.3715 5.97915 16.8354 6.30245 17.1375 6.53555C17.2882 6.65182 17.3974 6.74471 17.4634 6.80301C17.4963 6.83213 17.5183 6.8525 17.5292 6.8627C17.5346 6.8678 17.5373 6.87034 17.5371 6.87016C17.537 6.87006 17.5362 6.86929 17.5347 6.8678C17.5339 6.86706 17.533 6.86614 17.5319 6.86504C17.5313 6.86449 17.5307 6.8639 17.53 6.86326C17.5297 6.86294 17.5292 6.86242 17.529 6.86226C17.5285 6.86174 17.528 6.8612 18.8371 5.54159C20.1463 4.22198 20.1457 4.22142 20.1451 4.22085C20.1449 4.22064 20.1443 4.22005 20.1439 4.21964C20.1431 4.21882 20.1422 4.21794 20.1412 4.21702C20.1394 4.21519 20.1373 4.21316 20.1351 4.21095C20.1305 4.20652 20.1252 4.20136 20.1191 4.19548C20.107 4.18373 20.0916 4.1691 20.0732 4.15181C20.0364 4.11723 19.987 4.07191 19.9254 4.01743C19.8022 3.90854 19.6294 3.76258 19.4086 3.59223C18.9678 3.25209 18.331 2.81107 17.5117 2.3734C15.8721 1.49756 13.4816 0.625491 10.4724 0.625491V4.34314Z" fill="#01D092"/>
</svg>
