<svg width="97" height="37" viewBox="0 0 97 37" fill="none" xmlns="http://www.w3.org/2000/svg">
<path d="M2.46038 20.1711C2.46038 17.2133 3.43615 14.7739 5.38767 12.8529C7.34936 10.9217 9.67187 9.95607 12.3552 9.95607C15.3232 9.95607 17.7778 10.9268 19.7192 12.8681C21.6605 14.7993 22.6312 17.2438 22.6312 20.2016C22.6312 23.139 21.6707 25.5784 19.7497 27.5198C17.8286 29.4611 15.4096 30.4318 12.4924 30.4318C9.57531 30.4318 7.17148 29.4662 5.28095 27.535C3.40057 25.6038 2.46038 23.1492 2.46038 20.1711ZM12.5534 13.9506C10.8763 13.9201 9.52449 14.4995 8.49791 15.6887C7.47133 16.8779 6.95804 18.4127 6.95804 20.293C6.95804 22.0718 7.48149 23.5456 8.5284 24.7145C9.57531 25.8834 10.8967 26.4678 12.4924 26.4678C14.1695 26.4678 15.5214 25.8935 16.5479 24.745C17.5847 23.5862 18.1031 22.0616 18.1031 20.1711C18.1031 18.311 17.5949 16.8169 16.5784 15.6887C15.5722 14.5604 14.2305 13.9811 12.5534 13.9506ZM26.2598 10.1695H37.5268V14.0421H30.544V18.1281H37.5268V22.0311H30.5745V30.1879H26.2598V10.1695ZM40.9877 10.1695H45.2872V30.1879H40.9877V10.1695ZM49.2817 10.1695H55.8681C57.8704 10.1695 59.451 10.6981 60.6097 11.7551C61.7786 12.8122 62.363 14.2403 62.363 16.0393C62.363 17.0659 62.0937 18.1332 61.555 19.2411C61.0264 20.349 60.0456 21.218 58.6124 21.8482L64.2078 30.1879H59.268L54.0843 22.4428H53.5964V30.1879H49.2817V10.1695ZM53.6269 13.7371V18.9514H54.5569C56.8032 18.9514 57.9263 18.0315 57.9263 16.1918C57.9263 15.4396 57.6316 14.845 57.0421 14.408C56.4627 13.9608 55.6547 13.7371 54.6179 13.7371H53.6269ZM67.3028 10.1695H71.6023V30.1879H67.3028V10.1695ZM74.9717 20.1711C74.9717 17.2133 75.9475 14.7739 77.899 12.8529C79.8607 10.9217 82.1832 9.95607 84.8665 9.95607C87.8345 9.95607 90.2891 10.9268 92.2305 12.8681C94.1718 14.7993 95.1425 17.2438 95.1425 20.2016C95.1425 23.139 94.182 25.5784 92.261 27.5198C90.3399 29.4611 87.9209 30.4318 85.0037 30.4318C82.0866 30.4318 79.6828 29.4662 77.7923 27.535C75.9119 25.6038 74.9717 23.1492 74.9717 20.1711ZM85.0647 13.9506C83.3876 13.9201 82.0358 14.4995 81.0092 15.6887C79.9826 16.8779 79.4693 18.4127 79.4693 20.293C79.4693 22.0718 79.9928 23.5456 81.0397 24.7145C82.0866 25.8834 83.408 26.4678 85.0037 26.4678C86.6808 26.4678 88.0327 25.8935 89.0593 24.745C90.096 23.5862 90.6144 22.0616 90.6144 20.1711C90.6144 18.311 90.1062 16.8169 89.0897 15.6887C88.0835 14.5604 86.7418 13.9811 85.0647 13.9506Z" fill="white"/>
<path d="M2.50269 6.70747C4.09024 8.30773 4.08959 8.30838 4.08894 8.30902C4.08875 8.30921 4.08812 8.30984 4.08773 8.31022C4.08694 8.311 4.08621 8.31172 4.08554 8.31239C4.08418 8.31372 4.08305 8.31483 4.08213 8.31573C4.08029 8.31753 4.07931 8.31848 4.07919 8.31859C4.07896 8.31882 4.08215 8.31573 4.08874 8.30955C4.10193 8.29717 4.12863 8.27247 4.16858 8.23716C4.24857 8.16647 4.38102 8.05381 4.56375 7.91282C4.9301 7.63015 5.49264 7.2381 6.23416 6.84198C7.7161 6.05035 9.88893 5.25414 12.6463 5.25414V0.745857C8.99722 0.745857 6.09823 1.80339 4.10997 2.86549C3.1164 3.39625 2.34425 3.93106 1.80968 4.34354C1.54195 4.55012 1.33239 4.72712 1.18298 4.85917C1.10823 4.92524 1.04838 4.98019 1.0037 5.02212C0.981349 5.0431 0.962776 5.06083 0.948009 5.07508C0.940624 5.08221 0.93419 5.08847 0.928709 5.09384C0.925969 5.09652 0.923466 5.09898 0.921203 5.10121C0.920071 5.10233 0.918999 5.10338 0.917987 5.10438C0.917481 5.10488 0.916765 5.10559 0.916513 5.10584C0.915813 5.10654 0.915128 5.10722 2.50269 6.70747ZM12.6463 5.25414C15.4037 5.25414 17.5766 6.05035 19.0585 6.84198C19.8 7.2381 20.3626 7.63015 20.7289 7.91282C20.9116 8.05381 21.0441 8.16647 21.1241 8.23716C21.164 8.27247 21.1907 8.29717 21.2039 8.30955C21.2105 8.31573 21.2137 8.31882 21.2135 8.31859C21.2134 8.31848 21.2124 8.31753 21.2105 8.31573C21.2096 8.31483 21.2085 8.31372 21.2071 8.31239C21.2065 8.31172 21.2057 8.311 21.2049 8.31022C21.2045 8.30984 21.2039 8.30921 21.2037 8.30902C21.2031 8.30838 21.2024 8.30773 22.79 6.70747C24.3775 5.10722 24.3769 5.10654 24.3762 5.10584C24.3759 5.10559 24.3752 5.10488 24.3747 5.10438C24.3737 5.10338 24.3726 5.10233 24.3715 5.10121C24.3692 5.09898 24.3667 5.09652 24.364 5.09384C24.3585 5.08847 24.352 5.08221 24.3447 5.07508C24.3299 5.06083 24.3113 5.0431 24.289 5.02212C24.2443 4.98019 24.1844 4.92524 24.1097 4.85917C23.9603 4.72712 23.7507 4.55012 23.483 4.34354C22.9484 3.93106 22.1763 3.39625 21.1827 2.86549C19.1944 1.80339 16.2954 0.745857 12.6463 0.745857V5.25414Z" fill="#01D092"/>
</svg>
