<svg viewBox="0 0 24 24" xmlns="http://www.w3.org/2000/svg">
<path d="M17 2C14.2534 2 12 4.21467 12 6.93945C12 8.16315 12.4569 9.28811 13.2031 10.1484L13.207 10.1523L13.21 10.1562C13.21 10.1562 15.1637 12.3617 15.9199 13.0723C16.5218 13.6381 17.4782 13.6381 18.0801 13.0723C18.9269 12.276 20.792 10.1543 20.792 10.1543L20.7949 10.1514L20.7969 10.1484C21.5423 9.28835 22 8.16356 22 6.93945C22 4.21467 19.7466 2 17 2ZM17 3.5C18.9474 3.5 20.5 5.03723 20.5 6.93945C20.5 7.79157 20.1867 8.56145 19.665 9.16406C19.6646 9.16461 19.6646 9.16547 19.6641 9.16602C19.6563 9.17469 17.7116 11.3599 17.0527 11.9795C17.0186 12.0116 16.9824 12.0116 16.9482 11.9795H16.9473V11.9785C16.4105 11.474 14.3424 9.17039 14.335 9.16211C13.8139 8.55993 13.5 7.7902 13.5 6.93945C13.5 5.03723 15.0526 3.5 17 3.5ZM9.23828 3.98926C9.04712 3.99254 8.86443 4.06869 8.72754 4.20215L3.30859 8.14355C3.11459 8.28455 3 8.51 3 8.75V19.25C3 19.532 3.15768 19.7909 3.40918 19.9189C3.51668 19.9734 3.634 20 3.75 20C3.9055 20 4.06091 19.9514 4.19141 19.8564L9.25 16.1777L14.3086 19.8564C14.5716 20.0479 14.9279 20.0479 15.1914 19.8564L20.6914 15.8564C20.8854 15.7154 21 15.49 21 15.25V11.4238C20.583 11.8883 20.006 12.5231 19.5 13.0566V14.8682L15.5 17.7773V14.0674C14.966 13.5254 14.297 12.8371 14 12.5156V17.7773L10 14.8682V6.22266L11.001 6.9502C11.001 6.9462 11 6.94345 11 6.93945C11 6.36095 11.0876 5.80294 11.2441 5.27344L9.78027 4.20898C9.77898 4.20768 9.77767 4.20638 9.77637 4.20508C9.70548 4.1352 9.6214 4.08013 9.52902 4.04308C9.43664 4.00603 9.3378 3.98773 9.23828 3.98926ZM17 5.75C16.6685 5.75 16.3505 5.8817 16.1161 6.11612C15.8817 6.35054 15.75 6.66848 15.75 7C15.75 7.33152 15.8817 7.64946 16.1161 7.88388C16.3505 8.1183 16.6685 8.25 17 8.25C17.3315 8.25 17.6495 8.1183 17.8839 7.88388C18.1183 7.64946 18.25 7.33152 18.25 7C18.25 6.66848 18.1183 6.35054 17.8839 6.11612C17.6495 5.8817 17.3315 5.75 17 5.75ZM8.5 6.22266V14.8682L4.5 17.7773V9.13184L8.5 6.22266ZM15.5 13.5C15.492 13.4945 15.494 13.5031 15.5 13.5186V13.5Z" />
</svg>