<svg viewBox="0 0 50 50" xmlns="http://www.w3.org/2000/svg">
<path d="M6 2V46H32V44H8V4H42V28H44V2H6ZM14 11V13H36V11H14ZM14 24V26H18V24H14ZM21 24V26H36V24H21ZM14 30V32H18V30H14ZM21 30V32H30.1836C30.0703 31.6875 30 31.3516 30 31C30 30.6484 30.0703 30.3125 30.1836 30H21ZM33 30C32.3984 30 32 30.3984 32 31C32 31.6016 32.3984 32 33 32H34V35C34 36.3984 34.6992 37.6992 35.9023 38.6992L37.5 40L36 41.3008C34.6992 42.3008 34 43.5 34 45V48H33C32.3984 48 32 48.3984 32 49C32 49.6016 32.3984 50 33 50H49C49.6016 50 50 49.6016 50 49C50 48.3984 49.6016 48 48.9023 48H48V45C48 43.6016 47.3984 42.3008 46.0977 41.3008L44.5977 40L46.0977 38.6992C47.3984 37.6992 48 36.3984 48 35V32H49C49.6016 32 50 31.6016 50 31C50 30.3984 49.6016 30 49 30H33ZM36 32H46V35C46 35.8008 45.6992 36.5 44.9023 37.1992L42.5 39.1992C42.1992 39.3984 42.0977 39.6992 42.0977 40C42.0977 40.3008 42.1992 40.5977 42.5 40.6992L44.9023 42.8008C45.6992 43.5 46 44.1016 46 45V48H44C44 46 41 44 41 44C41 44 38 46 38 48H36V45C36 44.1016 36.3984 43.5 37.1992 42.8008L39.5977 40.8008C39.8984 40.6016 40 40.3008 40 40C40 39.6992 39.8984 39.4023 39.5977 39.3008L37.1992 37.1992C36.3984 36.5 36 35.8008 36 35V32ZM38 35C38 37.1992 41 38 41 38C41 38 44 37.1992 44 35H38ZM14 36V38H18V36H14ZM21 36V38H32.7773C32.4336 37.3672 32.2031 36.6953 32.0938 36H21Z"/>
</svg>
