<svg viewBox="0 0 50 50" xmlns="http://www.w3.org/2000/svg">
<path d="M2.80078 0C1.26745 0 0 1.26745 0 2.80078V8V40C2.65169e-05 40.2652 0.105392 40.5195 0.292922 40.7071C0.480453 40.8946 0.734792 41 1 41H24C24.1325 41.0019 24.2641 40.9774 24.387 40.928C24.51 40.8786 24.6219 40.8052 24.7163 40.7122C24.8107 40.6191 24.8856 40.5082 24.9368 40.386C24.9879 40.2637 25.0142 40.1325 25.0142 40C25.0142 39.8675 24.9879 39.7363 24.9368 39.614C24.8856 39.4918 24.8107 39.3809 24.7163 39.2878C24.6219 39.1948 24.51 39.1214 24.387 39.072C24.2641 39.0226 24.1325 38.9981 24 39H2V8H42V25C41.9981 25.1325 42.0226 25.2641 42.072 25.387C42.1214 25.51 42.1948 25.6219 42.2878 25.7163C42.3809 25.8107 42.4918 25.8856 42.614 25.9368C42.7363 25.9879 42.8675 26.0142 43 26.0142C43.1325 26.0142 43.2637 25.9879 43.386 25.9368C43.5082 25.8856 43.6191 25.8107 43.7122 25.7163C43.8052 25.6219 43.8786 25.51 43.928 25.387C43.9774 25.2641 44.0019 25.1325 44 25V7V2.80078C44 1.26745 42.7326 0 41.1992 0H2.80078ZM2.80078 2H41.1992C41.6659 2 42 2.33411 42 2.80078V6H2V2.80078C2 2.33411 2.33411 2 2.80078 2ZM5 3C4.73478 3 4.48043 3.10536 4.29289 3.29289C4.10536 3.48043 4 3.73478 4 4C4 4.26522 4.10536 4.51957 4.29289 4.70711C4.48043 4.89464 4.73478 5 5 5C5.26522 5 5.51957 4.89464 5.70711 4.70711C5.89464 4.51957 6 4.26522 6 4C6 3.73478 5.89464 3.48043 5.70711 3.29289C5.51957 3.10536 5.26522 3 5 3ZM8 3C7.73478 3 7.48043 3.10536 7.29289 3.29289C7.10536 3.48043 7 3.73478 7 4C7 4.26522 7.10536 4.51957 7.29289 4.70711C7.48043 4.89464 7.73478 5 8 5C8.26522 5 8.51957 4.89464 8.70711 4.70711C8.89464 4.51957 9 4.26522 9 4C9 3.73478 8.89464 3.48043 8.70711 3.29289C8.51957 3.10536 8.26522 3 8 3ZM11 3C10.7348 3 10.4804 3.10536 10.2929 3.29289C10.1054 3.48043 10 3.73478 10 4C10 4.26522 10.1054 4.51957 10.2929 4.70711C10.4804 4.89464 10.7348 5 11 5C11.2652 5 11.5196 4.89464 11.7071 4.70711C11.8946 4.51957 12 4.26522 12 4C12 3.73478 11.8946 3.48043 11.7071 3.29289C11.5196 3.10536 11.2652 3 11 3ZM8 12V13.0508C6.85975 13.2828 6 14.2921 6 15.5C6 16.879 7.121 18 8.5 18C8.775 18 9 18.225 9 18.5C9 18.775 8.775 19 8.5 19H6.05078C6.24972 19.9775 7.02326 20.7452 8 20.9453V22H9V20.9492C10.1403 20.7172 11 19.7079 11 18.5C11 17.121 9.879 16 8.5 16C8.225 16 8 15.775 8 15.5C8 15.225 8.225 15 8.5 15H10.9492C10.7503 14.0225 9.97674 13.2548 9 13.0547V12H8ZM14 14V16H37V14H14ZM14 18V20H37V18H14ZM8 25V26.0508C6.85975 26.2828 6 27.2921 6 28.5C6 29.879 7.121 31 8.5 31C8.775 31 9 31.225 9 31.5C9 31.775 8.775 32 8.5 32H6.05078C6.24972 32.9775 7.02326 33.7452 8 33.9453V35H9V33.9492C10.1403 33.7172 11 32.7079 11 31.5C11 30.121 9.879 29 8.5 29C8.225 29 8 28.775 8 28.5C8 28.225 8.225 28 8.5 28H10.9492C10.7503 27.0225 9.97674 26.2548 9 26.0547V25H8ZM36 26C30.489 26 26 30.489 26 36C26 41.511 30.489 46 36 46C38.3965 46 40.5974 45.149 42.3223 43.7363L48.293 49.707L49.707 48.293L43.7363 42.3223C45.149 40.5974 46 38.3965 46 36C46 30.489 41.511 26 36 26ZM14 27V29H27V27H14ZM36 28C40.4301 28 44 31.5699 44 36C44 40.4301 40.4301 44 36 44C31.5699 44 28 40.4301 28 36C28 31.5699 31.5699 28 36 28ZM14 31V33H24V31H14Z"/>
</svg>
