<svg viewBox="0 0 50 50" xmlns="http://www.w3.org/2000/svg">
<path d="M25.5 4C22.4743 4 20 6.47428 20 9.5C20 12.5257 22.4743 15 25.5 15C28.5257 15 31 12.5257 31 9.5C31 6.47428 28.5257 4 25.5 4ZM48 4.24023C41.493 5.17736 35.9446 9.10191 32.791 14.5742L28.5137 16H21.1582C19.2736 16 17.4974 16.8881 16.3652 18.3945L16.416 18.332L10.8535 24.6152C10.8364 24.6354 10.8201 24.6563 10.8047 24.6777C9.65098 26.2116 9.75571 28.366 11.0527 29.7812C11.0534 29.7819 11.054 29.7826 11.0547 29.7832L17 36.2285V43C17 44.6451 18.3549 46 20 46C21.6451 46 23 44.6451 23 43V35.125C23 34.4341 22.761 33.764 22.3242 33.2285L18.8047 28.5625L24.459 22H29.3242C29.4317 22.0002 29.5386 21.983 29.6406 21.9492L30.2676 21.7402C30.0958 22.8024 30 23.8894 30 25C30 35.558 37.84 44.2968 48 45.7598V43.7383C38.947 42.2933 32 34.453 32 25C32 23.6352 32.1468 22.3052 32.4219 21.0215L35.9492 19.8457C37.6655 19.2736 38.5152 17.2404 37.6523 15.5938C37.6523 15.5931 37.6523 15.5924 37.6523 15.5918C37.1996 14.7294 36.3824 14.2141 35.4941 14.0684C38.3889 9.98411 42.8487 7.0832 48 6.25977V4.24023ZM25.5 6C27.4448 6 29 7.55516 29 9.5C29 11.4448 27.4448 13 25.5 13C23.5552 13 22 11.4448 22 9.5C22 7.55516 23.5552 6 25.5 6ZM34.9727 16.0234C35.3594 16.027 35.7206 16.2162 35.8809 16.5215C36.196 17.1228 35.9041 17.7533 35.3164 17.9492L29.1621 20H24C23.8561 20 23.7139 20.0311 23.5831 20.0911C23.4524 20.1511 23.3361 20.2386 23.2422 20.3477L16.7617 27.8672C16.6126 28.0405 16.5275 28.2597 16.5203 28.4882C16.5132 28.7167 16.5846 28.9408 16.7227 29.123L20.75 34.4629C20.7576 34.4728 20.7654 34.4826 20.7734 34.4922C20.9207 34.6727 21 34.8939 21 35.125V43C21 43.5629 20.5629 44 20 44C19.4371 44 19 43.5629 19 43V35.8379C18.9997 35.5866 18.9049 35.3447 18.7344 35.1602L12.5254 28.4297L12.5234 28.4277C11.8721 27.7152 11.8241 26.6595 12.4004 25.8867L17.9141 19.6582C17.9318 19.6381 17.9488 19.6172 17.9648 19.5957C18.7207 18.5902 19.9008 18 21.1582 18H28.6758C28.7833 18.0002 28.8901 17.983 28.9922 17.9492L34.584 16.084C34.7122 16.0413 34.8437 16.0222 34.9727 16.0234ZM9.49219 30.877L8.31445 35.4434L2.87891 40.8789C2.29391 41.4639 2.00195 42.232 2.00195 43C2.00195 43.768 2.29391 44.5361 2.87891 45.1211C3.44591 45.6881 4.198 46 5 46C5.802 46 6.55509 45.6871 7.12109 45.1211L13.1211 39.1211C13.4861 38.7561 13.7516 38.2997 13.8906 37.8027L14.3164 36.2676L12.7227 34.5371L11.9648 37.2676C11.9188 37.4326 11.829 37.585 11.707 37.707L5.70703 43.707C5.33003 44.086 4.67097 44.086 4.29297 43.707C3.90297 43.317 3.90297 42.683 4.29297 42.293L9.92188 36.6641C10.0479 36.5381 10.1366 36.38 10.1816 36.207L11.0781 32.7383L10.9199 32.5645L10.9238 32.5605L10.0547 31.6113C9.84269 31.3803 9.66119 31.131 9.49219 30.877Z"/>
</svg>
