<svg viewBox="0 0 20 20" fill="none" xmlns="http://www.w3.org/2000/svg">
<rect x="6.66675" y="5.33333" width="6.66667" height="6" fill="#138F96"/>
<path d="M9.99984 1.33335C5.94984 1.33335 2.6665 4.61668 2.6665 8.66668C2.6665 13.4894 7.4345 15.798 8.03184 16.3354C8.64184 16.884 9.14584 18.114 9.34917 18.8114C9.44784 19.15 9.72517 19.3214 9.99984 19.3287C10.2752 19.3207 10.5518 19.1494 10.6505 18.8114C10.8538 18.114 11.3578 16.8847 11.9678 16.3354C12.5652 15.798 17.3332 13.4894 17.3332 8.66668C17.3332 4.61668 14.0498 1.33335 9.99984 1.33335ZM9.99984 10.6667C8.89517 10.6667 7.99984 9.77135 7.99984 8.66668C7.99984 7.56202 8.89517 6.66668 9.99984 6.66668C11.1045 6.66668 11.9998 7.56202 11.9998 8.66668C11.9998 9.77135 11.1045 10.6667 9.99984 10.6667Z" fill="#00C2FF"/>
</svg>