<svg viewBox="0 0 24 24" xmlns="http://www.w3.org/2000/svg">
<path d="M7.25 3C5.46403 3 4 4.46403 4 6.25V8.0127C2.60593 8.14081 1.5 9.32457 1.5 10.75C1.5 11.9944 2.35851 13.012 3.5 13.3467V16.75C3.5 18.1808 4.31373 19.4299 5.5 20.0615V21.25C5.49859 21.3494 5.51696 21.4481 5.55402 21.5403C5.59108 21.6325 5.6461 21.7164 5.71588 21.7872C5.78566 21.858 5.86882 21.9142 5.96051 21.9526C6.0522 21.9909 6.15061 22.0107 6.25 22.0107C6.34939 22.0107 6.4478 21.9909 6.53949 21.9526C6.63118 21.9142 6.71434 21.858 6.78412 21.7872C6.8539 21.7164 6.90892 21.6325 6.94598 21.5403C6.98304 21.4481 7.00141 21.3494 7 21.25V20.4873C7.08304 20.4929 7.16561 20.5 7.25 20.5H16.7578C16.8396 20.5 16.9194 20.4925 17 20.4873V21.25C16.9986 21.3494 17.017 21.4481 17.054 21.5403C17.0911 21.6325 17.1461 21.7164 17.2159 21.7872C17.2857 21.858 17.3688 21.9142 17.4605 21.9526C17.5522 21.9909 17.6506 22.0107 17.75 22.0107C17.8494 22.0107 17.9478 21.9909 18.0395 21.9526C18.1312 21.9142 18.2143 21.858 18.2841 21.7872C18.3539 21.7164 18.4089 21.6325 18.446 21.5403C18.483 21.4481 18.5014 21.3494 18.5 21.25V20.0654C19.6881 19.4368 20.5044 18.1904 20.5078 16.7598C20.5078 16.7588 20.5078 16.7578 20.5078 16.7568L20.5049 13.3457C21.6439 13.0095 22.5 11.993 22.5 10.75C22.5 9.32457 21.3941 8.14081 20 8.0127V6.25C20 4.46403 18.536 3 16.75 3H7.25ZM7.25 4.5H16.75C17.725 4.5 18.5 5.27497 18.5 6.25V8.0918C17.0725 8.43366 16 9.7224 16 11.25V12.8066C15.6239 12.6123 15.1996 12.5 14.75 12.5H9.25C8.8004 12.5 8.37614 12.6123 8 12.8066V11.25C8 9.7224 6.92749 8.43366 5.5 8.0918V6.25C5.5 5.27497 6.27497 4.5 7.25 4.5ZM10.25 8C10.0511 8 9.86032 8.07902 9.71967 8.21967C9.57902 8.36032 9.5 8.55109 9.5 8.75C9.5 8.94891 9.57902 9.13968 9.71967 9.28033C9.86032 9.42098 10.0511 9.5 10.25 9.5C10.4489 9.5 10.6397 9.42098 10.7803 9.28033C10.921 9.13968 11 8.94891 11 8.75C11 8.55109 10.921 8.36032 10.7803 8.21967C10.6397 8.07902 10.4489 8 10.25 8ZM13.75 8C13.5511 8 13.3603 8.07902 13.2197 8.21967C13.079 8.36032 13 8.55109 13 8.75C13 8.94891 13.079 9.13968 13.2197 9.28033C13.3603 9.42098 13.5511 9.5 13.75 9.5C13.9489 9.5 14.1397 9.42098 14.2803 9.28033C14.421 9.13968 14.5 8.94891 14.5 8.75C14.5 8.55109 14.421 8.36032 14.2803 8.21967C14.1397 8.07902 13.9489 8 13.75 8ZM4.25 9.5H4.62695C4.69084 9.51062 4.75583 9.51291 4.82031 9.50684C5.76125 9.54386 6.5 10.2991 6.5 11.25V15.25V16.25V16.75C6.50002 16.9489 6.57904 17.1397 6.71969 17.2803C6.86034 17.421 7.05109 17.5 7.25 17.5H16.75C16.9489 17.5 17.1397 17.421 17.2803 17.2803C17.421 17.1397 17.5 16.9489 17.5 16.75V16.25V15.25V11.25C17.5 10.2991 18.2388 9.54386 19.1797 9.50684C19.2432 9.51266 19.3072 9.51037 19.3701 9.5H19.75C20.4491 9.5 21 10.0509 21 10.75C21 11.4487 20.4499 11.9984 19.752 12C19.5532 12.0005 19.3628 12.0799 19.2226 12.2207C19.0823 12.3615 19.0037 12.5522 19.0039 12.751L19.0078 16.7578C19.0037 18.0062 18.0065 19 16.7578 19H7.25C5.99825 19 5 18.0017 5 16.75V12.75C4.99998 12.5511 4.92096 12.3603 4.78031 12.2197C4.63966 12.079 4.44891 12 4.25 12C3.55089 12 3 11.4491 3 10.75C3 10.0509 3.55089 9.5 4.25 9.5ZM9.25 14H14.75C15.4491 14 16 14.5509 16 15.25V16H8V15.25C8 14.5509 8.55089 14 9.25 14Z" />
</svg>
