<svg viewBox="0 0 30 30" xmlns="http://www.w3.org/2000/svg">
<path d="M15.625 0C15.28 0 15 0.28 15 0.625V1.875C15 2.22 15.28 2.5 15.625 2.5C16.3731 2.5 16.7177 2.72939 17.1533 3.02002C17.6414 3.34564 18.2481 3.75 19.375 3.75C19.72 3.75 20 3.47 20 3.125V1.875C20 1.53 19.72 1.25 19.375 1.25C18.6269 1.25 18.2823 1.02061 17.8467 0.72998C17.3586 0.404355 16.7519 0 15.625 0ZM14.9866 4.375C14.7426 4.37857 14.5096 4.47709 14.3372 4.64966L7.77466 11.2122C7.59884 11.388 7.50005 11.6264 7.5 11.875V14.375H6.5625C4.67514 14.375 3.125 15.9251 3.125 17.8125V27.8125C3.12502 28.0611 3.22381 28.2996 3.39961 28.4754C3.57542 28.6512 3.81387 28.75 4.0625 28.75H12.1875C12.4361 28.75 12.6746 28.6512 12.8504 28.4754C13.0262 28.2996 13.125 28.0611 13.125 27.8125V24.375C13.125 23.3395 13.9645 22.5 15 22.5C16.0355 22.5 16.875 23.3395 16.875 24.375V27.8125C16.875 28.0611 16.9738 28.2996 17.1496 28.4754C17.3254 28.6512 17.5639 28.75 17.8125 28.75H25.9375C26.1861 28.75 26.4246 28.6512 26.6004 28.4754C26.7762 28.2996 26.875 28.0611 26.875 27.8125V17.8125C26.875 15.9251 25.3249 14.375 23.4375 14.375H22.5V11.875C22.5 11.6264 22.4012 11.388 22.2253 11.2122L15.6628 4.64966C15.5742 4.56099 15.4687 4.49099 15.3525 4.44382C15.2364 4.39664 15.1119 4.37324 14.9866 4.375ZM15 6.63818L20.625 12.2632V15.3125C20.625 15.5611 20.7238 15.7996 20.8996 15.9754C21.0754 16.1512 21.3139 16.25 21.5625 16.25H23.4375C24.3114 16.25 25 16.9386 25 17.8125V26.875H18.75V24.375C18.75 22.3168 17.0582 20.625 15 20.625C12.9418 20.625 11.25 22.3168 11.25 24.375V26.875H5V17.8125C5 16.9386 5.68861 16.25 6.5625 16.25H8.4375C8.68613 16.25 8.92458 16.1512 9.10039 15.9754C9.2762 15.7996 9.37498 15.5611 9.375 15.3125V12.2632L15 6.63818ZM15 10.625C14.0365 10.625 13.1951 11.0201 12.6587 11.6235C12.1223 12.227 11.875 12.9948 11.875 13.75C11.875 14.5052 12.1223 15.273 12.6587 15.8765C13.1951 16.4799 14.0365 16.875 15 16.875C15.9635 16.875 16.8049 16.4799 17.3413 15.8765C17.8777 15.273 18.125 14.5052 18.125 13.75C18.125 12.9948 17.8777 12.227 17.3413 11.6235C16.8049 11.0201 15.9635 10.625 15 10.625ZM15 12.5C15.4948 12.5 15.7472 12.6518 15.9399 12.8687C16.1327 13.0855 16.25 13.4115 16.25 13.75C16.25 14.0885 16.1327 14.4145 15.9399 14.6313C15.7472 14.8482 15.4948 15 15 15C14.5052 15 14.2528 14.8482 14.0601 14.6313C13.8673 14.4145 13.75 14.0885 13.75 13.75C13.75 13.4115 13.8673 13.0855 14.0601 12.8687C14.2528 12.6518 14.5052 12.5 15 12.5ZM7.5 18.125C7.15438 18.125 6.875 18.4044 6.875 18.75V20C6.875 20.3456 7.15438 20.625 7.5 20.625H8.75C9.09562 20.625 9.375 20.3456 9.375 20V18.75C9.375 18.4044 9.09562 18.125 8.75 18.125H7.5ZM21.25 18.125C20.9044 18.125 20.625 18.4044 20.625 18.75V20C20.625 20.3456 20.9044 20.625 21.25 20.625H22.5C22.8456 20.625 23.125 20.3456 23.125 20V18.75C23.125 18.4044 22.8456 18.125 22.5 18.125H21.25ZM7.5 22.5C7.15438 22.5 6.875 22.7794 6.875 23.125V24.375C6.875 24.7206 7.15438 25 7.5 25H8.75C9.09562 25 9.375 24.7206 9.375 24.375V23.125C9.375 22.7794 9.09562 22.5 8.75 22.5H7.5ZM21.25 22.5C20.9044 22.5 20.625 22.7794 20.625 23.125V24.375C20.625 24.7206 20.9044 25 21.25 25H22.5C22.8456 25 23.125 24.7206 23.125 24.375V23.125C23.125 22.7794 22.8456 22.5 22.5 22.5H21.25Z" />
</svg>
