<svg viewBox="0 0 30 30" fill="none" xmlns="http://www.w3.org/2000/svg">
  <mask id="maasdsk0" mask-type="alpha" maskUnits="userSpaceOnUse" x="0" y="0">
    <path d="M15 30C23.2843 30 30 23.2843 30 15C30 6.71573 23.2843 0 15 0C6.71573 0 0 6.71573 0 15C0 23.2843 6.71573 30 15 30Z" fill="#EFECE8"/>
  </mask>
  <g mask="url(#maasdsk0)">
    <path d="M15 30C23.2843 30 30 23.2843 30 15C30 6.71573 23.2843 0 15 0C6.71573 0 0 6.71573 0 15C0 23.2843 6.71573 30 15 30Z" fill="#EFECE8"/>
    <path d="M15 17C18.3137 17 21 14.3137 21 11C21 7.68629 18.3137 5 15 5C11.6863 5 9 7.68629 9 11C9 14.3137 11.6863 17 15 17Z" fill="#C6C3BD"/>
    <path d="M15 37C21.0751 37 26 32.0751 26 26C26 19.9249 21.0751 15 15 15C8.92487 15 4 19.9249 4 26C4 32.0751 8.92487 37 15 37Z" fill="#C6C3BD"/>
  </g>
</svg>
