<svg viewBox="0 0 32 32" fill="none" xmlns="http://www.w3.org/2000/svg">
<path d="M3.24512 28.8688L5.04112 22.3122C3.93312 20.3935 3.35045 18.2162 3.35112 15.9862C3.35445 9.0095 9.03178 3.3335 16.0091 3.3335C19.3951 3.33483 22.5725 4.65283 24.9625 7.04416C27.3518 9.43616 28.6678 12.6148 28.6665 15.9962C28.6638 22.9728 22.9851 28.6495 16.0091 28.6495C16.0085 28.6495 16.0091 28.6495 16.0091 28.6495H16.0038C13.8858 28.6488 11.8038 28.1175 9.95512 27.1088L3.24512 28.8688Z" fill="white"/>
<path d="M3.24515 29.202C3.15715 29.202 3.07182 29.1673 3.00848 29.1033C2.92515 29.0187 2.89248 28.8953 2.92382 28.7813L4.68315 22.3573C3.59248 20.42 3.01715 18.22 3.01848 15.9867C3.02115 8.82533 8.84848 3 16.0092 3C19.4825 3.00133 22.7458 4.354 25.1985 6.80867C27.6511 9.264 29.0011 12.5267 28.9998 15.996C28.9971 23.1567 23.1691 28.9827 16.0092 28.9827C13.8832 28.982 11.7798 28.4573 9.91315 27.4647L3.32982 29.1907C3.30182 29.1987 3.27382 29.202 3.24515 29.202Z" fill="white"/>
<path d="M16.0096 3.33317C19.3956 3.3345 22.5729 4.6525 24.9629 7.04384C27.3522 9.43584 28.6682 12.6145 28.6669 15.9958C28.6642 22.9725 22.9856 28.6492 16.0096 28.6492H16.0042C13.8862 28.6485 11.8042 28.1172 9.95555 27.1085L3.24555 28.8685L5.04155 22.3118C3.93355 20.3932 3.35089 18.2158 3.35155 15.9858C3.35489 9.00917 9.03222 3.33317 16.0096 3.33317ZM16.0096 2.6665C8.66556 2.6665 2.68822 8.64117 2.68489 15.9858C2.68422 18.2305 3.25089 20.4425 4.32555 22.4005L2.60222 28.6932C2.53955 28.9232 2.60355 29.1685 2.77155 29.3378C2.89822 29.4658 3.06955 29.5358 3.24555 29.5358C3.30222 29.5358 3.35889 29.5285 3.41489 29.5138L9.87289 27.8205C11.7582 28.7992 13.8716 29.3158 16.0042 29.3165C23.3536 29.3165 29.3309 23.3412 29.3342 15.9965C29.3356 12.4372 27.9509 9.0905 25.4356 6.57317C22.9189 4.05517 19.5716 2.66784 16.0096 2.6665Z" fill="#CFD8DC"/>
<path d="M23.4505 8.5547C21.4638 6.5667 18.8231 5.47137 16.0125 5.4707C10.2098 5.4707 5.49046 10.188 5.48779 15.9867C5.48713 17.974 6.04313 19.9087 7.09646 21.584L7.34713 21.982L6.28379 25.8627L10.2658 24.8187L10.6505 25.0467C12.2651 26.0054 14.1171 26.512 16.0051 26.5127H16.0091C21.8078 26.5127 26.5271 21.7947 26.5291 15.9954C26.5298 13.1854 25.4371 10.5427 23.4505 8.5547Z" fill="#40C351"/>
<path fill-rule="evenodd" clip-rule="evenodd" d="M12.8453 10.6966C12.6087 10.1699 12.3593 10.1593 12.1333 10.1499C11.9487 10.1419 11.738 10.1426 11.5273 10.1426C11.3167 10.1426 10.974 10.2219 10.684 10.5386C10.394 10.8553 9.57666 11.6199 9.57666 13.1759C9.57666 14.7319 10.71 16.2359 10.868 16.4466C11.026 16.6573 13.056 19.9526 16.2707 21.2206C18.942 22.2739 19.486 22.0646 20.066 22.0119C20.646 21.9593 21.9373 21.2473 22.2007 20.5086C22.464 19.7699 22.464 19.1373 22.3853 19.0053C22.306 18.8733 22.0953 18.7946 21.7793 18.6359C21.4633 18.4773 19.908 17.7126 19.618 17.6073C19.328 17.5019 19.1173 17.4493 18.906 17.7659C18.6953 18.0819 18.0893 18.7946 17.9047 19.0053C17.72 19.2166 17.5353 19.2433 17.2193 19.0846C16.9033 18.9259 15.8847 18.5926 14.676 17.5153C13.736 16.6773 13.1013 15.6419 12.9167 15.3253C12.732 15.0093 12.8967 14.8379 13.0553 14.6799C13.1973 14.5379 13.3713 14.3106 13.53 14.1259C13.688 13.9413 13.7407 13.8093 13.846 13.5986C13.9513 13.3873 13.8987 13.2026 13.8193 13.0446C13.7413 12.8859 13.1267 11.3219 12.8453 10.6966Z" fill="white"/>
</svg>
