<svg width="34" height="40" viewBox="0 0 34 40" fill="none" xmlns="http://www.w3.org/2000/svg">
<g filter="url(#filter0_d)">
<rect x="11" y="15" width="11.3333" height="10.2" fill="#1F116D"/>
<path d="M17.0001 2.8335C13.883 2.8335 11.3334 5.38308 11.3334 8.50016V11.3335H8.85425C7.09687 11.3335 5.66675 12.7636 5.66675 14.521V27.9793C5.66675 29.7367 7.09687 31.1668 8.85425 31.1668H25.1459C26.9033 31.1668 28.3334 29.7367 28.3334 27.9793V14.521C28.3334 12.7636 26.9033 11.3335 25.1459 11.3335H22.6667V8.50016C22.6667 5.38308 20.1172 2.8335 17.0001 2.8335ZM17.0001 4.9585C18.9688 4.9585 20.5417 6.53141 20.5417 8.50016V11.3335H13.4584V8.50016C13.4584 6.53141 15.0313 4.9585 17.0001 4.9585ZM17.0001 19.1252C18.1738 19.1252 19.1251 20.0765 19.1251 21.2502C19.1251 22.4239 18.1738 23.3752 17.0001 23.3752C15.8264 23.3752 14.8751 22.4239 14.8751 21.2502C14.8751 20.0765 15.8264 19.1252 17.0001 19.1252Z" fill="#6454C3"/>
</g>
<defs>
<filter id="filter0_d" x="-5" y="-2" width="44" height="44" filterUnits="userSpaceOnUse" color-interpolation-filters="sRGB">
<feFlood flood-opacity="0" result="BackgroundImageFix"/>
<feColorMatrix in="SourceAlpha" type="matrix" values="0 0 0 0 0 0 0 0 0 0 0 0 0 0 0 0 0 0 127 0"/>
<feOffset dy="3"/>
<feGaussianBlur stdDeviation="2.5"/>
<feColorMatrix type="matrix" values="0 0 0 0 0 0 0 0 0 0 0 0 0 0 0 0 0 0 0.3 0"/>
<feBlend mode="normal" in2="BackgroundImageFix" result="effect1_dropShadow"/>
<feBlend mode="normal" in="SourceGraphic" in2="effect1_dropShadow" result="shape"/>
</filter>
</defs>
</svg>
