<svg width="36" height="41" viewBox="0 0 36 41" fill="none" xmlns="http://www.w3.org/2000/svg">
<g filter="url(#filter0_d)">
<rect x="12.3333" y="9.06689" width="11.3333" height="10.2" fill="#1F116D"/>
<path d="M18.0001 2.2666C11.1151 2.2666 5.53345 7.84827 5.53345 14.7333C5.53345 22.9318 13.639 26.8565 14.6545 27.77C15.6915 28.7027 16.5483 30.7937 16.894 31.9792C17.0617 32.5549 17.5332 32.8462 18.0001 32.8587C18.4682 32.8451 18.9385 32.5538 19.1062 31.9792C19.4519 30.7937 20.3087 28.7039 21.3457 27.77C22.3612 26.8565 30.4668 22.9318 30.4668 14.7333C30.4668 7.84827 24.8851 2.2666 18.0001 2.2666ZM18.0001 18.1333C16.1222 18.1333 14.6001 16.6112 14.6001 14.7333C14.6001 12.8553 16.1222 11.3333 18.0001 11.3333C19.878 11.3333 21.4001 12.8553 21.4001 14.7333C21.4001 16.6112 19.878 18.1333 18.0001 18.1333Z" fill="#6454C3"/>
</g>
<defs>
<filter id="filter0_d" x="-4" y="-2" width="44" height="44" filterUnits="userSpaceOnUse" color-interpolation-filters="sRGB">
<feFlood flood-opacity="0" result="BackgroundImageFix"/>
<feColorMatrix in="SourceAlpha" type="matrix" values="0 0 0 0 0 0 0 0 0 0 0 0 0 0 0 0 0 0 127 0"/>
<feOffset dy="3"/>
<feGaussianBlur stdDeviation="2.5"/>
<feColorMatrix type="matrix" values="0 0 0 0 0 0 0 0 0 0 0 0 0 0 0 0 0 0 0.3 0"/>
<feBlend mode="normal" in2="BackgroundImageFix" result="effect1_dropShadow"/>
<feBlend mode="normal" in="SourceGraphic" in2="effect1_dropShadow" result="shape"/>
</filter>
</defs>
</svg>
